{"glyphs":{"0":{"ha":1171,"x_min":44,"x_max":1129,"o":"m 115 243 q 309 27 185 103 q 587 -49 432 -49 q 865 27 741 -49 q 1059 243 988 103 q 1129 562 1129 382 q 1059 880 1129 741 q 865 1096 988 1020 q 587 1172 741 1172 q 309 1096 432 1172 q 115 880 185 1020 q 44 562 44 741 q 79 313 44 382 q 115 243 115 243 m 769 795 q 587 879 701 879 q 405 795 472 879 q 337 562 337 711 q 405 328 337 412 q 587 244 472 244 q 769 328 701 244 q 836 562 836 412 q 802 753 836 711 q 769 795 769 795 m 838 864 q 587 977 742 977 q 335 864 431 977 q 239 562 239 751 q 335 259 239 372 q 587 146 431 146 q 838 259 742 146 q 934 562 934 372 q 886 808 934 751 q 838 864 838 864 m 974 831 q 816 1011 917 948 q 587 1074 715 1074 q 357 1011 458 1074 q 199 831 256 948 q 142 562 142 714 q 199 292 142 409 q 357 112 256 175 q 587 49 458 49 q 816 112 715 49 q 974 292 917 175 q 1031 562 1031 409 q 1003 773 1031 714 q 974 831 974 831 m 439 761 q 587 830 492 830 q 734 761 681 830 q 787 562 787 692 q 734 362 787 431 q 587 293 681 293 q 439 362 492 293 q 386 562 386 431 q 412 726 386 692 q 439 761 439 761 m 370 830 q 587 928 452 928 q 803 830 722 928 q 885 562 885 732 q 803 293 885 391 q 587 195 722 195 q 370 293 452 195 q 288 562 288 391 q 329 781 288 732 q 370 830 370 830 m 301 899 q 587 1025 411 1025 q 872 899 762 1025 q 983 562 983 772 q 872 224 983 351 q 587 98 762 98 q 301 224 411 98 q 191 562 191 351 q 246 835 191 772 q 301 899 301 899 m 130 791 q 233 969 168 897 q 390 1082 298 1042 q 587 1123 481 1123 q 784 1082 692 1123 q 940 969 875 1042 q 1043 791 1006 897 q 1080 562 1080 686 q 1043 332 1080 437 q 940 154 1006 227 q 784 41 875 81 q 587 0 692 0 q 390 41 481 0 q 233 154 298 81 q 130 332 168 227 q 93 562 93 437 q 112 738 93 686 q 130 791 130 791 "},"1":{"ha":592,"x_min":39,"x_max":531,"o":"m 39 879 l 189 879 l 189 0 l 238 0 l 238 879 l 287 879 l 287 0 l 336 0 l 336 879 l 385 879 l 385 0 l 433 0 l 433 879 l 482 879 l 482 0 l 531 0 l 531 928 l 39 928 l 39 879 m 39 977 l 531 977 l 531 1025 l 39 1025 l 39 977 m 39 1074 l 531 1074 l 531 1123 l 39 1123 l 39 1074 "},"2":{"ha":810,"x_min":35,"x_max":771,"o":"m 52 195 l 714 195 l 714 244 l 52 244 l 52 195 m 52 98 l 714 98 l 714 146 l 52 146 l 52 98 m 52 0 l 714 0 l 714 49 l 52 49 l 52 0 m 127 271 q 296 496 195 363 q 449 707 419 661 q 479 781 479 752 q 467 830 479 810 q 431 861 454 850 q 379 876 408 871 q 312 880 351 880 q 179 868 248 880 q 94 849 111 857 l 104 802 q 315 830 210 830 q 406 821 380 830 q 432 781 432 812 q 430 767 432 774 q 421 749 428 760 q 407 725 415 737 q 382 690 399 712 q 348 644 366 667 q 301 581 330 620 q 241 500 272 541 q 164 397 210 459 q 71 271 118 336 l 127 271 m 238 271 q 277 325 252 290 q 533 679 490 613 q 576 788 576 745 q 562 863 576 830 q 524 917 548 895 q 467 951 500 938 q 396 971 433 965 q 315 977 359 977 q 75 941 191 977 l 84 894 q 182 917 115 905 q 315 928 250 928 q 528 788 528 928 q 526 768 528 777 q 462 652 519 733 q 181 271 434 612 l 238 271 m 351 271 q 567 566 503 472 q 653 705 632 659 q 673 795 673 751 q 654 905 673 857 q 603 985 635 954 q 525 1038 571 1017 q 426 1067 478 1059 q 313 1076 374 1076 q 54 1037 188 1076 l 64 987 q 315 1025 189 1025 q 433 1014 380 1025 q 531 977 486 1002 q 600 905 575 951 q 625 795 625 859 q 575 665 625 743 q 294 271 526 587 l 351 271 m 469 271 q 668 539 603 442 q 752 689 732 636 q 771 802 771 742 q 738 968 771 896 q 643 1084 704 1040 q 499 1150 581 1128 q 315 1172 416 1172 q 35 1131 178 1172 l 45 1082 q 316 1123 186 1123 q 447 1112 387 1123 q 559 1075 508 1100 q 646 1013 610 1050 q 702 922 682 976 q 722 802 722 868 q 703 700 722 749 q 619 556 683 651 q 412 271 555 460 l 469 271 "},"3":{"ha":850,"x_min":34,"x_max":806,"o":"m 364 245 q 472 270 430 245 q 513 347 513 296 q 472 416 513 394 q 368 437 431 437 l 220 437 l 220 389 l 368 389 q 465 347 465 389 q 364 294 465 294 q 102 323 195 294 l 92 277 q 364 245 207 245 m 505 726 q 513 770 513 741 q 472 852 513 825 q 364 879 430 879 q 92 846 207 879 l 102 801 q 364 830 195 830 q 465 770 465 830 q 458 736 465 747 l 505 726 m 83 892 q 364 928 207 928 q 506 886 450 928 q 562 770 562 845 q 551 712 562 738 l 596 694 q 611 770 611 732 q 541 921 611 866 q 364 977 470 977 q 73 940 200 977 l 83 892 m 680 648 q 709 770 709 705 q 662 931 709 861 q 537 1038 615 1001 q 364 1074 459 1074 q 54 1035 194 1074 l 64 986 q 364 1025 209 1025 q 575 956 490 1025 q 660 770 660 886 q 640 672 660 719 l 680 648 m 753 577 q 806 770 806 664 q 771 934 806 859 q 677 1062 736 1010 q 536 1143 617 1114 q 364 1172 455 1172 q 34 1131 182 1172 l 44 1082 q 364 1123 198 1123 q 562 1080 473 1123 q 704 956 651 1037 q 758 770 758 874 q 718 614 758 686 l 753 577 m 364 196 q 83 231 207 196 l 73 184 q 364 147 200 147 q 541 200 470 147 q 611 347 611 254 q 542 484 611 433 q 374 535 473 535 l 220 535 l 220 486 l 374 486 q 507 449 452 486 q 562 347 562 412 q 506 236 562 275 q 364 196 450 196 m 364 98 q 64 138 209 98 l 54 89 q 364 50 194 50 q 537 85 459 50 q 662 190 615 121 q 709 347 709 258 q 664 491 709 425 q 544 595 620 557 q 378 633 468 633 l 220 633 l 220 584 l 377 584 q 577 519 494 584 q 660 347 660 454 q 575 166 660 233 q 364 98 490 98 m 364 1 q 44 41 198 1 l 34 -7 q 364 -48 182 -48 q 586 1 486 -48 q 747 140 687 50 q 806 347 806 231 q 771 504 806 431 q 677 626 736 577 q 542 703 618 675 q 381 730 465 730 l 220 730 l 220 682 l 378 682 q 518 658 450 682 q 639 592 586 634 q 725 485 692 549 q 758 347 758 421 q 704 165 758 245 q 562 43 651 85 q 364 1 473 1 "},"4":{"ha":864,"x_min":44,"x_max":827,"o":"m 655 0 l 655 170 l 606 170 l 606 0 l 655 0 m 753 0 l 753 170 l 704 170 l 704 0 l 753 0 m 655 463 l 655 658 l 606 658 l 606 463 l 655 463 m 753 463 l 753 658 l 704 658 l 704 463 l 753 463 m 45 391 l 827 391 l 827 439 l 45 439 l 45 391 m 45 293 l 827 293 l 827 342 l 45 342 l 45 293 m 45 195 l 827 195 l 827 244 l 45 244 l 45 195 m 349 1122 l 44 464 l 101 464 l 405 1123 l 349 1122 m 460 1122 l 155 464 l 212 464 l 514 1122 l 460 1122 m 569 1122 l 268 464 l 325 464 l 625 1122 l 569 1122 m 680 1122 l 385 464 l 442 464 l 736 1123 l 680 1122 "},"5":{"ha":961,"x_min":28,"x_max":924,"o":"m 819 928 l 76 928 l 76 406 l 125 406 l 125 879 l 174 879 l 174 406 l 222 406 l 222 879 l 271 879 l 271 406 l 320 406 l 320 879 l 819 879 l 819 928 m 819 1025 l 76 1025 l 76 977 l 819 977 l 819 1025 m 819 1123 l 76 1123 l 76 1074 l 819 1074 l 819 1123 m 448 294 q 296 315 340 294 l 256 286 q 448 245 322 245 q 579 272 528 245 q 631 353 631 299 q 607 418 631 393 q 550 454 584 444 q 472 465 515 465 q 353 450 412 465 l 353 401 q 471 419 397 419 q 551 404 519 419 q 582 353 582 388 q 448 294 582 294 m 448 196 q 219 254 300 196 l 180 224 q 448 147 275 147 q 648 202 568 147 q 728 353 728 258 q 657 503 728 448 q 485 557 587 557 q 353 547 436 557 l 353 496 q 484 511 422 511 q 623 470 566 511 q 680 353 680 429 q 614 237 680 279 q 448 196 548 196 m 448 98 q 276 123 355 98 q 142 194 196 148 l 104 163 q 254 79 164 109 q 448 50 343 50 q 638 86 552 50 q 775 193 724 123 q 826 353 826 263 q 782 507 826 438 q 662 613 737 575 q 496 651 586 651 q 353 642 431 651 l 353 593 q 494 604 419 604 q 633 576 570 604 q 737 490 696 549 q 777 353 777 432 q 683 168 777 237 q 448 98 588 98 m 448 1 q 234 35 333 1 q 67 132 134 69 l 28 102 q 211 -8 102 31 q 448 -48 321 -48 q 632 -19 545 -48 q 784 62 720 10 q 886 190 848 114 q 924 353 924 265 q 890 515 924 441 q 799 640 856 590 q 667 718 742 690 q 512 746 593 746 q 353 736 419 746 l 353 686 q 397 692 367 688 q 450 698 427 696 q 509 700 474 700 q 644 675 578 700 q 761 607 709 651 q 844 497 812 564 q 875 353 875 431 q 841 209 875 275 q 749 97 807 142 q 613 26 692 52 q 448 1 535 1 "},"6":{"ha":1086,"x_min":50,"x_max":1049,"o":"m 342 702 l 342 408 q 355 341 342 370 q 387 294 367 312 q 438 265 408 276 q 500 249 468 254 q 573 245 533 245 q 705 272 654 245 q 756 353 756 299 q 715 438 756 411 q 611 465 673 465 q 429 430 513 465 l 429 381 q 610 419 513 419 q 680 404 653 419 q 707 353 707 388 q 573 294 707 294 q 516 296 539 294 q 467 304 492 298 q 426 323 441 311 q 401 356 411 335 q 391 408 391 378 l 391 702 q 437 800 391 770 q 559 830 484 830 q 711 808 667 830 l 751 838 q 559 879 685 879 q 403 834 464 879 q 342 702 342 790 m 245 702 l 245 408 q 271 290 245 340 q 342 208 296 239 q 446 162 387 178 q 573 147 504 147 q 774 202 694 147 q 854 353 854 258 q 785 503 854 448 q 617 557 716 557 q 429 527 520 557 l 429 475 q 616 511 517 511 q 750 470 695 511 q 805 353 805 429 q 739 237 805 279 q 573 196 673 196 q 464 207 513 196 q 376 242 415 218 q 315 309 336 267 q 294 408 294 351 l 294 702 q 369 869 294 810 q 559 928 444 928 q 788 869 707 928 l 827 899 q 559 977 732 977 q 401 947 471 977 q 288 854 331 918 q 245 702 245 791 m 147 702 l 147 408 q 181 252 147 321 q 273 139 214 183 q 408 73 332 96 q 573 50 484 50 q 763 86 677 50 q 900 193 849 123 q 951 353 951 263 q 907 507 951 438 q 787 613 863 575 q 621 651 711 651 q 429 622 524 651 l 429 572 q 620 604 520 604 q 759 576 696 604 q 862 490 822 549 q 903 353 903 432 q 808 168 903 237 q 573 98 713 98 q 426 117 494 98 q 307 174 359 136 q 225 271 255 211 q 196 408 196 331 l 196 702 q 224 841 196 779 q 303 943 253 903 q 418 1004 353 983 q 559 1025 484 1025 q 731 1001 652 1025 q 865 930 811 976 l 903 960 q 753 1044 843 1015 q 559 1074 664 1074 q 399 1049 474 1074 q 269 979 325 1025 q 180 862 212 933 q 147 702 147 790 m 50 702 l 50 408 q 91 214 50 301 q 203 70 132 127 q 369 -18 275 13 q 573 -48 464 -48 q 758 -19 671 -48 q 909 62 845 10 q 1011 190 974 114 q 1049 353 1049 265 q 1014 515 1049 441 q 920 640 979 590 q 784 718 861 690 q 624 746 707 746 q 429 720 522 746 l 429 669 q 621 700 518 700 q 761 675 693 700 q 882 607 829 651 q 968 497 935 564 q 1000 353 1000 431 q 966 209 1000 275 q 875 97 932 142 q 739 26 817 52 q 573 1 661 1 q 424 17 494 1 q 293 68 353 34 q 191 150 234 102 q 123 264 147 198 q 98 408 98 330 l 98 702 q 135 882 98 802 q 234 1015 171 963 q 380 1095 297 1067 q 559 1123 464 1123 q 773 1089 674 1123 q 940 992 873 1055 l 979 1021 q 796 1132 905 1093 q 559 1172 686 1172 q 361 1139 454 1172 q 199 1047 269 1106 q 90 898 130 987 q 50 702 50 809 "},"7":{"ha":878,"x_min":39,"x_max":847,"o":"m 796 1123 l 519 0 l 570 0 l 847 1123 l 796 1123 m 415 928 l 39 928 l 39 879 l 404 879 l 415 928 m 438 1025 l 39 1025 l 39 977 l 427 977 l 438 1025 m 460 1123 l 39 1123 l 39 1074 l 450 1074 l 460 1123 m 494 1123 l 218 0 l 268 0 l 545 1123 l 494 1123 m 595 1123 l 318 0 l 369 0 l 646 1123 l 595 1123 m 696 1123 l 419 0 l 469 0 l 746 1123 l 696 1123 "},"8":{"ha":1123,"x_min":47,"x_max":1079,"o":"m 479 732 q 413 743 437 732 q 389 783 389 753 q 414 818 389 806 q 476 830 439 830 l 637 830 q 737 770 737 830 q 732 743 737 750 l 778 734 q 786 770 786 747 q 744 852 786 825 q 637 879 703 879 l 476 879 q 379 853 418 879 q 340 783 340 828 q 479 684 340 684 l 658 684 q 795 659 728 684 q 914 592 862 635 q 998 485 966 549 q 1030 346 1030 420 q 979 164 1030 244 q 841 42 927 85 q 650 0 755 0 l 490 0 q 292 42 381 0 q 150 164 203 84 q 96 349 96 245 q 136 505 96 433 l 101 542 q 47 349 47 455 q 82 185 47 260 q 177 60 117 111 q 318 -20 237 9 q 490 -49 399 -49 l 650 -49 q 866 0 768 -49 q 1021 140 963 49 q 1079 346 1079 231 q 1044 504 1079 431 q 952 627 1010 577 q 818 704 894 676 q 661 732 743 732 l 479 732 m 647 391 q 737 346 737 391 q 650 293 737 293 l 490 293 q 416 305 442 293 q 389 349 389 317 q 395 380 389 371 l 348 391 q 340 349 340 377 q 382 270 340 295 q 490 244 423 244 l 650 244 q 748 270 710 244 q 786 346 786 295 q 746 416 786 393 q 648 439 707 439 l 469 439 q 331 464 398 439 q 212 531 264 488 q 128 640 160 574 q 96 783 96 706 q 126 921 96 857 q 208 1029 157 985 q 329 1098 259 1073 q 476 1123 398 1123 l 637 1123 q 834 1080 745 1123 q 977 956 924 1037 q 1030 770 1030 874 q 990 614 1030 686 l 1025 577 q 1079 770 1079 664 q 1044 934 1079 859 q 949 1062 1009 1010 q 809 1143 890 1114 q 637 1172 728 1172 l 476 1172 q 261 1123 359 1172 q 105 984 163 1074 q 47 783 47 895 q 82 621 47 696 q 175 497 117 547 q 308 419 233 447 q 466 391 384 391 l 647 391 m 653 488 q 782 450 728 488 q 835 346 835 412 q 783 235 835 275 q 650 195 730 195 l 490 195 q 348 235 404 195 q 292 349 292 275 q 302 405 292 380 l 257 423 q 243 349 243 387 q 313 200 243 253 q 490 146 383 146 l 650 146 q 817 200 751 146 q 884 346 884 253 q 851 448 884 404 q 767 515 819 492 q 654 537 715 537 l 470 537 q 366 554 415 537 q 278 601 316 570 q 217 679 239 631 q 194 783 194 726 q 275 958 194 891 q 476 1025 357 1025 l 637 1025 q 848 956 763 1025 q 932 770 932 886 q 913 672 932 719 l 953 648 q 981 770 981 705 q 935 931 981 861 q 810 1038 888 1001 q 637 1074 732 1074 l 476 1074 q 241 992 337 1074 q 145 783 145 911 q 240 573 145 658 q 469 488 334 488 l 653 488 m 656 586 q 792 558 730 586 q 893 474 854 530 q 932 346 932 418 q 851 165 932 233 q 650 98 770 98 l 490 98 q 341 126 408 98 q 234 213 275 155 q 194 349 194 271 q 214 447 194 400 l 174 471 q 145 349 145 414 q 192 189 145 258 q 317 84 239 120 q 490 49 395 49 l 650 49 q 816 85 741 49 q 936 189 891 121 q 981 346 981 258 q 886 550 981 466 q 658 635 791 635 l 473 635 q 344 673 397 635 q 292 783 292 711 q 345 888 292 849 q 476 928 397 928 l 637 928 q 779 886 722 928 q 835 770 835 845 q 825 719 835 739 l 870 701 q 884 770 884 732 q 813 921 884 866 q 637 977 743 977 l 476 977 q 310 924 377 977 q 243 783 243 871 q 310 639 243 692 q 473 586 376 586 l 656 586 "},"9":{"ha":1086,"x_min":39,"x_max":1038,"o":"m 745 422 l 745 716 q 733 783 745 754 q 701 830 721 812 q 650 859 680 848 q 587 874 620 870 q 515 879 555 879 q 383 852 434 879 q 332 770 332 825 q 357 705 332 731 q 420 669 382 680 q 504 659 457 659 q 659 694 587 659 l 659 743 q 505 705 589 705 q 415 720 450 705 q 380 770 380 736 q 515 830 380 830 q 572 828 549 830 q 621 820 595 826 q 662 801 646 813 q 687 767 677 789 q 696 716 696 746 l 696 422 q 650 324 696 354 q 528 294 604 294 q 376 315 420 294 l 337 286 q 528 245 403 245 q 685 289 624 245 q 745 422 745 334 m 843 422 l 843 716 q 817 834 843 783 q 746 916 791 885 q 642 961 701 946 q 515 977 584 977 q 314 921 394 977 q 234 770 234 866 q 311 621 234 675 q 498 566 388 566 q 659 597 580 566 l 659 648 q 498 612 583 612 q 393 629 441 612 q 314 683 345 646 q 283 770 283 720 q 349 886 283 845 q 515 928 414 928 q 624 917 575 928 q 712 881 673 905 q 773 815 751 857 q 794 716 794 773 l 794 422 q 719 255 794 313 q 528 196 644 196 q 300 254 380 196 l 261 224 q 528 147 356 147 q 687 177 617 147 q 800 270 757 206 q 843 422 843 333 m 941 422 l 941 716 q 907 872 941 803 q 815 984 873 941 q 680 1051 756 1028 q 515 1074 604 1074 q 325 1038 410 1074 q 188 931 239 1001 q 136 770 136 861 q 184 617 136 686 q 314 511 233 549 q 494 473 396 473 q 659 502 576 473 l 659 551 q 495 519 579 519 q 378 536 433 519 q 279 584 323 553 q 211 663 236 614 q 185 770 185 711 q 280 956 185 886 q 515 1025 374 1025 q 662 1006 594 1025 q 781 950 729 987 q 862 853 833 913 q 892 716 892 793 l 892 422 q 863 283 892 345 q 785 181 835 221 q 669 120 735 141 q 528 98 604 98 q 356 123 436 98 q 222 194 277 148 l 184 163 q 334 79 245 109 q 528 50 424 50 q 688 74 614 50 q 819 145 763 99 q 908 262 876 191 q 941 422 941 334 m 1038 422 l 1038 716 q 997 910 1038 823 q 885 1054 956 997 q 719 1141 813 1111 q 515 1172 624 1172 q 330 1143 417 1172 q 178 1062 243 1114 q 76 934 114 1010 q 39 770 39 859 q 76 608 39 683 q 176 484 114 534 q 320 406 239 434 q 491 378 402 378 q 659 404 578 378 l 659 454 q 494 424 581 424 q 373 439 433 424 q 262 485 314 454 q 172 556 211 515 q 110 652 133 597 q 87 770 87 708 q 121 915 87 848 q 213 1027 155 981 q 349 1098 271 1072 q 515 1123 427 1123 q 664 1106 593 1123 q 794 1056 735 1090 q 897 974 854 1022 q 965 860 941 926 q 989 716 989 793 l 989 422 q 953 241 989 322 q 854 109 917 161 q 707 29 791 57 q 528 1 624 1 q 314 35 414 1 q 148 132 215 69 l 109 102 q 292 -8 182 31 q 528 -48 401 -48 q 726 -15 633 -48 q 888 77 819 18 q 998 225 958 136 q 1038 422 1038 315 "},"\u0000":{"ha":151,"x_min":0,"x_max":0,"o":""},"\r":{"ha":151,"x_min":0,"x_max":0,"o":""},"\u0002":{"ha":151,"x_min":0,"x_max":0,"o":""},"\t":{"ha":151,"x_min":0,"x_max":0,"o":""},"\n":{"ha":151,"x_min":0,"x_max":0,"o":""}," ":{"ha":151,"x_min":0,"x_max":0,"o":""},"!":{"ha":467,"x_min":64,"x_max":406,"o":"m 64 146 l 406 146 l 406 195 l 64 195 l 64 146 m 64 49 l 406 49 l 406 98 l 64 98 l 64 49 m 64 -49 l 406 -49 l 406 0 l 64 0 l 64 -49 m 357 1123 l 357 293 l 406 293 l 406 1123 l 357 1123 m 259 1123 l 259 293 l 308 293 l 308 1123 l 259 1123 m 161 1123 l 161 293 l 210 293 l 210 1123 l 161 1123 m 64 1123 l 64 293 l 113 293 l 113 1123 l 64 1123 "},"\"":{"ha":748,"x_min":57,"x_max":691,"o":"m 642 683 l 691 683 l 691 1123 l 642 1123 l 642 683 m 545 683 l 593 683 l 593 1123 l 545 1123 l 545 683 m 447 683 l 496 683 l 496 1123 l 447 1123 l 447 683 m 252 683 l 301 683 l 301 1123 l 252 1123 l 252 683 m 155 683 l 203 683 l 203 1123 l 155 1123 l 155 683 m 57 683 l 106 683 l 106 1123 l 57 1123 l 57 683 "},"#":{"ha":1409,"x_min":26,"x_max":1382,"o":"m 753 357 l 568 357 l 555 309 l 741 309 l 753 357 m 728 260 l 543 260 l 530 211 l 716 211 l 728 260 m 703 161 l 517 161 l 505 113 l 692 113 l 703 161 m 1234 357 l 1063 357 l 1050 309 l 1222 309 l 1234 357 m 1210 260 l 1038 260 l 1025 211 l 1198 211 l 1210 260 m 1185 161 l 1012 161 l 1000 113 l 1173 113 l 1185 161 m 260 357 l 89 357 l 76 309 l 248 309 l 260 357 m 236 260 l 64 260 l 51 211 l 224 211 l 236 260 m 211 161 l 38 161 l 26 113 l 199 113 l 211 161 m 901 955 l 715 955 l 703 906 l 888 906 l 901 955 m 876 857 l 690 857 l 677 808 l 864 808 l 876 857 m 851 758 l 665 758 l 652 711 l 840 711 l 851 758 m 1382 955 l 1211 955 l 1198 906 l 1370 906 l 1382 955 m 1358 857 l 1185 857 l 1173 808 l 1345 808 l 1358 857 m 1333 758 l 1160 758 l 1147 711 l 1321 711 l 1333 758 m 490 1172 l 176 -82 l 227 -82 l 541 1172 l 490 1172 m 408 955 l 237 955 l 224 906 l 396 906 l 408 955 m 384 857 l 212 857 l 199 808 l 372 808 l 384 857 m 359 758 l 186 758 l 174 711 l 347 711 l 359 758 m 693 1172 l 378 -82 l 429 -82 l 743 1172 l 693 1172 m 591 1172 l 277 -82 l 328 -82 l 642 1172 l 591 1172 m 1186 1172 l 871 -82 l 922 -82 l 1236 1172 l 1186 1172 m 1084 1172 l 770 -82 l 821 -82 l 1135 1172 l 1084 1172 m 983 1172 l 669 -82 l 720 -82 l 1034 1172 l 983 1172 "},"$":{"ha":953,"x_min":32,"x_max":922,"o":"m 440 684 q 365 710 388 684 q 342 781 342 737 q 488 879 342 879 q 694 838 625 879 l 654 808 q 488 830 607 830 q 409 817 429 830 q 389 781 389 804 q 400 745 389 758 q 440 732 411 732 l 524 732 q 689 701 616 732 q 810 616 763 670 q 883 492 858 562 q 908 342 908 422 q 890 218 908 277 q 834 111 871 160 q 746 27 798 62 q 622 -29 694 -9 q 467 -49 551 -49 q 222 -9 336 -49 q 32 102 108 31 l 71 131 q 244 34 140 68 q 467 0 349 0 q 635 27 560 0 q 759 100 710 54 q 833 209 807 147 q 859 342 859 271 q 821 512 859 436 q 706 636 783 589 q 522 684 628 684 l 440 684 m 517 635 q 733 551 655 635 q 810 342 810 467 q 720 132 810 215 q 467 49 630 49 q 264 79 359 49 q 108 163 170 109 l 146 193 q 286 123 201 148 q 467 98 370 98 q 686 166 610 98 q 762 342 762 235 q 698 517 762 448 q 517 586 635 586 l 440 586 q 292 640 341 586 q 242 781 242 694 q 303 922 242 868 q 488 977 365 977 q 648 957 574 977 q 770 899 722 937 l 731 869 q 488 928 646 928 q 338 887 385 928 q 291 781 291 847 q 326 675 291 715 q 440 635 361 635 l 517 635 m 515 537 q 663 482 614 537 q 713 342 713 427 q 651 201 713 255 q 467 146 590 146 q 307 166 381 146 q 184 224 233 186 l 223 254 q 467 195 308 195 q 617 236 570 195 q 664 342 664 276 q 629 448 664 408 q 514 488 593 488 l 440 488 q 223 571 301 488 q 144 781 144 654 q 235 991 144 908 q 488 1074 325 1074 q 690 1044 596 1074 q 846 960 784 1015 l 808 930 q 669 1000 753 975 q 488 1025 585 1025 q 269 957 345 1025 q 193 781 193 888 q 257 606 193 675 q 440 537 321 537 l 515 537 m 515 439 q 590 412 567 439 q 613 342 613 385 q 467 244 613 244 q 260 285 330 244 l 300 315 q 467 293 347 293 q 546 306 526 293 q 566 342 566 319 q 554 377 566 364 q 513 391 543 391 l 440 391 q 271 421 347 391 q 147 505 195 452 q 73 629 98 559 q 47 781 47 700 q 65 905 47 846 q 120 1012 83 963 q 209 1096 157 1061 q 333 1152 261 1132 q 488 1172 404 1172 q 732 1132 618 1172 q 922 1021 846 1093 l 883 992 q 710 1089 814 1055 q 488 1123 606 1123 q 320 1096 395 1123 q 196 1023 245 1069 q 122 914 148 976 q 96 781 96 852 q 134 609 96 686 q 252 486 173 532 q 440 439 332 439 l 515 439 m 566 -74 l 517 -77 l 517 -202 l 566 -202 l 566 -74 m 370 -202 l 419 -202 l 419 -77 l 370 -71 l 370 -202 m 566 1318 l 517 1318 l 517 1194 l 566 1190 l 566 1318 m 370 1187 l 419 1194 l 419 1318 l 370 1318 l 370 1187 "},"%":{"ha":2090,"x_min":39,"x_max":2054,"o":"m 1274 205 q 1362 73 1307 128 q 1493 -16 1417 17 q 1651 -49 1569 -49 q 1807 -16 1733 -49 q 1936 73 1882 17 q 2022 205 1990 128 q 2054 366 2054 282 q 2022 527 2054 450 q 1936 660 1990 604 q 1807 748 1882 715 q 1651 781 1733 781 q 1493 748 1569 781 q 1362 660 1417 715 q 1274 527 1307 604 q 1242 366 1242 450 q 1258 244 1242 282 q 1274 205 1274 205 m 1729 452 q 1651 488 1697 488 q 1569 452 1603 488 q 1535 366 1535 416 q 1569 280 1535 316 q 1651 244 1603 244 q 1729 280 1697 244 q 1761 366 1761 316 q 1745 434 1761 416 q 1729 452 1729 452 m 1798 521 q 1651 586 1737 586 q 1500 522 1563 586 q 1437 366 1437 457 q 1500 211 1437 275 q 1651 146 1563 146 q 1798 211 1737 146 q 1859 366 1859 276 q 1828 489 1859 456 q 1798 521 1798 521 m 1867 590 q 1651 684 1777 684 q 1495 641 1567 684 q 1381 525 1423 598 q 1339 366 1339 452 q 1381 208 1339 281 q 1495 92 1423 134 q 1651 49 1567 49 q 1867 142 1777 49 q 1957 366 1957 235 q 1912 544 1957 497 q 1867 590 1867 590 m 1604 418 q 1651 439 1624 439 q 1694 418 1676 439 q 1712 366 1712 396 q 1694 315 1712 336 q 1651 293 1676 293 q 1604 315 1624 293 q 1584 366 1584 336 q 1594 407 1584 396 q 1604 418 1604 418 m 1534 487 q 1651 537 1583 537 q 1764 487 1717 537 q 1810 366 1810 437 q 1764 245 1810 296 q 1651 195 1717 195 q 1534 245 1583 195 q 1486 366 1486 296 q 1510 462 1486 437 q 1534 487 1534 487 m 1466 556 q 1651 635 1543 635 q 1832 556 1757 635 q 1908 366 1908 477 q 1832 177 1908 256 q 1651 98 1757 98 q 1466 177 1543 98 q 1388 366 1388 256 q 1427 516 1388 477 q 1466 556 1466 556 m 1339 550 q 1471 683 1388 634 q 1651 732 1554 732 q 1829 683 1747 732 q 1958 550 1910 634 q 2005 366 2005 465 q 1958 183 2005 267 q 1829 49 1910 98 q 1651 0 1747 0 q 1471 49 1554 0 q 1339 183 1388 98 q 1291 366 1291 267 q 1315 507 1291 465 q 1339 550 1339 550 m 71 596 q 159 463 104 519 q 290 375 214 408 q 448 342 366 342 q 604 375 530 342 q 733 463 679 408 q 819 596 787 519 q 851 757 851 673 q 819 918 851 841 q 733 1050 787 995 q 604 1139 679 1106 q 448 1172 530 1172 q 290 1139 366 1172 q 159 1050 214 1106 q 71 918 104 995 q 39 757 39 841 q 55 634 39 673 q 71 596 71 596 m 526 843 q 448 879 494 879 q 366 843 400 879 q 332 757 332 807 q 366 671 332 707 q 448 635 400 635 q 526 671 494 635 q 558 757 558 707 q 542 825 558 807 q 526 843 526 843 m 595 912 q 448 977 534 977 q 297 912 360 977 q 234 757 234 848 q 297 602 234 666 q 448 537 360 537 q 595 602 534 537 q 656 757 656 667 q 625 879 656 847 q 595 912 595 912 m 664 981 q 448 1074 574 1074 q 292 1031 364 1074 q 178 916 220 989 q 136 757 136 842 q 178 598 136 671 q 292 482 220 525 q 448 439 364 439 q 664 533 574 439 q 753 757 753 626 q 709 934 753 888 q 664 981 664 981 m 400 808 q 448 830 420 830 q 491 808 473 830 q 509 757 509 787 q 491 705 509 727 q 448 684 473 684 q 400 705 420 684 q 380 757 380 727 q 390 798 380 787 q 400 808 400 808 m 331 878 q 448 928 380 928 q 561 878 514 928 q 607 757 607 827 q 561 636 607 686 q 448 586 514 586 q 331 636 380 586 q 283 757 283 686 q 307 852 283 827 q 331 878 331 878 m 262 946 q 448 1025 340 1025 q 629 946 554 1025 q 705 757 705 867 q 629 567 705 646 q 448 488 554 488 q 262 567 340 488 q 185 757 185 646 q 224 907 185 867 q 262 946 262 946 m 136 940 q 268 1074 184 1025 q 448 1123 351 1123 q 626 1074 544 1123 q 755 940 707 1025 q 802 757 802 856 q 755 573 802 658 q 626 440 707 489 q 448 391 544 391 q 268 440 351 391 q 136 573 184 489 q 87 757 87 658 q 112 898 87 856 q 136 940 136 940 m 1270 1122 l 956 -98 l 1006 -98 l 1320 1122 l 1270 1122 m 1168 1122 l 854 -98 l 905 -98 l 1219 1122 l 1168 1122 m 1067 1122 l 753 -98 l 804 -98 l 1118 1122 l 1067 1122 "},"&":{"ha":1430,"x_min":47,"x_max":1392,"o":"m 1244 530 l 1392 530 l 1392 578 l 1244 578 l 1244 530 m 1244 436 l 1392 436 l 1392 485 l 1244 485 l 1244 436 m 1170 393 q 1195 318 1170 343 q 1257 293 1219 293 l 1350 293 l 1350 342 l 1259 342 q 1229 352 1240 342 q 1219 393 1219 363 l 1219 1123 l 1170 1123 l 1170 393 m 1072 393 q 1126 248 1072 301 q 1255 195 1179 195 l 1350 195 l 1350 244 l 1253 244 q 1158 283 1196 244 q 1121 393 1121 321 l 1121 1123 l 1072 1123 l 1072 393 m 975 393 q 1015 235 975 304 q 1118 132 1055 167 q 1257 98 1182 98 l 1350 98 l 1350 146 l 1255 146 q 1141 175 1194 146 q 1056 260 1089 203 q 1023 393 1023 317 l 1023 1123 l 975 1123 l 975 393 m 877 393 q 908 230 877 305 q 992 105 939 155 q 1113 28 1044 56 q 1255 0 1181 0 l 1350 0 l 1350 49 l 1255 49 q 1131 73 1190 49 q 1026 140 1072 97 q 953 250 980 184 q 926 393 926 315 l 926 1123 l 877 1123 l 877 393 m 389 391 q 405 427 389 418 q 451 435 420 435 l 854 435 l 854 484 l 451 484 q 340 391 340 484 q 370 316 340 339 q 451 293 401 293 l 828 293 l 828 342 l 451 342 q 389 391 389 342 m 779 830 l 451 830 q 372 802 405 830 q 340 732 340 774 q 370 651 340 676 q 451 627 401 627 l 854 627 l 854 675 l 451 675 q 389 732 389 675 q 406 768 389 755 q 451 781 424 781 l 779 781 l 779 830 m 779 928 l 451 928 q 305 869 368 928 q 242 732 242 810 q 271 624 242 670 q 349 553 300 578 q 242 398 242 515 q 303 251 242 306 q 451 195 364 195 l 828 195 l 828 244 l 451 244 q 337 284 384 244 q 291 398 291 325 q 326 486 291 448 q 430 530 361 524 q 451 529 437 529 l 854 529 l 854 578 l 451 578 q 337 618 384 578 q 291 732 291 659 q 339 835 291 791 q 451 879 388 879 l 779 879 l 779 928 m 779 1025 l 451 1025 q 299 986 370 1025 q 186 878 229 946 q 144 732 144 810 q 212 560 144 637 q 144 398 144 486 q 187 244 144 313 q 299 136 229 174 q 451 98 370 98 l 828 98 l 828 146 l 451 146 q 269 217 345 146 q 193 398 193 288 q 213 485 193 437 q 269 558 233 533 q 193 732 193 629 q 271 904 193 831 q 451 977 348 977 l 779 977 l 779 1025 m 779 1123 l 451 1123 q 251 1070 344 1123 q 102 927 157 1017 q 47 732 47 836 q 103 557 47 632 q 47 398 47 479 q 79 232 47 307 q 167 106 112 156 q 296 28 222 56 q 451 0 369 0 l 828 0 l 828 49 l 451 49 q 315 76 380 49 q 201 149 250 102 q 124 260 153 195 q 96 398 96 325 q 111 476 96 431 q 156 557 126 522 q 96 732 96 638 q 144 902 96 823 q 275 1028 193 981 q 451 1074 357 1074 l 779 1074 l 779 1123 m 1392 627 l 1392 675 l 1244 675 l 1244 627 l 1392 627 "},"'":{"ha":358,"x_min":57,"x_max":301,"o":"m 252 683 l 301 683 l 301 1123 l 252 1123 l 252 683 m 155 683 l 203 683 l 203 1123 l 155 1123 l 155 683 m 57 683 l 106 683 l 106 1123 l 57 1123 l 57 683 "},"(":{"ha":570,"x_min":52,"x_max":525,"o":"m 345 336 q 381 231 345 266 q 473 195 418 195 l 525 195 l 525 244 l 475 244 q 415 264 437 244 q 393 336 393 283 l 393 739 q 415 811 393 791 q 475 831 437 831 l 525 831 l 525 880 l 473 880 q 381 844 418 880 q 345 739 345 809 l 345 336 m 247 336 q 313 162 247 227 q 471 98 378 98 l 525 98 l 525 146 l 469 146 q 344 195 392 146 q 296 336 296 243 l 296 739 q 344 880 296 831 q 469 928 392 928 l 525 928 l 525 977 l 471 977 q 313 913 378 977 q 247 739 247 848 l 247 336 m 149 336 q 195 157 149 235 q 314 40 241 79 q 472 0 387 0 l 525 0 l 525 49 l 471 49 q 368 68 417 49 q 281 124 319 88 q 221 215 243 159 q 198 336 198 270 l 198 739 q 221 860 198 805 q 281 951 243 916 q 368 1006 319 987 q 471 1026 417 1026 l 525 1026 l 525 1075 l 472 1075 q 314 1035 387 1075 q 195 918 241 996 q 149 739 149 840 l 149 336 m 52 336 q 86 157 52 239 q 180 19 121 74 q 313 -67 238 -36 q 471 -98 389 -98 l 525 -98 l 525 -49 l 470 -49 q 331 -22 398 -49 q 213 54 264 5 q 131 176 162 102 q 100 336 100 250 l 100 739 q 131 899 100 825 q 213 1021 162 972 q 331 1097 264 1069 q 470 1124 398 1124 l 525 1124 l 525 1173 l 471 1173 q 313 1142 389 1173 q 180 1056 238 1111 q 86 918 121 1001 q 52 739 52 836 l 52 336 "},")":{"ha":568,"x_min":45,"x_max":519,"o":"m 519 739 q 484 918 519 836 q 391 1056 449 1001 q 257 1142 332 1111 q 100 1173 182 1173 l 45 1173 l 45 1124 l 100 1124 q 239 1097 172 1124 q 357 1021 306 1069 q 439 899 408 972 q 470 739 470 825 l 470 336 q 439 176 470 250 q 357 54 408 102 q 239 -22 306 5 q 100 -49 172 -49 l 45 -49 l 45 -98 l 100 -98 q 257 -67 182 -98 q 391 19 332 -36 q 484 157 449 74 q 519 336 519 239 l 519 739 m 421 739 q 375 918 421 840 q 256 1035 329 996 q 98 1075 183 1075 l 45 1075 l 45 1026 l 100 1026 q 202 1006 153 1026 q 289 951 251 987 q 350 860 327 916 q 372 739 372 805 l 372 336 q 350 215 372 270 q 289 124 327 159 q 202 68 251 88 q 100 49 153 49 l 45 49 l 45 0 l 98 0 q 256 40 183 0 q 375 157 329 79 q 421 336 421 235 l 421 739 m 323 739 q 258 913 323 848 q 100 977 192 977 l 45 977 l 45 928 l 102 928 q 227 880 178 928 q 275 739 275 831 l 275 336 q 227 195 275 243 q 102 146 178 146 l 45 146 l 45 98 l 100 98 q 258 162 192 98 q 323 336 323 227 l 323 739 m 226 739 q 189 844 226 809 q 98 880 152 880 l 45 880 l 45 831 l 96 831 q 155 811 133 831 q 177 739 177 791 l 177 336 q 155 264 177 283 q 96 244 133 244 l 45 244 l 45 195 l 98 195 q 189 231 152 195 q 226 336 226 266 l 226 739 "},"*":{"ha":923,"x_min":41,"x_max":882,"o":"m 389 688 l 389 977 l 340 977 l 340 772 l 163 875 l 139 833 l 389 688 m 535 688 l 785 833 l 760 875 l 584 772 l 584 977 l 535 977 l 535 688 m 608 562 l 858 417 l 882 459 l 705 562 l 882 664 l 858 706 l 608 562 m 535 435 l 535 146 l 584 146 l 584 350 l 760 248 l 785 290 l 535 435 m 389 435 l 139 290 l 163 248 l 340 350 l 340 146 l 389 146 l 389 435 m 315 562 l 66 706 l 41 664 l 218 562 l 41 459 l 66 417 l 315 562 m 90 375 l 114 332 l 437 519 l 437 146 l 486 146 l 486 518 l 809 332 l 833 374 l 509 561 l 833 748 l 809 790 l 486 604 l 486 977 l 437 977 l 437 603 l 114 790 l 90 747 l 412 561 l 90 375 "},"+":{"ha":835,"x_min":52,"x_max":784,"o":"m 52 635 l 254 635 l 254 587 l 52 587 l 52 538 l 254 538 l 254 489 l 52 489 l 52 440 l 254 440 l 254 245 l 302 245 l 302 880 l 254 880 l 254 684 l 52 684 l 52 635 m 547 880 l 547 245 l 595 245 l 595 440 l 784 440 l 784 489 l 595 489 l 595 538 l 784 538 l 784 587 l 595 587 l 595 635 l 784 635 l 784 684 l 595 684 l 595 880 l 547 880 m 449 880 l 449 245 l 498 245 l 498 880 l 449 880 m 351 880 l 351 245 l 400 245 l 400 880 l 351 880 "},",":{"ha":351,"x_min":54,"x_max":298,"o":"m 54 50 l 102 50 l 102 245 l 54 245 l 54 50 m 54 -97 q 108 -91 84 -97 q 147 -77 132 -85 q 173 -54 162 -68 q 189 -29 183 -40 q 197 0 194 -18 q 200 26 199 17 q 200 50 200 35 l 200 245 l 151 245 l 151 50 q 151 20 151 30 q 145 -5 150 10 q 130 -28 140 -21 q 101 -42 121 -36 q 54 -48 82 -48 l 54 -97 m 54 -195 q 126 -189 93 -195 q 182 -176 159 -184 q 225 -153 206 -168 q 255 -125 243 -138 q 276 -92 267 -113 q 288 -58 284 -72 q 295 -20 292 -43 q 297 15 297 3 q 298 50 298 28 l 298 245 l 249 245 l 249 50 q 249 17 249 28 q 247 -14 248 5 q 241 -45 245 -34 q 231 -72 238 -56 q 215 -97 224 -87 q 191 -117 205 -106 q 157 -133 176 -127 q 112 -142 138 -138 q 54 -146 85 -146 l 54 -195 "},"-":{"ha":658,"x_min":61,"x_max":598,"o":"m 61 635 l 598 635 l 598 684 l 61 684 l 61 635 m 61 537 l 598 537 l 598 586 l 61 586 l 61 537 m 61 439 l 598 439 l 598 488 l 61 488 l 61 439 "},".":{"ha":355,"x_min":55,"x_max":299,"o":"m 55 195 l 299 195 l 299 244 l 55 244 l 55 195 m 55 98 l 299 98 l 299 146 l 55 146 l 55 98 m 55 0 l 299 0 l 299 49 l 55 49 l 55 0 "},"/":{"ha":622,"x_min":26,"x_max":593,"o":"m 543 1122 l 229 -132 l 279 -132 l 593 1122 l 543 1122 m 441 1122 l 127 -132 l 178 -132 l 492 1122 l 441 1122 m 340 1122 l 26 -132 l 77 -132 l 391 1122 l 340 1122 "},":":{"ha":365,"x_min":61,"x_max":305,"o":"m 61 391 l 305 391 l 305 439 l 61 439 l 61 391 m 61 293 l 305 293 l 305 342 l 61 342 l 61 293 m 61 195 l 305 195 l 305 244 l 61 244 l 61 195 m 61 781 l 305 781 l 305 830 l 61 830 l 61 781 m 61 684 l 305 684 l 305 732 l 61 732 l 61 684 m 61 586 l 305 586 l 305 635 l 61 635 l 61 586 "},";":{"ha":363,"x_min":61,"x_max":305,"o":"m 61 244 l 110 244 l 110 439 l 61 439 l 61 244 m 61 98 q 115 103 92 98 q 154 118 139 109 q 180 140 170 126 q 196 166 191 155 q 204 194 201 177 q 207 220 207 212 q 208 244 208 229 l 208 439 l 159 439 l 159 244 q 158 215 159 224 q 152 189 157 205 q 138 166 147 174 q 109 153 128 159 q 61 146 90 146 l 61 98 m 61 0 q 133 5 100 0 q 190 19 166 11 q 232 42 214 27 q 263 69 251 56 q 283 102 275 82 q 296 137 292 123 q 302 174 300 151 q 305 210 304 197 q 305 244 305 222 l 305 439 l 256 439 l 256 244 q 256 211 256 222 q 254 180 256 200 q 249 150 252 161 q 239 123 245 139 q 222 98 232 107 q 198 78 213 89 q 164 62 183 67 q 119 53 145 56 q 61 49 93 49 l 61 0 m 61 781 l 305 781 l 305 830 l 61 830 l 61 781 m 61 684 l 305 684 l 305 732 l 61 732 l 61 684 m 61 586 l 305 586 l 305 635 l 61 635 l 61 586 "},"<":{"ha":931,"x_min":49,"x_max":879,"o":"m 879 416 l 562 541 l 494 515 l 879 363 l 879 416 m 879 311 l 427 490 l 359 464 l 879 258 l 879 311 m 879 205 l 293 437 l 231 410 l 879 153 l 879 205 m 879 968 l 49 640 l 49 587 l 879 916 l 879 968 m 879 1074 l 49 745 l 49 692 l 879 1021 l 879 1074 m 879 863 l 49 534 l 49 482 l 879 810 l 879 863 m 879 758 l 49 430 l 49 377 l 879 49 l 879 101 l 115 404 l 879 706 l 879 758 "},"=":{"ha":658,"x_min":61,"x_max":598,"o":"m 61 391 l 598 391 l 598 440 l 61 440 l 61 391 m 61 294 l 598 294 l 598 342 l 61 342 l 61 294 m 61 196 l 598 196 l 598 245 l 61 245 l 61 196 m 61 782 l 598 782 l 598 831 l 61 831 l 61 782 m 61 684 l 598 684 l 598 733 l 61 733 l 61 684 m 61 587 l 598 587 l 598 635 l 61 635 l 61 587 "},">":{"ha":931,"x_min":54,"x_max":884,"o":"m 54 364 l 884 692 l 884 745 l 54 1074 l 54 1021 l 819 719 l 54 416 l 54 364 m 54 259 l 884 588 l 884 640 l 54 312 l 54 259 m 54 49 l 884 378 l 884 430 l 54 102 l 54 49 m 54 154 l 884 483 l 884 535 l 54 206 l 54 154 m 54 917 l 640 685 l 703 713 l 54 969 l 54 917 m 54 811 l 507 633 l 574 659 l 54 864 l 54 811 m 54 707 l 371 581 l 439 607 l 54 759 l 54 707 "},"?":{"ha":964,"x_min":28,"x_max":924,"o":"m 448 1123 q 613 1098 535 1123 q 749 1027 692 1072 q 841 915 807 981 q 875 770 875 848 q 845 627 875 693 q 767 516 816 560 q 657 448 719 473 q 530 424 595 424 l 427 424 l 427 378 q 460 379 441 379 q 502 378 480 379 q 532 378 524 378 q 680 406 610 378 q 805 484 751 434 q 891 608 859 534 q 924 770 924 683 q 886 934 924 859 q 784 1062 848 1010 q 632 1143 720 1114 q 448 1172 545 1172 q 211 1132 321 1172 q 28 1021 102 1093 l 67 992 q 234 1089 134 1055 q 448 1123 333 1123 m 448 1025 q 683 956 588 1025 q 777 770 777 886 q 740 633 777 692 q 644 547 703 575 q 515 519 585 519 q 427 517 474 519 l 427 468 q 516 473 473 473 q 672 511 601 473 q 784 617 743 549 q 826 770 826 686 q 775 931 826 861 q 638 1038 724 1001 q 448 1074 552 1074 q 254 1044 343 1074 q 104 960 164 1015 l 142 930 q 276 1001 196 976 q 448 1025 355 1025 m 448 928 q 614 886 548 928 q 680 770 680 845 q 629 653 680 694 q 505 612 578 612 q 427 614 466 612 l 427 563 q 505 566 475 566 q 664 621 599 566 q 728 770 728 675 q 648 921 728 866 q 448 977 568 977 q 180 899 275 977 l 219 869 q 448 928 300 928 m 448 830 q 582 770 582 830 q 557 720 582 736 q 492 705 532 705 q 427 709 450 705 l 427 660 q 492 659 448 659 q 591 686 552 659 q 631 770 631 713 q 579 852 631 825 q 448 879 528 879 q 256 838 322 879 l 296 808 q 448 830 340 830 m 421 50 l 123 50 l 123 1 l 421 1 l 421 50 m 421 147 l 123 147 l 123 98 l 421 98 l 421 147 m 421 245 l 123 245 l 123 196 l 421 196 l 421 245 m 199 293 l 199 705 l 151 705 l 151 293 l 199 293 m 297 293 l 297 705 l 248 705 l 248 293 l 297 293 m 395 293 l 395 705 l 346 705 l 346 293 l 395 293 "},"@":{"ha":1495,"x_min":41,"x_max":1452,"o":"m 905 154 q 696 146 838 146 q 541 180 616 146 q 412 268 466 213 q 326 399 358 323 q 294 556 294 475 q 355 768 294 671 q 519 921 416 865 q 744 977 623 977 q 978 923 871 977 q 1146 778 1084 869 q 1208 576 1208 686 l 1208 429 q 1193 391 1208 405 q 1154 376 1177 376 q 1113 387 1129 376 q 1096 416 1096 397 l 1096 580 q 1049 739 1096 670 q 923 843 1003 807 q 741 879 842 879 q 497 783 595 879 q 399 546 399 687 q 447 380 399 452 q 571 271 495 308 q 738 235 648 235 q 824 237 779 235 l 824 281 l 739 279 q 530 354 613 279 q 448 546 448 428 q 470 655 448 603 q 531 746 492 707 q 624 807 569 785 q 741 830 679 830 q 961 763 876 830 q 1047 580 1047 696 l 1047 416 q 1078 351 1047 374 q 1154 328 1108 328 q 1227 354 1198 328 q 1257 429 1257 381 l 1257 576 q 1215 751 1257 668 q 1105 894 1174 834 q 942 990 1036 954 q 744 1025 847 1025 q 550 988 642 1025 q 390 889 457 951 q 284 739 323 826 q 245 556 245 652 q 280 377 245 462 q 377 231 316 292 q 521 134 437 170 q 696 98 604 98 q 909 106 810 98 l 905 154 m 916 58 q 696 50 812 50 q 447 118 562 50 q 263 304 331 187 q 196 556 196 420 q 240 758 196 662 q 357 923 283 854 q 532 1033 431 992 q 744 1074 633 1074 q 963 1035 859 1074 q 1142 929 1067 996 q 1261 770 1217 862 q 1305 576 1305 677 l 1305 429 q 1262 319 1305 359 q 1154 279 1219 279 q 1043 315 1087 279 q 998 416 998 352 l 998 580 q 927 728 998 675 q 741 781 857 781 q 566 712 636 781 q 496 546 496 643 q 569 384 496 441 q 746 326 641 326 q 824 327 784 326 l 824 371 l 750 369 q 602 416 659 369 q 545 546 545 463 q 603 679 545 625 q 741 732 661 732 q 892 692 835 732 q 949 580 949 652 l 949 422 q 1008 282 949 335 q 1154 230 1067 230 q 1297 284 1239 230 q 1354 429 1354 339 l 1354 576 q 1272 850 1354 724 q 1048 1050 1189 977 q 744 1123 907 1123 q 512 1078 623 1123 q 321 957 401 1033 q 194 776 241 881 q 147 556 147 671 q 191 339 147 442 q 308 162 234 236 q 483 44 381 88 q 696 1 585 1 q 920 10 827 1 l 916 58 m 928 -38 q 692 -48 801 -48 q 462 1 573 -48 q 269 131 351 50 q 139 322 188 212 q 90 549 90 432 q 143 793 90 677 q 283 992 195 909 q 491 1123 372 1074 q 740 1172 610 1172 q 1000 1124 877 1172 q 1212 995 1124 1076 q 1352 805 1300 915 q 1403 576 1403 696 l 1403 429 q 1334 246 1403 314 q 1157 178 1265 178 q 975 242 1047 178 q 903 416 903 307 l 903 580 q 858 655 903 627 q 743 684 814 684 q 637 642 681 684 q 594 546 594 601 q 637 450 594 486 q 742 414 681 414 q 824 415 777 414 l 824 458 l 732 457 q 669 481 696 457 q 643 546 643 506 q 674 607 643 579 q 743 635 705 635 q 824 621 794 635 q 854 580 854 606 l 854 416 q 940 208 854 286 q 1157 130 1027 130 q 1368 212 1284 130 q 1452 429 1452 294 l 1452 576 q 1426 745 1452 663 q 1353 899 1399 828 q 1240 1029 1306 969 q 1095 1131 1173 1089 q 925 1197 1017 1173 q 740 1221 834 1221 q 466 1166 596 1221 q 243 1021 336 1112 q 96 807 151 930 q 41 549 41 684 q 92 296 41 416 q 230 90 143 176 q 437 -46 317 4 q 692 -97 558 -97 q 933 -87 829 -97 l 928 -38 "},"A":{"ha":1301,"x_min":22,"x_max":1278,"o":"m 548 330 l 754 330 l 734 378 l 568 378 l 548 330 m 510 232 l 793 232 l 772 281 l 529 281 l 510 232 m 472 134 l 831 134 l 811 183 l 491 183 l 472 134 m 75 0 l 493 1057 l 911 0 l 963 0 l 519 1123 l 467 1123 l 22 0 l 75 0 m 499 941 l 127 0 l 180 0 l 527 879 l 499 941 m 553 812 l 233 0 l 286 0 l 579 745 l 553 812 m 605 678 l 338 0 l 390 0 l 631 610 l 605 678 m 1278 0 l 834 1123 l 782 1123 l 1225 0 l 1278 0 m 729 1123 l 677 1123 l 1121 0 l 1173 0 l 729 1123 m 624 1123 l 572 1123 l 1015 0 l 1068 0 l 624 1123 "},"B":{"ha":1198,"x_min":63,"x_max":1151,"o":"m 809 391 q 747 342 809 342 l 432 342 l 432 293 l 747 293 q 827 316 797 293 q 858 391 858 339 q 747 484 858 484 l 432 484 l 432 435 l 747 435 q 793 427 777 435 q 809 391 809 418 m 405 0 l 405 781 l 747 781 q 791 768 774 781 q 809 732 809 755 q 747 675 809 675 l 432 675 l 432 627 l 747 627 q 827 651 797 627 q 858 732 858 676 q 825 802 858 774 q 747 830 793 830 l 356 830 l 356 0 l 405 0 m 432 578 l 432 529 l 747 529 q 768 530 761 529 q 871 486 836 524 q 907 398 907 448 q 860 284 907 325 q 747 244 814 244 l 432 244 l 432 195 l 747 195 q 895 251 833 195 q 956 398 956 306 q 849 553 956 515 q 927 624 898 578 q 956 732 956 670 q 893 869 956 810 q 747 928 830 928 l 258 928 l 258 0 l 307 0 l 307 879 l 747 879 q 858 835 810 879 q 907 732 907 791 q 860 618 907 659 q 747 578 814 578 l 432 578 m 1053 732 q 1011 878 1053 810 q 898 986 969 946 q 747 1025 827 1025 l 161 1025 l 161 0 l 210 0 l 210 977 l 747 977 q 927 904 850 977 q 1004 732 1004 831 q 929 558 1004 629 q 984 485 964 533 q 1004 398 1004 437 q 928 217 1004 288 q 747 146 852 146 l 432 146 l 432 98 l 747 98 q 898 136 828 98 q 1011 244 968 174 q 1053 398 1053 313 q 986 560 1053 486 q 1053 732 1053 637 m 1042 557 q 1087 476 1072 522 q 1102 398 1102 431 q 1073 260 1102 325 q 996 149 1044 195 q 883 76 948 102 q 747 49 818 49 l 432 49 l 432 0 l 747 0 q 902 28 829 0 q 1030 106 975 56 q 1118 232 1086 156 q 1151 398 1151 307 q 1095 557 1151 479 q 1151 732 1151 632 q 1096 927 1151 836 q 947 1070 1040 1017 q 747 1123 854 1123 l 63 1123 l 63 0 l 112 0 l 112 1074 l 747 1074 q 923 1028 841 1074 q 1054 902 1005 981 q 1102 732 1102 823 q 1042 557 1102 638 "},"C":{"ha":1183,"x_min":38,"x_max":1153,"o":"m 911 739 q 798 841 867 804 q 648 879 729 879 q 525 854 584 879 q 424 786 467 829 q 356 685 381 743 q 331 562 331 626 q 356 438 331 497 q 424 337 381 380 q 525 269 467 294 q 648 244 584 244 q 798 281 728 244 q 910 382 867 319 l 871 411 q 775 325 834 357 q 648 293 717 293 q 458 372 537 293 q 380 562 380 450 q 458 751 380 673 q 648 830 537 830 q 775 799 717 830 q 871 713 834 767 l 911 739 m 991 795 q 844 928 935 879 q 648 977 753 977 q 440 921 536 977 q 289 770 345 865 q 233 562 233 674 q 289 353 233 449 q 440 202 345 258 q 648 146 536 146 q 844 195 753 146 q 991 328 935 244 l 951 356 q 821 239 901 282 q 648 195 741 195 q 465 244 549 195 q 331 378 380 294 q 282 562 282 462 q 331 745 282 661 q 465 879 380 829 q 648 928 549 928 q 821 885 741 928 q 951 768 901 842 l 991 795 m 1073 849 q 890 1014 1002 953 q 648 1074 779 1074 q 391 1005 509 1074 q 204 819 273 937 q 136 562 136 701 q 204 304 136 422 q 391 118 273 186 q 648 49 509 49 q 889 109 778 49 q 1072 272 1001 169 l 1032 301 q 867 153 968 208 q 648 98 766 98 q 468 134 554 98 q 320 233 382 171 q 221 381 258 295 q 184 562 184 467 q 221 742 184 656 q 320 890 258 828 q 468 989 382 952 q 648 1025 554 1025 q 867 971 766 1025 q 1032 823 968 916 l 1073 849 m 1153 905 q 936 1100 1069 1028 q 648 1172 803 1172 q 411 1123 524 1172 q 217 993 298 1075 q 86 799 135 911 q 38 562 38 686 q 86 325 38 437 q 217 130 135 212 q 411 0 298 48 q 648 -49 524 -49 q 935 23 802 -49 q 1152 216 1068 94 l 1113 246 q 913 66 1036 133 q 648 0 790 0 q 430 44 534 0 q 251 164 326 89 q 131 343 176 239 q 87 562 87 448 q 131 780 87 675 q 251 959 176 884 q 430 1079 326 1034 q 648 1123 534 1123 q 912 1057 790 1123 q 1112 878 1035 991 l 1153 905 "},"D":{"ha":1231,"x_min":63,"x_max":1187,"o":"m 356 293 l 689 293 q 828 372 770 293 q 886 562 886 450 q 828 751 886 672 q 689 830 770 830 q 356 830 356 830 l 356 293 m 405 342 l 405 781 l 689 781 q 792 717 749 781 q 836 562 836 653 q 792 406 836 471 q 689 342 749 342 l 405 342 m 307 244 l 307 879 l 689 879 q 812 837 755 879 q 902 721 869 794 q 936 562 936 648 q 863 337 936 431 q 689 244 790 244 l 307 244 m 258 195 l 689 195 q 837 244 768 195 q 946 378 905 293 q 986 562 986 463 q 946 746 986 661 q 837 879 905 830 q 689 928 768 928 l 258 928 l 258 195 m 210 146 l 210 977 l 689 977 q 861 921 781 977 q 989 769 941 865 q 1036 562 1036 673 q 989 353 1036 449 q 862 202 941 258 q 689 146 782 146 l 210 146 m 161 98 l 689 98 q 886 160 795 98 q 1032 329 978 222 q 1086 562 1086 436 q 1032 794 1086 687 q 886 963 978 901 q 689 1025 795 1025 l 161 1025 l 161 98 m 112 49 l 112 1074 l 689 1074 q 861 1034 778 1074 q 1004 924 943 993 q 1100 760 1064 855 q 1137 562 1137 665 q 1100 362 1137 458 q 1004 199 1064 267 q 861 90 943 130 q 689 49 778 49 l 112 49 m 689 0 q 880 44 788 0 q 1039 164 972 89 q 1146 343 1106 239 q 1187 562 1187 448 q 1119 843 1187 713 q 936 1048 1050 972 q 689 1123 821 1123 l 63 1123 l 63 0 l 689 0 "},"E":{"ha":981,"x_min":63,"x_max":924,"o":"m 307 0 l 307 1123 l 258 1123 l 258 0 l 307 0 m 210 0 l 210 1123 l 161 1123 l 161 0 l 210 0 m 112 0 l 112 1123 l 63 1123 l 63 0 l 112 0 m 405 244 l 405 439 l 671 439 l 671 488 l 405 488 l 405 537 l 671 537 l 671 586 l 405 586 l 405 635 l 671 635 l 671 684 l 405 684 l 405 879 l 924 879 l 924 928 l 405 928 l 405 977 l 924 977 l 924 1025 l 405 1025 l 405 1074 l 924 1074 l 924 1123 l 356 1123 l 356 0 l 924 0 l 924 49 l 405 49 l 405 98 l 924 98 l 924 146 l 405 146 l 405 195 l 924 195 l 924 244 l 405 244 "},"F":{"ha":949,"x_min":63,"x_max":897,"o":"m 405 0 l 405 391 l 873 391 l 873 439 l 405 439 l 405 488 l 873 488 l 873 537 l 405 537 l 405 586 l 873 586 l 873 635 l 405 635 l 405 879 l 897 879 l 897 928 l 405 928 l 405 977 l 897 977 l 897 1025 l 405 1025 l 405 1074 l 897 1074 l 897 1123 l 356 1123 l 356 0 l 405 0 m 307 0 l 307 1123 l 258 1123 l 258 0 l 307 0 m 210 0 l 210 1123 l 161 1123 l 161 0 l 210 0 m 112 0 l 112 1123 l 63 1123 l 63 0 l 112 0 "},"G":{"ha":1261,"x_min":38,"x_max":1204,"o":"m 960 587 l 960 0 l 1009 0 l 1009 587 l 960 587 m 1156 587 l 1156 0 l 1204 0 l 1204 587 l 1156 587 m 1058 587 l 1058 0 l 1107 0 l 1107 587 l 1058 587 m 911 587 l 863 587 l 863 340 q 653 293 766 293 q 550 309 598 293 q 464 356 503 325 q 402 440 425 388 q 380 562 380 493 q 458 751 380 673 q 648 830 537 830 q 775 799 717 830 q 871 713 834 767 l 911 739 q 798 841 867 804 q 648 879 729 879 q 525 854 584 879 q 424 786 467 829 q 356 685 381 743 q 331 562 331 626 q 358 421 331 484 q 430 321 385 359 q 533 264 476 283 q 654 244 590 244 q 863 287 766 244 l 863 240 q 648 195 763 195 q 537 210 591 195 q 437 256 484 225 q 356 330 391 286 q 302 433 321 373 q 282 562 282 492 q 331 745 282 661 q 465 879 380 829 q 648 928 549 928 q 821 885 741 928 q 951 768 901 842 l 991 795 q 844 928 935 879 q 648 977 753 977 q 440 921 536 977 q 289 770 345 865 q 233 562 233 674 q 268 385 233 465 q 361 254 302 305 q 495 174 420 202 q 653 146 570 146 q 863 184 762 146 l 863 136 q 648 98 761 98 q 507 118 576 98 q 380 178 438 138 q 278 273 321 218 q 209 402 234 328 q 184 562 184 477 q 221 742 184 656 q 320 890 258 828 q 468 989 382 952 q 648 1025 554 1025 q 867 971 766 1025 q 1032 823 968 916 l 1073 849 q 890 1014 1002 953 q 648 1074 779 1074 q 391 1005 509 1074 q 204 819 273 937 q 136 562 136 701 q 163 388 136 469 q 239 244 191 306 q 352 139 288 183 q 493 72 417 94 q 650 49 570 49 q 863 83 762 49 l 863 36 q 642 0 757 0 q 432 41 533 0 q 255 154 331 82 q 133 332 178 226 q 87 562 87 439 q 131 780 87 675 q 251 959 176 884 q 430 1079 326 1034 q 648 1123 534 1123 q 912 1057 790 1123 q 1112 878 1035 991 l 1153 905 q 936 1100 1069 1028 q 648 1172 803 1172 q 411 1123 524 1172 q 217 993 298 1075 q 86 799 135 911 q 38 562 38 686 q 88 312 38 427 q 221 118 138 196 q 414 -5 304 39 q 644 -49 524 -49 q 911 0 783 -49 l 911 587 "},"H":{"ha":1252,"x_min":63,"x_max":1186,"o":"m 1137 1123 l 1137 0 l 1186 0 l 1186 1123 l 1137 1123 m 63 1123 l 63 0 l 112 0 l 112 1123 l 63 1123 m 1040 1123 l 1040 0 l 1088 0 l 1088 1123 l 1040 1123 m 942 1123 l 942 0 l 991 0 l 991 1123 l 942 1123 m 844 1123 l 844 684 l 405 684 l 405 1123 l 356 1123 l 356 0 l 405 0 l 405 440 l 844 440 l 844 0 l 893 0 l 893 1123 l 844 1123 m 258 1123 l 258 0 l 307 0 l 307 1123 l 258 1123 m 161 1123 l 161 0 l 210 0 l 210 1123 l 161 1123 m 844 489 l 405 489 l 405 538 l 844 538 l 844 489 m 844 587 l 405 587 l 405 635 l 844 635 l 844 587 "},"I":{"ha":471,"x_min":63,"x_max":405,"o":"m 356 1123 l 356 0 l 405 0 l 405 1123 l 356 1123 m 258 1123 l 258 0 l 307 0 l 307 1123 l 258 1123 m 161 1123 l 161 0 l 210 0 l 210 1123 l 161 1123 m 63 1123 l 63 0 l 112 0 l 112 1123 l 63 1123 "},"J":{"ha":604,"x_min":32,"x_max":542,"o":"m 115 244 q 210 286 172 244 q 249 392 249 328 l 249 1123 l 200 1123 l 200 392 q 176 320 200 347 q 115 293 151 293 l 32 293 l 32 244 l 115 244 m 115 146 q 279 218 212 146 q 347 392 347 290 l 347 1123 l 298 1123 l 298 392 q 244 253 298 311 q 115 195 191 195 l 32 195 l 32 146 l 115 146 m 115 49 q 281 95 205 49 q 400 220 357 141 q 444 392 444 299 l 444 1123 l 395 1123 l 395 392 q 314 184 395 270 q 115 98 232 98 l 32 98 l 32 49 l 115 49 m 115 -49 q 281 -14 202 -49 q 417 80 360 21 q 508 221 475 140 q 542 392 542 302 l 542 1123 l 493 1123 l 493 392 q 463 240 493 313 q 383 115 433 168 q 262 31 332 62 q 115 0 193 0 l 32 0 l 32 -49 l 115 -49 "},"K":{"ha":1133,"x_min":63,"x_max":1103,"o":"m 405 0 l 405 1123 l 356 1123 l 356 0 l 405 0 m 307 0 l 307 1123 l 258 1123 l 258 0 l 307 0 m 210 0 l 210 1123 l 161 1123 l 161 0 l 210 0 m 112 0 l 112 1123 l 63 1123 l 63 0 l 112 0 m 762 562 l 1048 0 l 1103 0 l 816 562 l 1103 1123 l 1048 1123 l 762 562 m 652 562 l 939 0 l 994 0 l 707 562 l 994 1123 l 939 1123 l 652 562 m 543 562 l 830 0 l 884 0 l 597 562 l 884 1123 l 830 1123 l 543 562 m 433 562 l 721 0 l 775 0 l 488 562 l 775 1123 l 721 1123 l 433 562 "},"L":{"ha":840,"x_min":63,"x_max":795,"o":"m 63 1123 l 63 0 l 112 0 l 112 1123 l 63 1123 m 356 1123 l 356 0 l 795 0 l 795 49 l 405 49 l 405 98 l 795 98 l 795 146 l 405 146 l 405 195 l 795 195 l 795 244 l 405 244 l 405 1123 l 356 1123 m 258 1123 l 258 0 l 307 0 l 307 1123 l 258 1123 m 161 1123 l 161 0 l 210 0 l 210 1123 l 161 1123 "},"M":{"ha":1279,"x_min":63,"x_max":1213,"o":"m 871 410 l 871 0 l 920 0 l 920 502 l 871 410 m 969 597 l 969 0 l 1018 0 l 1018 689 l 969 597 m 1067 781 l 1067 0 l 1116 0 l 1116 874 l 1067 781 m 739 433 l 1103 1123 l 1048 1123 l 711 484 l 739 433 m 683 539 l 992 1123 l 937 1123 l 654 591 l 683 539 m 356 496 l 356 0 l 405 0 l 405 404 l 356 496 m 258 682 l 258 0 l 307 0 l 307 590 l 258 682 m 161 868 l 161 0 l 210 0 l 210 775 l 161 868 m 555 293 l 118 1123 l 63 1123 l 63 0 l 112 0 l 112 1030 l 500 293 l 555 293 m 666 293 l 229 1123 l 174 1123 l 610 293 l 666 293 m 1164 1030 l 1164 0 l 1213 0 l 1213 1123 l 1158 1123 l 749 345 l 339 1123 l 284 1123 l 720 293 l 776 293 l 1164 1030 "},"N":{"ha":1219,"x_min":63,"x_max":1154,"o":"m 861 541 l 861 1123 l 812 1123 l 812 621 l 861 541 m 958 380 l 958 1123 l 909 1123 l 909 463 l 958 380 m 1056 218 l 1056 1123 l 1007 1123 l 1007 301 l 1056 218 m 356 583 l 356 0 l 405 0 l 405 502 l 356 583 m 258 743 l 258 0 l 307 0 l 307 661 l 258 743 m 161 905 l 161 0 l 210 0 l 210 822 l 161 905 m 178 1123 l 868 0 l 925 0 l 235 1123 l 178 1123 m 293 1123 l 982 0 l 1040 0 l 351 1123 l 293 1123 m 408 1123 l 1096 0 q 1154 0 1154 0 l 1154 1123 l 1105 1123 l 1105 79 l 465 1123 l 408 1123 m 112 1044 l 753 0 l 810 0 l 121 1123 q 63 1123 63 1123 l 63 0 l 112 0 l 112 1044 "},"O":{"ha":1297,"x_min":38,"x_max":1259,"o":"m 458 751 q 648 830 537 830 q 838 751 760 830 q 917 562 917 673 q 838 372 917 450 q 648 293 760 293 q 458 372 537 293 q 380 562 380 450 q 419 712 380 673 q 458 751 458 751 m 356 438 q 424 337 381 380 q 525 269 467 294 q 648 244 584 244 q 771 269 713 244 q 873 337 830 294 q 941 438 916 380 q 966 562 966 497 q 941 685 966 626 q 873 786 916 743 q 771 854 830 829 q 648 879 713 879 q 525 854 584 879 q 424 786 467 829 q 356 685 381 743 q 331 562 331 626 q 343 468 331 497 q 356 438 356 438 m 331 745 q 465 879 380 829 q 648 928 549 928 q 832 879 748 928 q 965 745 916 829 q 1015 562 1015 661 q 965 378 1015 462 q 832 244 916 294 q 648 195 748 195 q 465 244 549 195 q 331 378 380 294 q 282 562 282 462 q 307 703 282 661 q 331 745 331 745 m 289 353 q 440 202 345 258 q 648 146 536 146 q 857 202 761 146 q 1008 353 952 258 q 1063 562 1063 449 q 1008 770 1063 674 q 857 921 952 865 q 648 977 761 977 q 440 921 536 977 q 289 770 345 865 q 233 562 233 674 q 261 401 233 449 q 289 353 289 353 m 221 742 q 320 890 258 828 q 468 989 382 952 q 648 1025 554 1025 q 829 989 743 1025 q 977 890 915 952 q 1076 742 1039 828 q 1112 562 1112 656 q 1076 381 1112 467 q 977 233 1039 295 q 829 134 915 171 q 648 98 743 98 q 468 134 554 98 q 320 233 382 171 q 221 381 258 295 q 184 562 184 467 q 203 699 184 656 q 221 742 221 742 m 204 304 q 391 118 273 186 q 648 49 509 49 q 905 118 787 49 q 1092 304 1023 186 q 1161 562 1161 422 q 1092 819 1161 701 q 905 1005 1023 937 q 648 1074 787 1074 q 391 1005 509 1074 q 204 819 273 937 q 136 562 136 701 q 170 363 136 422 q 204 304 204 304 m 131 780 q 251 959 176 884 q 430 1079 326 1034 q 648 1123 534 1123 q 866 1079 762 1123 q 1046 959 970 1034 q 1165 780 1121 884 q 1210 562 1210 675 q 1165 343 1210 448 q 1046 164 1121 239 q 866 44 970 89 q 648 0 762 0 q 430 44 534 0 q 251 164 326 89 q 131 343 176 239 q 87 562 87 448 q 109 728 87 675 q 131 780 131 780 m 86 325 q 217 130 135 212 q 411 0 298 48 q 648 -49 524 -49 q 885 0 772 -49 q 1080 130 998 48 q 1210 325 1162 212 q 1259 562 1259 437 q 1210 799 1259 686 q 1080 993 1162 911 q 885 1123 998 1075 q 648 1172 772 1172 q 411 1123 524 1172 q 217 993 298 1075 q 86 799 135 911 q 38 562 38 686 q 62 381 38 437 q 86 325 86 325 "},"P":{"ha":1181,"x_min":63,"x_max":1137,"o":"m 443 532 l 443 483 l 726 483 q 879 546 816 483 q 942 712 942 608 q 877 862 942 796 q 726 928 812 928 l 258 928 l 258 0 l 307 0 l 307 879 l 726 879 q 842 828 791 879 q 893 712 893 777 q 845 579 893 626 q 726 532 796 532 l 443 532 m 443 434 l 443 385 l 726 385 q 881 427 810 385 q 996 544 953 469 q 1040 712 1040 620 q 997 866 1040 793 q 881 982 954 939 q 726 1025 808 1025 l 161 1025 l 161 0 l 210 0 l 210 977 l 726 977 q 911 897 831 977 q 991 712 991 817 q 954 567 991 631 q 857 468 917 503 q 726 434 797 434 l 443 434 m 443 336 l 443 288 l 726 288 q 884 317 809 288 q 1015 400 958 347 q 1104 535 1071 454 q 1137 712 1137 616 q 1081 915 1137 820 q 930 1066 1025 1010 q 726 1123 835 1123 l 63 1123 l 63 0 l 112 0 l 112 1074 l 726 1074 q 906 1024 822 1074 q 1039 891 989 975 q 1088 712 1088 807 q 1059 563 1088 633 q 981 443 1030 492 q 865 365 932 394 q 726 336 799 336 l 443 336 m 405 0 l 405 781 l 726 781 q 775 762 755 781 q 795 712 795 742 q 777 648 795 666 q 726 629 759 629 l 443 629 l 443 581 l 726 581 q 844 712 844 581 q 809 795 844 760 q 726 830 774 830 l 356 830 l 356 0 l 405 0 "},"Q":{"ha":1303,"x_min":38,"x_max":1259,"o":"m 711 332 l 648 433 l 607 407 l 661 319 l 711 332 m 880 -33 l 958 -158 l 999 -132 l 926 -13 l 880 -33 m 798 377 l 732 484 l 691 458 l 758 351 l 798 377 m 969 9 l 1040 -106 l 1081 -79 l 1010 35 l 969 9 m 865 454 l 815 536 l 774 508 l 836 410 l 865 454 m 1050 63 l 1122 -53 l 1164 -26 l 1088 96 l 1050 63 m 458 751 q 648 830 537 830 q 838 751 760 830 q 917 562 917 673 q 838 372 917 450 q 648 293 760 293 q 458 372 537 293 q 380 562 380 450 q 419 712 380 673 q 458 751 458 751 m 356 438 q 424 337 381 380 q 525 269 467 294 q 648 244 584 244 q 771 269 713 244 q 873 337 830 294 q 941 438 916 380 q 966 562 966 497 q 941 685 966 626 q 873 786 916 743 q 771 854 830 829 q 648 879 713 879 q 525 854 584 879 q 424 786 467 829 q 356 685 381 743 q 331 562 331 626 q 343 468 331 497 q 356 438 356 438 m 331 745 q 465 879 380 829 q 648 928 549 928 q 832 879 748 928 q 965 745 916 829 q 1015 562 1015 661 q 965 378 1015 462 q 832 244 916 294 q 648 195 748 195 q 465 244 549 195 q 331 378 380 294 q 282 562 282 462 q 307 703 282 661 q 331 745 331 745 m 289 353 q 440 202 345 258 q 648 146 536 146 q 857 202 761 146 q 1008 353 952 258 q 1063 562 1063 449 q 1008 770 1063 674 q 857 921 952 865 q 648 977 761 977 q 440 921 536 977 q 289 770 345 865 q 233 562 233 674 q 261 401 233 449 q 289 353 289 353 m 221 742 q 320 890 258 828 q 468 989 382 952 q 648 1025 554 1025 q 829 989 743 1025 q 977 890 915 952 q 1076 742 1039 828 q 1112 562 1112 656 q 1076 381 1112 467 q 977 233 1039 295 q 829 134 915 171 q 648 98 743 98 q 468 134 554 98 q 320 233 382 171 q 221 381 258 295 q 184 562 184 467 q 203 699 184 656 q 221 742 221 742 m 204 304 q 391 118 273 186 q 648 49 509 49 q 905 118 787 49 q 1092 304 1023 186 q 1161 562 1161 422 q 1092 819 1161 701 q 905 1005 1023 937 q 648 1074 787 1074 q 391 1005 509 1074 q 204 819 273 937 q 136 562 136 701 q 170 363 136 422 q 204 304 204 304 m 131 780 q 251 959 176 884 q 430 1079 326 1034 q 648 1123 534 1123 q 866 1079 762 1123 q 1046 959 970 1034 q 1165 780 1121 884 q 1210 562 1210 675 q 1165 343 1210 448 q 1046 164 1121 239 q 866 44 970 89 q 648 0 762 0 q 430 44 534 0 q 251 164 326 89 q 131 343 176 239 q 87 562 87 448 q 109 728 87 675 q 131 780 131 780 m 86 325 q 217 130 135 212 q 411 0 298 48 q 648 -49 524 -49 q 885 0 772 -49 q 1080 130 998 48 q 1210 325 1162 212 q 1259 562 1259 437 q 1210 799 1259 686 q 1080 993 1162 911 q 885 1123 998 1075 q 648 1172 772 1172 q 411 1123 524 1172 q 217 993 298 1075 q 86 799 135 911 q 38 562 38 686 q 62 381 38 437 q 86 325 86 325 "},"R":{"ha":1172,"x_min":63,"x_max":1131,"o":"m 432 559 l 432 510 l 726 510 q 874 569 813 510 q 935 726 935 628 q 872 866 935 805 q 726 928 809 928 l 258 928 l 258 0 l 307 0 l 307 879 l 726 879 q 838 832 789 879 q 886 726 886 785 q 840 602 886 646 q 726 559 793 559 l 432 559 m 432 461 l 432 412 l 726 412 q 942 502 852 412 q 1033 726 1033 592 q 991 873 1033 804 q 878 984 949 943 q 726 1025 807 1025 l 161 1025 l 161 0 l 210 0 l 210 977 l 726 977 q 906 901 829 977 q 984 726 984 825 q 908 535 984 610 q 726 461 832 461 l 432 461 m 432 363 l 432 315 l 612 315 l 711 0 l 763 0 l 664 315 l 708 315 l 812 0 l 863 0 l 758 316 q 802 321 795 319 l 912 0 l 964 0 l 850 332 q 892 347 865 336 l 1013 0 l 1064 0 l 938 370 q 1079 513 1027 422 q 1131 726 1131 605 q 1075 922 1131 830 q 926 1068 1020 1014 q 726 1123 833 1123 l 63 1123 l 63 0 l 112 0 l 112 1074 l 726 1074 q 903 1026 821 1074 q 1033 898 985 978 q 1082 726 1082 817 q 1033 541 1082 625 q 903 410 984 457 q 726 363 821 363 l 432 363 m 405 0 l 405 781 l 726 781 q 771 765 753 781 q 789 726 789 749 q 772 672 789 687 q 726 656 755 656 l 432 656 l 432 608 l 726 608 q 838 726 838 608 q 805 799 838 768 q 726 830 772 830 l 356 830 l 356 0 l 405 0 "},"S":{"ha":947,"x_min":26,"x_max":917,"o":"m 517 684 q 700 636 623 684 q 816 512 778 589 q 854 342 854 436 q 828 209 854 271 q 753 100 802 147 q 630 27 705 54 q 462 0 555 0 q 239 34 343 0 q 66 131 135 68 l 26 102 q 217 -9 102 31 q 462 -49 331 -49 q 617 -29 545 -49 q 740 27 688 -9 q 829 111 792 62 q 884 218 866 160 q 903 342 903 277 q 878 492 903 422 q 805 616 852 562 q 684 701 758 670 q 519 732 610 732 l 435 732 q 395 745 406 732 q 384 781 384 758 q 404 817 384 804 q 482 830 424 830 q 649 808 602 830 l 688 838 q 482 879 619 879 q 336 781 336 879 q 359 710 336 737 q 435 684 382 684 l 517 684 m 435 635 q 320 675 355 635 q 286 781 286 715 q 333 887 286 847 q 482 928 380 928 q 726 869 641 928 l 764 899 q 642 957 716 937 q 482 977 568 977 q 298 922 359 977 q 237 781 237 868 q 286 640 237 694 q 435 586 336 586 l 511 586 q 693 517 629 586 q 756 342 756 448 q 681 166 756 235 q 462 98 605 98 q 280 123 365 98 q 140 193 196 148 l 102 163 q 259 79 165 109 q 462 49 353 49 q 715 132 625 49 q 805 342 805 215 q 727 551 805 467 q 512 635 650 635 l 435 635 m 435 537 q 252 606 315 537 q 188 781 188 675 q 263 957 188 888 q 482 1025 339 1025 q 663 1000 579 1025 q 803 930 747 975 l 841 960 q 685 1044 779 1015 q 482 1074 591 1074 q 229 991 319 1074 q 139 781 139 908 q 217 571 139 654 q 435 488 296 488 l 509 488 q 623 448 588 488 q 659 342 659 408 q 611 236 659 276 q 462 195 564 195 q 218 254 302 195 l 179 224 q 301 166 227 186 q 462 146 376 146 q 646 201 585 146 q 707 342 707 255 q 658 482 707 427 q 509 537 608 537 l 435 537 m 435 439 q 247 486 326 439 q 129 609 168 532 q 90 781 90 686 q 116 914 90 852 q 191 1023 142 976 q 314 1096 239 1069 q 482 1123 389 1123 q 705 1089 601 1123 q 878 992 808 1055 l 917 1021 q 727 1132 841 1093 q 482 1172 613 1172 q 327 1152 399 1172 q 204 1096 256 1132 q 115 1012 152 1061 q 60 905 78 963 q 41 781 41 846 q 67 629 41 700 q 141 505 93 559 q 266 421 190 452 q 435 391 341 391 l 508 391 q 549 377 538 391 q 560 342 560 364 q 540 306 560 319 q 462 293 520 293 q 294 315 342 293 l 255 285 q 462 244 324 244 q 608 342 608 244 q 585 412 608 385 q 509 439 562 439 l 435 439 "},"T":{"ha":821,"x_min":41,"x_max":774,"o":"m 41 1074 l 774 1074 l 774 1123 l 41 1123 l 41 1074 m 41 977 l 774 977 l 774 1025 l 41 1025 l 41 977 m 41 879 l 237 879 l 237 0 l 286 0 l 286 879 l 334 879 l 334 0 l 383 0 l 383 879 l 432 879 l 432 0 l 481 0 l 481 879 l 530 879 l 530 0 l 578 0 l 578 879 l 774 879 l 774 928 l 41 928 l 41 879 "},"U":{"ha":1257,"x_min":56,"x_max":1196,"o":"m 854 494 q 787 352 854 411 q 626 293 720 293 q 465 352 532 293 q 398 494 398 411 l 398 1123 l 349 1123 l 349 494 q 431 317 349 391 q 626 244 512 244 q 821 317 740 244 q 903 494 903 391 l 903 1123 l 854 1123 l 854 494 m 951 494 q 908 344 951 413 q 789 235 864 275 q 626 195 714 195 q 463 235 538 195 q 344 344 388 275 q 300 494 300 413 l 300 1123 l 252 1123 l 252 494 q 281 359 252 423 q 361 248 311 295 q 481 174 412 201 q 626 146 550 146 q 771 174 702 146 q 890 248 840 201 q 970 359 941 295 q 1000 494 1000 423 l 1000 1123 l 951 1123 l 951 494 m 1049 494 q 992 295 1049 387 q 838 151 935 204 q 626 98 741 98 q 414 151 511 98 q 260 295 317 204 q 203 494 203 387 l 203 1123 l 154 1123 l 154 494 q 192 321 154 404 q 292 179 229 239 q 443 84 355 119 q 626 49 530 49 q 809 84 722 49 q 960 179 897 119 q 1060 321 1023 239 q 1098 494 1098 404 l 1098 1123 l 1049 1123 l 1049 494 m 1147 494 q 1105 302 1147 394 q 994 145 1064 211 q 828 39 924 79 q 626 0 731 0 q 424 39 521 0 q 258 145 328 79 q 146 302 188 211 q 105 494 105 394 l 105 1123 l 56 1123 l 56 494 q 133 222 56 347 q 341 24 210 97 q 626 -49 472 -49 q 911 24 780 -49 q 1119 222 1042 97 q 1196 494 1196 347 l 1196 1123 l 1147 1123 l 1147 494 "},"V":{"ha":1307,"x_min":25,"x_max":1281,"o":"m 25 1123 l 469 0 l 522 0 l 966 1123 l 913 1123 l 496 66 l 78 1123 l 25 1123 m 530 244 l 182 1123 l 130 1123 l 502 182 l 530 244 m 582 378 l 288 1123 l 235 1123 l 556 311 l 582 378 m 633 513 l 393 1123 l 340 1123 l 608 445 l 633 513 m 1228 1123 l 785 0 l 837 0 l 1281 1123 l 1228 1123 m 1124 1123 l 680 0 l 732 0 l 1176 1123 l 1124 1123 m 1018 1123 l 574 0 l 627 0 l 1071 1123 l 1018 1123 "},"W":{"ha":1613,"x_min":28,"x_max":1584,"o":"m 385 345 l 180 1123 l 130 1123 l 361 249 l 385 345 m 435 533 l 280 1123 l 231 1123 l 410 439 l 435 533 m 486 728 l 382 1123 l 331 1123 l 460 633 l 486 728 m 680 0 l 800 455 l 932 0 l 983 0 l 1281 1123 l 1230 1123 l 1109 666 l 977 1122 l 977 1123 l 925 1123 l 926 1122 l 629 0 l 680 0 m 578 0 l 875 1123 l 825 1123 l 528 0 l 578 0 m 477 0 l 774 1123 l 724 1123 l 427 0 l 477 0 m 1287 0 l 1584 1123 l 1533 1123 l 1236 0 l 1287 0 m 1185 0 l 1482 1123 l 1432 1123 l 1135 0 l 1185 0 m 1084 0 l 1381 1123 l 1332 1123 l 1034 0 l 1084 0 m 351 96 l 79 1123 l 28 1123 l 325 0 l 376 0 l 673 1123 l 623 1123 l 351 96 m 825 551 l 850 646 l 983 189 l 957 92 l 825 551 m 876 742 l 901 838 l 1034 380 l 1008 285 l 876 742 m 926 932 l 952 1029 l 1084 571 l 1059 475 l 926 932 "},"X":{"ha":1217,"x_min":21,"x_max":1200,"o":"m 404 607 l 79 1123 l 21 1123 l 374 561 l 404 607 m 644 240 l 795 0 l 853 0 l 673 286 l 644 240 m 461 698 l 193 1123 l 136 1123 l 432 652 l 461 698 m 702 332 l 911 0 l 968 0 l 730 378 l 702 332 m 519 790 l 309 1123 l 252 1123 l 490 745 l 519 790 m 760 424 l 1027 0 l 1084 0 l 789 470 l 760 424 m 576 882 l 425 1123 l 367 1123 l 548 836 l 576 882 m 817 515 l 1142 0 l 1200 0 l 846 562 l 817 515 m 1108 1123 l 401 0 l 459 0 l 1166 1123 l 1108 1123 m 994 1123 l 286 0 l 344 0 l 1050 1123 l 994 1123 m 878 1123 l 170 0 l 228 0 l 935 1123 l 878 1123 m 762 1123 l 55 0 l 113 0 l 820 1123 l 762 1123 "},"Y":{"ha":1096,"x_min":24,"x_max":1072,"o":"m 439 565 l 170 1123 l 121 1123 l 414 511 l 439 565 m 488 672 l 268 1123 l 219 1123 l 463 618 l 488 672 m 536 779 l 366 1123 l 317 1123 l 512 725 l 536 779 m 475 378 l 475 0 l 524 0 l 524 378 l 877 1123 l 828 1123 l 475 378 m 572 378 l 572 0 l 621 0 l 621 378 l 975 1123 l 926 1123 l 572 378 m 670 378 l 670 0 l 719 0 l 719 378 l 1072 1123 l 1023 1123 l 670 378 m 401 430 l 73 1123 l 24 1123 l 377 378 l 377 0 l 426 0 l 426 378 l 779 1123 l 730 1123 l 401 430 "},"Z":{"ha":1186,"x_min":54,"x_max":1129,"o":"m 594 293 l 1129 293 l 1129 342 l 675 342 l 594 293 m 434 195 l 1129 195 l 1129 244 l 516 244 l 434 195 m 272 98 l 1129 98 l 1129 146 l 355 146 l 272 98 m 589 830 l 54 830 l 54 781 l 508 781 l 589 830 m 749 928 l 54 928 l 54 879 l 667 879 l 749 928 m 911 1025 l 54 1025 l 54 977 l 828 977 l 911 1025 m 1129 1008 l 54 286 l 54 229 l 1129 951 l 1129 1008 m 1129 893 l 54 172 l 54 113 l 1129 836 l 1129 893 m 1129 779 l 54 58 q 54 0 54 0 l 1129 0 l 1129 49 l 126 49 l 1129 722 l 1129 779 m 1057 1074 l 54 400 l 54 344 l 1129 1065 q 1129 1123 1129 1123 l 54 1123 l 54 1074 l 1057 1074 "},"[":{"ha":446,"x_min":64,"x_max":406,"o":"m 259 98 l 406 98 l 406 146 l 308 146 l 308 928 l 406 928 l 406 977 l 259 977 l 259 98 m 161 1074 l 161 1 l 406 1 l 406 49 l 210 49 l 210 1025 l 406 1025 l 406 1074 l 161 1074 m 64 1172 l 64 -98 l 406 -98 l 406 -49 l 113 -49 l 113 1123 l 406 1123 l 406 1172 l 64 1172 "},"\\":{"ha":623,"x_min":29,"x_max":597,"o":"m 232 1122 l 546 -132 l 597 -132 l 283 1122 l 232 1122 m 130 1122 l 445 -132 l 495 -132 l 181 1122 l 130 1122 m 29 1122 l 344 -132 l 394 -132 l 79 1122 l 29 1122 "},"]":{"ha":444,"x_min":40,"x_max":382,"o":"m 40 1172 l 40 1123 l 333 1123 l 333 -49 l 40 -49 l 40 -98 l 382 -98 l 382 1172 l 40 1172 m 40 1074 l 40 1025 l 235 1025 l 235 49 l 40 49 l 40 1 l 284 1 l 284 1074 l 40 1074 m 186 977 l 40 977 l 40 928 l 138 928 l 138 146 l 40 146 l 40 98 l 186 98 l 186 977 "},"^":{"ha":660,"x_min":41,"x_max":620,"o":"m 94 440 l 278 911 l 463 440 l 515 440 l 305 977 l 252 977 l 41 440 l 94 440 m 620 440 l 410 977 l 357 977 l 568 440 l 620 440 m 199 440 l 313 732 l 285 795 l 146 440 l 199 440 "},"_":{"ha":711,"x_min":62,"x_max":648,"o":"m 62 -49 l 648 -49 l 648 0 l 62 0 l 62 -49 m 62 -146 l 648 -146 l 648 -98 l 62 -98 l 62 -146 m 62 -244 l 648 -244 l 648 -195 l 62 -195 l 62 -244 "},"`":{"ha":656,"x_min":40,"x_max":608,"o":"m 570 1059 l 118 1280 l 156 1315 l 608 1094 l 570 1059 m 492 988 l 40 1208 l 79 1244 l 531 1023 l 492 988 "},"a":{"ha":1156,"x_min":37,"x_max":1098,"o":"m 756 481 l 756 0 l 805 0 l 805 481 q 738 651 805 589 q 561 712 670 712 q 396 647 462 712 q 330 488 330 582 q 351 381 330 428 q 407 308 372 335 q 485 268 442 281 q 577 255 528 255 q 719 290 653 255 l 719 338 q 578 300 655 300 q 518 307 546 300 q 464 327 490 313 q 419 362 438 340 q 390 415 401 383 q 379 488 379 448 q 433 612 379 560 q 561 663 486 663 q 703 616 649 663 q 756 481 756 568 m 903 481 q 858 655 903 580 q 736 770 813 730 q 561 810 659 810 q 327 716 422 810 q 233 488 233 622 q 260 346 233 410 q 336 243 288 283 q 444 183 383 203 q 571 162 504 162 q 719 193 646 162 l 719 244 q 572 208 649 208 q 464 225 515 208 q 371 276 412 243 q 306 364 330 309 q 281 488 281 419 q 361 682 281 602 q 561 761 441 761 q 772 685 690 761 q 854 481 854 610 l 854 0 l 903 0 l 903 481 m 1000 481 q 943 704 1000 606 q 785 854 885 802 q 561 907 685 907 q 393 874 472 907 q 257 785 313 841 q 168 651 201 728 q 135 488 135 574 q 194 271 135 368 q 351 121 253 174 q 567 68 450 68 q 719 98 642 68 l 719 147 q 568 115 645 115 q 424 141 493 115 q 301 212 355 166 q 216 330 248 258 q 184 488 184 401 q 233 674 184 589 q 369 809 282 759 q 561 859 456 859 q 760 812 671 859 q 900 680 849 766 q 951 481 951 593 l 951 0 l 1000 0 l 1000 481 m 1098 481 q 1057 696 1098 597 q 943 862 1015 794 q 772 967 871 929 q 561 1005 673 1005 q 352 964 450 1005 q 185 853 254 923 q 77 689 117 784 q 37 488 37 593 q 66 315 37 397 q 144 171 94 233 q 261 65 195 110 q 405 -3 327 20 q 564 -26 482 -26 q 719 0 644 -26 l 719 50 q 567 20 647 20 q 424 41 494 20 q 293 102 354 62 q 186 199 233 143 q 113 330 140 255 q 86 488 86 405 q 149 723 86 615 q 320 893 211 830 q 561 956 429 956 q 809 897 698 956 q 985 729 920 838 q 1049 481 1049 620 l 1049 0 l 1098 0 l 1098 481 "},"b":{"ha":1001,"x_min":63,"x_max":952,"o":"m 828 494 q 827 493 827 494 q 882 411 860 460 q 903 312 903 362 q 828 129 903 203 q 649 54 753 54 l 340 54 l 340 5 l 649 5 q 800 41 732 5 q 910 148 868 77 q 952 312 952 219 q 894 490 952 409 q 952 676 952 568 q 911 825 952 755 q 799 936 869 895 q 649 977 729 977 l 63 977 l 63 0 l 112 0 l 112 928 l 649 928 q 828 853 752 928 q 903 676 903 778 q 827 494 903 569 l 828 494 m 649 250 q 691 266 674 250 q 708 312 708 282 q 690 355 708 336 q 649 374 672 374 l 340 374 l 340 423 l 649 423 q 724 390 692 423 q 757 312 757 356 q 725 231 757 261 q 649 201 694 201 l 340 201 l 340 250 l 649 250 m 649 152 q 760 197 713 152 q 806 312 806 241 q 759 424 806 376 q 649 472 711 472 l 500 472 l 340 472 l 340 521 l 500 521 l 649 521 q 760 565 713 521 q 806 676 806 608 q 759 784 806 737 q 649 830 711 830 l 210 830 l 210 0 l 161 0 l 161 879 l 649 879 q 793 818 732 879 q 854 676 854 758 q 824 569 854 616 q 745 495 794 521 q 824 418 794 468 q 854 312 854 368 q 794 163 854 223 q 649 103 733 103 l 340 103 l 340 152 l 649 152 m 649 618 q 691 633 674 618 q 708 676 708 648 q 690 715 708 698 q 649 732 672 732 l 307 732 l 307 0 l 258 0 l 258 781 l 649 781 q 724 749 692 781 q 757 676 757 718 q 726 598 757 627 q 649 570 694 570 l 340 570 l 340 618 l 649 618 "},"c":{"ha":1023,"x_min":37,"x_max":994,"o":"m 766 640 q 682 708 732 683 q 574 732 631 732 q 402 661 473 732 q 330 488 330 589 q 402 316 330 387 q 574 244 473 244 q 681 268 631 244 q 765 335 731 292 l 727 367 q 660 313 699 332 q 574 293 620 293 q 436 350 494 293 q 379 488 379 408 q 436 626 379 569 q 574 684 494 684 q 726 610 667 684 l 766 640 m 842 701 q 724 796 794 762 q 574 830 654 830 q 403 784 481 830 q 278 660 324 739 q 233 488 233 581 q 278 317 233 395 q 403 192 324 238 q 574 146 481 146 q 724 181 654 146 q 841 275 793 215 l 804 306 q 703 225 763 254 q 574 195 642 195 q 367 281 453 195 q 281 488 281 368 q 367 695 281 609 q 574 781 453 781 q 702 752 642 781 q 803 671 762 723 l 842 701 m 918 762 q 767 884 857 840 q 574 928 677 928 q 404 893 485 928 q 263 799 322 858 q 170 659 205 741 q 135 488 135 578 q 170 317 135 399 q 263 177 205 236 q 404 84 322 119 q 574 49 485 49 q 766 93 676 49 q 917 213 855 136 l 880 245 q 745 137 825 176 q 574 98 665 98 q 423 129 495 98 q 298 212 351 159 q 215 337 245 264 q 184 488 184 409 q 215 640 184 568 q 298 765 245 712 q 423 848 351 817 q 574 879 495 879 q 745 840 665 879 q 880 732 825 800 l 918 762 m 994 823 q 809 971 919 918 q 574 1025 699 1025 q 366 983 465 1025 q 195 868 267 940 q 80 697 123 796 q 37 488 37 597 q 80 280 37 379 q 195 109 123 180 q 366 -6 267 37 q 574 -49 465 -49 q 809 5 699 -49 q 994 153 918 59 l 955 182 q 787 49 886 98 q 574 0 688 0 q 385 39 475 0 q 229 143 294 77 q 125 299 163 208 q 86 488 86 389 q 125 678 86 587 q 229 834 163 768 q 385 938 294 899 q 574 977 475 977 q 787 928 688 977 q 955 794 886 879 l 994 823 "},"d":{"ha":1157,"x_min":63,"x_max":1111,"o":"m 356 293 l 627 293 q 756 350 703 293 q 810 490 810 407 q 756 627 810 570 q 627 684 702 684 q 356 684 356 684 l 356 293 m 405 342 l 405 635 l 627 635 q 721 592 682 635 q 760 490 760 549 q 721 385 760 427 q 627 342 682 342 l 405 342 m 307 244 l 307 732 l 627 732 q 791 661 722 732 q 860 490 860 590 q 791 316 860 387 q 627 244 723 244 l 307 244 m 258 195 l 627 195 q 827 281 743 195 q 910 490 910 367 q 826 695 910 610 q 627 781 743 781 l 258 781 l 258 195 m 210 146 l 210 830 l 627 830 q 792 784 715 830 q 915 660 869 739 q 960 490 960 581 q 915 317 960 396 q 793 192 869 237 q 627 146 716 146 l 210 146 m 161 98 l 627 98 q 818 150 729 98 q 958 293 906 202 q 1010 490 1010 383 q 958 685 1010 595 q 818 827 906 774 q 627 879 729 879 l 161 879 l 161 98 m 112 49 l 112 928 l 627 928 q 842 869 742 928 q 1001 709 942 810 q 1061 490 1061 608 q 1001 268 1061 370 q 842 107 942 166 q 627 49 743 49 l 112 49 m 627 0 q 812 39 723 0 q 967 143 902 77 q 1072 299 1033 208 q 1111 490 1111 390 q 1045 733 1111 621 q 867 911 979 846 q 627 977 755 977 l 63 977 l 63 0 l 627 0 "},"e":{"ha":926,"x_min":63,"x_max":872,"o":"m 307 0 l 307 977 l 258 977 l 258 0 l 307 0 m 210 0 l 210 977 l 161 977 l 161 0 l 210 0 m 112 0 l 112 977 l 63 977 l 63 0 l 112 0 m 405 244 l 405 367 l 845 367 l 845 416 l 405 416 l 405 465 l 845 465 l 845 513 l 405 513 l 405 562 l 845 562 l 845 611 l 405 611 l 405 732 l 872 732 l 872 781 l 405 781 l 405 830 l 872 830 l 872 879 l 405 879 l 405 928 l 872 928 l 872 977 l 356 977 l 356 0 l 872 0 l 872 49 l 405 49 l 405 98 l 872 98 l 872 146 l 405 146 l 405 195 l 872 195 l 872 244 l 405 244 "},"f":{"ha":869,"x_min":63,"x_max":822,"o":"m 405 0 l 405 339 l 789 339 l 789 388 l 405 388 l 405 437 l 789 437 l 789 486 l 405 486 l 405 534 l 789 534 l 789 583 l 405 583 l 405 732 l 822 732 l 822 781 l 405 781 l 405 830 l 822 830 l 822 879 l 405 879 l 405 928 l 822 928 l 822 977 l 356 977 l 356 0 l 405 0 m 307 0 l 307 977 l 258 977 l 258 0 l 307 0 m 210 0 l 210 977 l 161 977 l 161 0 l 210 0 m 112 0 l 112 977 l 63 977 l 63 0 l 112 0 "},"g":{"ha":1149,"x_min":37,"x_max":1092,"o":"m 750 495 l 750 351 q 574 293 678 293 q 436 350 494 293 q 379 488 379 408 q 436 626 379 569 q 574 684 494 684 q 726 610 667 684 l 766 640 q 682 708 732 683 q 574 732 631 732 q 402 661 473 732 q 330 488 330 589 q 402 316 330 387 q 574 244 473 244 q 750 291 671 244 l 750 241 q 574 195 669 195 q 367 281 453 195 q 281 488 281 368 q 367 695 281 609 q 574 781 453 781 q 702 752 642 781 q 803 671 762 723 l 842 701 q 724 796 794 762 q 574 830 654 830 q 403 784 481 830 q 278 660 324 739 q 233 488 233 581 q 278 317 233 395 q 403 192 324 238 q 574 146 481 146 q 750 186 668 146 l 750 136 q 574 98 668 98 q 423 129 495 98 q 298 212 351 159 q 215 337 245 264 q 184 488 184 409 q 215 640 184 568 q 298 765 245 712 q 423 848 351 817 q 574 879 495 879 q 745 840 665 879 q 880 732 825 800 l 918 762 q 767 884 857 840 q 574 928 677 928 q 404 893 485 928 q 263 799 322 858 q 170 659 205 741 q 135 488 135 578 q 170 317 135 399 q 263 177 205 236 q 404 84 322 119 q 574 49 485 49 q 750 83 665 49 l 750 33 q 574 0 666 0 q 385 39 475 0 q 229 143 294 77 q 125 299 163 208 q 86 488 86 389 q 125 678 86 587 q 229 834 163 768 q 385 938 294 899 q 574 977 475 977 q 787 928 688 977 q 955 794 886 879 l 994 823 q 809 971 919 918 q 574 1025 699 1025 q 366 983 465 1025 q 195 868 267 940 q 80 697 123 796 q 37 488 37 597 q 80 280 37 379 q 195 109 123 180 q 366 -6 267 37 q 574 -49 465 -49 q 799 0 690 -49 l 799 495 l 750 495 m 1043 495 l 1043 0 l 1092 0 l 1092 495 l 1043 495 m 945 495 l 945 0 l 994 0 l 994 495 l 945 495 m 848 495 l 848 0 l 897 0 l 897 495 l 848 495 "},"h":{"ha":1154,"x_min":63,"x_max":1089,"o":"m 1040 977 l 1040 0 l 1089 0 l 1089 977 l 1040 977 m 63 977 l 63 0 l 112 0 l 112 977 l 63 977 m 943 977 l 943 0 l 991 0 l 991 977 l 943 977 m 845 977 l 845 0 l 894 0 l 894 977 l 845 977 m 747 977 l 747 635 l 405 635 l 405 977 l 356 977 l 356 0 l 405 0 l 405 391 l 747 391 l 747 0 l 796 0 l 796 977 l 747 977 m 258 977 l 258 0 l 307 0 l 307 977 l 258 977 m 161 977 l 161 0 l 210 0 l 210 977 l 161 977 m 747 439 l 405 439 l 405 488 l 747 488 l 747 439 m 747 537 l 405 537 l 405 586 l 747 586 l 747 537 "},"i":{"ha":469,"x_min":63,"x_max":405,"o":"m 356 977 l 356 0 l 405 0 l 405 977 l 356 977 m 258 977 l 258 0 l 307 0 l 307 977 l 258 977 m 161 977 l 161 0 l 210 0 l 210 977 l 161 977 m 63 977 l 63 0 l 112 0 l 112 977 l 63 977 "},"j":{"ha":547,"x_min":32,"x_max":486,"o":"m 32 147 q 146 189 99 147 q 193 295 193 231 l 193 977 l 144 977 l 144 295 q 112 223 144 250 q 32 196 79 196 l 32 147 m 32 50 q 215 121 140 50 q 290 295 290 193 l 290 977 l 241 977 l 241 295 q 181 156 241 213 q 32 98 120 98 l 32 50 m 32 -48 q 212 -2 130 -48 q 341 123 294 44 q 388 295 388 202 l 388 977 l 339 977 l 339 295 q 250 87 339 173 q 32 1 161 1 l 32 -48 m 32 -146 q 209 -111 125 -146 q 354 -17 293 -76 q 450 124 414 43 q 486 295 486 205 l 486 977 l 437 977 l 437 295 q 405 143 437 216 q 319 18 373 71 q 190 -66 265 -35 q 32 -97 115 -97 l 32 -146 "},"k":{"ha":1114,"x_min":63,"x_max":1089,"o":"m 1089 977 l 817 484 l 1085 0 l 1031 0 l 763 484 l 1035 977 l 1089 977 m 980 977 l 708 484 l 976 0 l 922 0 l 654 484 l 926 977 l 980 977 m 871 977 l 599 484 l 867 0 l 812 0 l 545 484 l 817 977 l 871 977 m 762 977 l 489 484 l 758 0 l 703 0 l 435 484 l 707 977 l 762 977 m 356 977 l 356 0 l 405 0 l 405 977 l 356 977 m 258 977 l 258 0 l 307 0 l 307 977 l 258 977 m 161 977 l 161 0 l 210 0 l 210 977 l 161 977 m 63 977 l 63 0 l 112 0 l 112 977 l 63 977 "},"l":{"ha":810,"x_min":63,"x_max":765,"o":"m 63 977 l 63 0 l 112 0 l 112 977 l 63 977 m 356 977 l 356 0 l 765 0 l 765 49 l 405 49 l 405 98 l 765 98 l 765 146 l 405 146 l 405 195 l 765 195 l 765 244 l 405 244 l 405 977 l 356 977 m 258 977 l 258 0 l 307 0 l 307 977 l 258 977 m 161 977 l 161 0 l 210 0 l 210 977 l 161 977 "},"m":{"ha":1622,"x_min":55,"x_max":1563,"o":"m 687 610 q 517 732 687 732 q 348 610 348 732 l 348 0 l 397 0 l 397 610 q 403 644 397 630 q 420 665 410 658 q 447 677 430 673 q 479 683 463 682 q 517 684 494 684 q 556 683 541 684 q 588 677 572 682 q 615 665 605 673 q 632 644 625 658 q 638 610 638 630 l 638 0 l 687 0 l 687 610 m 785 610 q 748 732 785 682 q 652 807 711 783 q 517 830 593 830 q 383 807 442 830 q 287 732 323 783 q 250 610 250 682 l 250 0 l 299 0 l 299 610 q 360 739 299 696 q 517 781 420 781 q 675 739 614 781 q 736 610 736 696 l 736 0 l 785 0 l 785 610 m 882 610 q 853 745 882 684 q 775 845 825 805 q 659 906 726 884 q 517 928 593 928 q 376 906 442 928 q 260 845 309 884 q 181 745 210 805 q 153 610 153 684 l 153 0 l 201 0 l 201 610 q 226 726 201 674 q 294 810 251 777 q 395 861 338 844 q 517 879 452 879 q 640 861 583 879 q 741 810 697 844 q 809 726 784 777 q 833 610 833 674 l 833 0 l 882 0 l 882 610 m 980 0 l 980 610 q 986 644 980 630 q 1003 665 993 658 q 1030 677 1013 673 q 1062 683 1046 682 q 1101 684 1078 684 q 1139 683 1124 684 q 1172 677 1155 682 q 1198 665 1188 673 q 1215 644 1208 658 q 1221 610 1221 630 l 1221 0 l 1270 0 l 1270 610 q 1101 732 1270 732 q 971 700 1014 732 q 958 749 966 723 q 1101 781 1013 781 q 1258 739 1198 781 q 1319 610 1319 696 l 1319 0 l 1368 0 l 1368 610 q 1331 732 1368 682 q 1235 807 1295 783 q 1101 830 1176 830 q 939 793 1005 830 q 914 835 926 816 q 1101 879 993 879 q 1223 861 1166 879 q 1324 810 1280 844 q 1392 726 1367 777 q 1417 610 1417 674 l 1417 0 l 1466 0 l 1466 610 q 1437 745 1466 684 q 1358 845 1408 805 q 1242 906 1309 884 q 1101 928 1176 928 q 884 873 977 928 q 850 909 865 895 q 1101 977 957 977 q 1309 933 1215 977 q 1458 805 1402 890 q 1514 610 1514 721 l 1514 0 l 1563 0 l 1563 610 q 1527 783 1563 704 q 1427 914 1490 861 q 1280 996 1364 967 q 1101 1025 1196 1025 q 809 941 932 1025 q 517 1025 686 1025 q 338 996 422 1025 q 191 914 254 967 q 92 783 128 861 q 55 610 55 704 l 55 0 l 104 0 l 104 610 q 160 806 104 722 q 310 933 216 890 q 517 977 403 977 q 677 947 601 977 q 810 869 754 918 q 898 752 865 820 q 931 610 931 684 l 931 0 l 980 0 "},"n":{"ha":1093,"x_min":63,"x_max":1029,"o":"m 833 394 l 833 977 l 785 977 l 785 483 l 833 394 m 931 225 l 931 977 l 882 977 l 882 308 l 931 225 m 258 583 l 258 0 l 307 0 l 307 494 l 258 583 m 161 758 l 161 0 l 210 0 l 210 669 l 161 758 m 178 977 l 743 0 l 800 0 l 235 977 l 178 977 m 293 977 l 857 0 l 916 0 l 351 977 l 293 977 m 408 977 l 971 0 l 1029 0 l 1029 977 l 980 977 l 980 85 l 465 977 l 408 977 m 112 892 l 629 0 l 685 0 l 121 977 l 63 977 l 63 0 l 112 0 l 112 892 "},"o":{"ha":1158,"x_min":37,"x_max":1112,"o":"m 436 626 q 574 684 494 684 q 712 626 655 684 q 770 488 770 569 q 712 350 770 408 q 574 293 655 293 q 436 350 494 293 q 379 488 379 408 q 408 598 379 569 q 436 626 436 626 m 402 316 q 574 244 473 244 q 747 316 675 244 q 819 488 819 387 q 747 661 819 589 q 574 732 675 732 q 402 661 473 732 q 330 488 330 589 q 366 351 330 387 q 402 316 402 316 m 367 695 q 574 781 453 781 q 782 695 696 781 q 867 488 867 609 q 782 281 867 368 q 574 195 696 195 q 367 281 453 195 q 281 488 281 368 q 324 652 281 609 q 367 695 367 695 m 278 317 q 403 192 324 238 q 574 146 481 146 q 746 192 667 146 q 870 317 825 238 q 916 488 916 395 q 870 660 916 581 q 746 784 825 739 q 574 830 667 830 q 403 784 481 830 q 278 660 324 739 q 233 488 233 581 q 255 356 233 395 q 278 317 278 317 m 215 640 q 298 765 245 712 q 423 848 351 817 q 574 879 495 879 q 726 848 654 879 q 851 765 798 817 q 934 640 903 712 q 965 488 965 568 q 934 337 965 409 q 851 212 903 264 q 726 129 798 159 q 574 98 654 98 q 423 129 495 98 q 298 212 351 159 q 215 337 245 264 q 184 488 184 409 q 199 604 184 568 q 215 640 215 640 m 170 317 q 263 177 205 236 q 404 84 322 119 q 574 49 485 49 q 745 84 664 49 q 885 177 827 119 q 979 317 944 236 q 1014 488 1014 399 q 979 659 1014 578 q 885 799 944 741 q 745 893 827 858 q 574 928 664 928 q 404 893 485 928 q 263 799 322 858 q 170 659 205 741 q 135 488 135 578 q 152 358 135 399 q 170 317 170 317 m 125 678 q 229 834 163 768 q 385 938 294 899 q 574 977 475 977 q 764 938 673 977 q 920 834 854 899 q 1024 678 985 768 q 1063 488 1063 587 q 1024 299 1063 389 q 920 143 985 208 q 764 39 854 77 q 574 0 673 0 q 385 39 475 0 q 229 143 294 77 q 125 299 163 208 q 86 488 86 389 q 105 633 86 587 q 125 678 125 678 m 80 280 q 195 109 123 180 q 366 -6 267 37 q 574 -49 465 -49 q 783 -6 684 -49 q 954 109 882 37 q 1069 280 1026 180 q 1112 488 1112 379 q 1069 697 1112 597 q 954 868 1026 796 q 783 983 882 940 q 574 1025 684 1025 q 366 983 465 1025 q 195 868 267 940 q 80 697 123 796 q 37 488 37 597 q 59 329 37 379 q 80 280 80 280 "},"p":{"ha":1086,"x_min":63,"x_max":1040,"o":"m 442 460 l 442 411 l 649 411 q 787 462 730 411 q 844 600 844 513 q 786 726 844 671 q 649 781 727 781 l 258 781 l 258 0 l 307 0 l 307 732 l 649 732 q 751 692 706 732 q 795 600 795 651 q 753 496 795 533 q 649 460 710 460 l 442 460 m 442 362 l 442 313 l 649 313 q 856 395 769 313 q 942 600 942 477 q 854 795 942 711 q 649 879 767 879 l 161 879 l 161 0 l 210 0 l 210 830 l 649 830 q 820 761 747 830 q 893 600 893 691 q 821 429 893 495 q 649 362 749 362 l 442 362 m 442 264 l 442 216 l 649 216 q 799 242 728 216 q 924 317 870 269 q 1008 439 977 366 q 1040 600 1040 512 q 1008 744 1040 674 q 924 864 977 813 q 799 946 871 916 q 649 977 726 977 l 63 977 l 63 0 l 112 0 l 112 928 l 649 928 q 819 883 740 928 q 944 762 898 838 q 991 600 991 686 q 944 429 991 506 q 819 308 897 351 q 649 264 741 264 l 442 264 m 405 0 l 405 635 l 649 635 q 684 625 669 635 q 698 600 698 614 q 649 557 698 557 l 442 557 l 442 509 l 649 509 q 747 600 747 509 q 718 659 747 634 q 649 684 689 684 l 356 684 l 356 0 l 405 0 "},"q":{"ha":1095,"x_min":37,"x_max":1030,"o":"m 475 331 q 337 385 393 331 q 281 541 281 438 q 341 673 281 613 q 475 732 401 732 l 786 732 l 786 -146 l 835 -146 l 835 781 l 475 781 q 307 707 380 781 q 233 541 233 633 q 303 352 233 422 q 475 282 374 282 l 661 282 l 661 331 l 475 331 m 475 233 q 365 255 418 233 q 272 316 312 277 q 208 414 232 355 q 184 541 184 472 q 224 681 184 614 q 332 789 264 748 q 475 830 400 830 l 884 830 l 884 -146 l 932 -146 l 932 879 l 475 879 q 346 851 409 879 q 237 776 283 823 q 163 668 191 730 q 135 541 135 606 q 163 397 135 464 q 237 283 191 330 q 346 211 284 237 q 475 184 408 184 l 661 184 l 661 233 l 475 233 m 475 136 q 327 166 398 136 q 202 249 256 197 q 118 378 149 302 q 86 541 86 454 q 139 730 86 640 q 283 873 193 819 q 475 928 373 928 l 981 928 l 981 -146 l 1030 -146 l 1030 977 l 475 977 q 308 941 389 977 q 168 845 227 905 q 73 705 109 785 q 37 541 37 625 q 60 384 37 457 q 124 257 83 311 q 220 165 165 203 q 340 106 275 126 q 475 87 405 87 l 661 87 l 661 136 l 475 136 m 737 -146 l 737 684 l 475 684 q 374 640 418 684 q 330 541 330 596 q 475 380 330 380 l 661 380 l 661 429 l 475 429 q 404 452 429 429 q 379 541 379 476 q 407 607 379 580 q 475 635 434 635 l 688 635 l 688 -146 l 737 -146 "},"r":{"ha":1155,"x_min":63,"x_max":1110,"o":"m 432 467 l 432 418 l 726 418 q 860 469 805 418 q 915 606 915 520 q 858 728 915 675 q 726 781 802 781 l 258 781 l 258 0 l 307 0 l 307 732 l 726 732 q 824 694 781 732 q 866 606 866 655 q 825 503 866 540 q 726 467 785 467 l 432 467 m 432 369 l 432 320 l 726 320 q 928 402 844 320 q 1013 606 1013 484 q 927 797 1013 715 q 726 879 842 879 l 161 879 l 161 0 l 210 0 l 210 830 l 726 830 q 892 763 821 830 q 964 606 964 695 q 894 435 964 502 q 726 369 824 369 l 432 369 m 432 271 l 432 222 l 579 222 l 662 0 l 713 0 l 631 222 l 675 222 l 761 0 l 812 0 l 726 222 q 770 224 749 222 l 860 0 l 912 0 l 821 233 q 863 245 845 239 l 960 0 l 1013 0 l 910 264 q 1056 399 1002 311 q 1110 606 1110 488 q 1079 748 1110 680 q 996 866 1048 817 q 874 946 945 916 q 726 977 803 977 l 63 977 l 63 0 l 112 0 l 112 928 l 726 928 q 893 884 815 928 q 1016 765 970 840 q 1061 606 1061 691 q 1016 435 1061 513 q 893 315 970 358 q 726 271 817 271 l 432 271 m 405 0 l 405 635 l 726 635 q 756 626 743 635 q 768 606 768 618 q 726 564 768 564 l 432 564 l 432 515 l 726 515 q 817 606 817 515 q 791 661 817 638 q 726 684 764 684 l 356 684 l 356 0 l 405 0 "},"s":{"ha":949,"x_min":30,"x_max":917,"o":"m 512 465 q 697 421 635 465 q 759 296 759 377 q 683 172 759 220 q 465 123 608 123 q 283 148 368 123 q 144 218 199 173 l 106 188 q 262 104 168 134 q 465 74 356 74 q 718 137 627 74 q 808 296 808 201 q 731 455 808 397 q 509 513 654 513 l 435 513 q 250 557 312 513 q 188 682 188 601 q 263 806 188 758 q 482 855 339 855 q 663 830 579 855 q 803 760 747 805 l 841 790 q 685 874 779 844 q 482 904 591 904 q 229 841 319 904 q 139 682 139 777 q 216 523 139 581 q 435 465 292 465 l 512 465 m 512 367 q 628 351 595 367 q 661 296 661 334 q 614 241 661 262 q 465 220 566 220 q 221 279 306 220 l 182 249 q 304 192 231 212 q 465 172 378 172 q 649 207 587 172 q 710 296 710 241 q 509 416 710 416 l 435 416 q 180 488 269 416 q 90 682 90 559 q 195 876 90 798 q 482 953 299 953 q 705 919 601 953 q 878 822 808 884 l 917 851 q 727 962 841 922 q 482 1002 613 1002 q 294 976 378 1002 q 154 907 209 951 q 71 806 100 863 q 41 682 41 748 q 144 453 41 538 q 435 367 246 367 l 512 367 m 512 562 q 767 490 677 562 q 857 296 857 418 q 752 102 857 180 q 465 25 648 25 q 242 59 346 25 q 69 156 138 94 l 30 127 q 220 16 106 56 q 465 -24 334 -24 q 653 2 568 -24 q 792 71 738 27 q 876 172 847 115 q 905 296 905 230 q 803 525 905 439 q 512 611 701 611 l 435 611 q 319 627 352 611 q 286 682 286 644 q 333 736 286 715 q 482 758 380 758 q 726 699 641 758 l 764 729 q 642 786 716 766 q 482 806 568 806 q 298 771 359 806 q 237 682 237 736 q 435 562 237 562 l 512 562 "},"t":{"ha":817,"x_min":41,"x_max":773,"o":"m 236 706 l 236 0 l 285 0 l 285 706 l 236 706 m 41 928 l 773 928 l 773 977 l 41 977 l 41 928 m 41 830 l 773 830 l 773 879 l 41 879 l 41 830 m 41 732 l 773 732 l 773 781 l 41 781 l 41 732 m 529 706 l 529 0 l 578 0 l 578 706 l 529 706 m 431 706 l 431 0 l 480 0 l 480 706 l 431 706 m 334 706 l 334 0 l 382 0 l 382 706 l 334 706 "},"u":{"ha":1105,"x_min":56,"x_max":1046,"o":"m 704 433 q 659 334 704 375 q 551 293 614 293 q 443 334 488 293 q 397 433 397 375 l 397 977 l 349 977 l 349 433 q 408 300 349 355 q 551 244 467 244 q 693 300 634 244 q 753 433 753 355 l 753 977 l 704 977 l 704 433 m 802 433 q 728 265 802 334 q 551 195 654 195 q 373 265 447 195 q 300 433 300 334 l 300 977 l 251 977 l 251 433 q 339 230 251 314 q 551 146 427 146 q 762 230 674 146 q 850 433 850 314 l 850 977 l 802 977 l 802 433 m 899 433 q 852 265 899 342 q 725 143 806 188 q 551 98 645 98 q 376 143 456 98 q 249 265 296 188 q 202 433 202 342 l 202 977 l 153 977 l 153 433 q 207 240 153 329 q 352 100 260 152 q 551 49 444 49 q 749 100 658 49 q 895 240 841 152 q 948 433 948 329 l 948 977 l 899 977 l 899 433 m 997 433 q 937 216 997 316 q 774 58 877 117 q 551 0 671 0 q 327 58 430 0 q 164 216 224 117 q 104 433 104 316 l 104 977 l 56 977 l 56 433 q 95 246 56 335 q 201 92 134 157 q 359 -11 267 28 q 551 -49 450 -49 q 743 -11 651 -49 q 901 92 834 28 q 1006 246 967 157 q 1046 433 1046 335 l 1046 977 l 997 977 l 997 433 "},"v":{"ha":1188,"x_min":24,"x_max":1165,"o":"m 24 977 l 411 0 l 464 0 l 850 977 l 798 977 l 437 66 l 77 977 l 24 977 m 130 977 l 444 182 l 471 244 l 182 977 l 130 977 m 235 977 l 498 311 l 524 378 l 288 977 l 235 977 m 340 977 l 549 445 l 575 513 l 392 977 l 340 977 m 1112 977 l 726 0 l 779 0 l 1165 977 l 1112 977 m 1008 977 l 621 0 l 673 0 l 1060 977 l 1008 977 m 902 977 l 516 0 l 568 0 l 955 977 l 902 977 "},"w":{"ha":1569,"x_min":56,"x_max":1510,"o":"m 1026 314 q 998 320 1013 315 q 974 332 983 324 q 959 353 965 339 q 954 387 954 367 l 954 977 l 905 977 l 905 387 q 851 203 905 288 q 705 70 797 119 q 505 20 612 20 q 349 46 422 20 q 222 117 276 71 q 136 233 168 163 q 104 387 104 303 l 104 977 l 56 977 l 56 387 q 91 214 56 293 q 188 83 127 136 q 330 1 248 30 q 505 -28 412 -28 q 785 54 666 -28 q 1061 -28 899 -28 q 1235 1 1153 -28 q 1378 83 1317 30 q 1474 214 1438 136 q 1510 387 1510 293 l 1510 977 l 1461 977 l 1461 387 q 1406 192 1461 276 q 1261 64 1352 107 q 1061 20 1171 20 q 825 86 926 20 q 860 121 841 100 q 1061 69 947 69 q 1237 106 1158 69 q 1364 216 1316 142 q 1412 387 1412 289 l 1412 977 l 1363 977 l 1363 387 q 1339 271 1363 323 q 1274 186 1316 220 q 1178 136 1233 153 q 1061 118 1124 118 q 889 161 963 118 q 913 202 903 180 q 1061 167 975 167 q 1243 223 1171 167 q 1314 387 1314 280 l 1314 977 l 1265 977 l 1265 387 q 1208 258 1265 300 q 1061 216 1152 216 q 931 248 983 216 q 944 294 939 268 q 1061 264 982 264 q 1217 387 1217 264 l 1217 977 l 1168 977 l 1168 387 q 1162 353 1168 367 q 1147 332 1156 339 q 1124 320 1139 324 q 1095 314 1109 315 q 1061 313 1081 313 q 1033 314 1040 313 q 1026 314 1026 314 m 661 977 l 612 977 l 612 387 q 606 353 612 367 q 591 332 600 339 q 568 320 583 324 q 539 314 553 315 q 505 313 525 313 q 470 314 484 313 q 441 320 456 315 q 418 332 427 324 q 403 353 409 339 q 397 387 397 367 l 397 977 l 349 977 l 349 387 q 505 264 349 264 q 661 387 661 264 l 661 977 m 758 977 l 709 977 l 709 387 q 652 258 709 300 q 505 216 595 216 q 357 258 414 216 q 300 387 300 300 l 300 977 l 251 977 l 251 387 q 322 223 251 280 q 505 167 394 167 q 687 223 615 167 q 758 387 758 280 l 758 977 m 856 977 l 807 977 l 807 387 q 783 271 807 323 q 718 186 760 220 q 622 136 677 153 q 505 118 568 118 q 387 136 441 118 q 291 186 332 153 q 226 271 250 220 q 202 387 202 323 l 202 977 l 153 977 l 153 387 q 201 216 153 289 q 328 106 249 142 q 505 69 407 69 q 681 106 602 69 q 808 216 760 142 q 856 387 856 289 l 856 977 "},"x":{"ha":1097,"x_min":26,"x_max":1071,"o":"m 1011 977 l 387 0 l 448 0 l 1071 977 l 1011 977 m 890 977 l 267 0 l 327 0 l 950 977 l 890 977 m 770 977 l 146 0 l 207 0 l 830 977 l 770 977 m 649 977 l 26 0 l 86 0 l 710 977 l 649 977 m 351 562 l 86 977 l 26 977 l 321 515 l 351 562 m 564 134 l 649 0 l 710 0 l 594 181 l 564 134 m 411 656 l 207 977 l 147 977 l 381 610 l 411 656 m 625 229 l 770 0 l 830 0 l 654 275 l 625 229 m 471 751 l 328 977 l 267 977 l 441 704 l 471 751 m 684 323 l 890 0 l 951 0 l 715 370 l 684 323 m 532 846 l 448 977 l 387 977 l 501 798 l 532 846 m 745 417 l 1011 0 l 1071 0 l 775 464 l 745 417 "},"y":{"ha":1019,"x_min":22,"x_max":998,"o":"m 949 977 l 642 330 l 642 0 l 691 0 l 691 330 l 998 977 l 949 977 m 852 977 l 545 330 l 545 0 l 593 0 l 593 330 l 901 977 l 852 977 m 754 977 l 447 330 l 447 0 l 496 0 l 496 330 l 803 977 l 754 977 m 656 977 l 373 379 l 71 977 l 22 977 l 349 330 l 349 0 l 398 0 l 398 330 l 705 977 l 656 977 m 120 977 l 387 463 l 411 516 l 169 977 l 120 977 m 218 977 l 435 570 l 460 623 l 267 977 l 218 977 m 317 977 l 484 676 l 509 730 l 366 977 l 317 977 "},"z":{"ha":993,"x_min":39,"x_max":947,"o":"m 941 244 l 593 244 l 562 195 l 941 195 l 941 244 m 941 146 l 532 146 l 502 98 l 941 98 l 941 146 m 941 49 l 477 49 l 448 0 l 941 0 l 941 49 m 56 732 l 406 732 l 436 781 l 56 781 l 56 732 m 56 829 l 462 829 l 493 878 l 56 878 l 56 829 m 56 927 l 515 927 l 548 976 l 56 976 l 56 927 m 400 0 l 947 893 l 947 976 l 340 0 l 400 0 m 279 0 l 888 976 l 829 976 l 220 0 l 279 0 m 159 0 l 767 976 l 707 976 l 99 0 l 159 0 m 39 0 l 647 976 l 587 976 l 39 99 l 39 0 "},"{":{"ha":551,"x_min":39,"x_max":514,"o":"m 367 239 q 344 362 367 306 q 283 456 321 419 q 195 514 245 494 q 92 534 146 534 l 39 534 l 39 486 l 93 486 q 178 469 138 486 q 250 422 218 452 q 299 344 281 391 q 318 239 318 296 l 318 33 q 351 -63 318 -28 q 433 -98 385 -98 l 514 -98 l 514 -49 l 431 -49 q 385 -27 404 -49 q 367 33 367 -5 l 367 239 m 269 239 q 218 384 269 331 q 93 437 166 437 l 39 437 l 39 388 l 95 388 q 185 349 150 388 q 220 239 220 311 l 220 33 q 283 -134 220 -72 q 435 -195 346 -195 l 514 -195 l 514 -146 l 433 -146 q 317 -99 364 -146 q 269 33 269 -52 l 269 239 m 172 239 q 149 314 172 289 q 91 339 125 339 l 39 339 l 39 290 l 89 290 q 114 280 105 290 q 123 239 123 269 l 123 33 q 166 -140 123 -65 q 280 -254 210 -216 q 433 -293 351 -293 l 514 -293 l 514 -244 l 433 -244 q 248 -168 325 -244 q 172 33 172 -92 l 172 239 m 338 447 q 367 586 367 511 l 367 847 q 385 907 367 885 q 431 928 404 928 l 514 928 l 514 977 l 433 977 q 351 943 385 977 q 318 847 318 908 l 318 586 q 300 483 318 528 l 338 447 m 259 515 q 269 586 269 552 l 269 847 q 317 979 269 931 q 433 1026 364 1026 l 514 1026 l 514 1075 l 435 1075 q 283 1013 346 1075 q 220 847 220 951 l 220 586 q 214 538 220 574 l 259 515 m 169 554 q 172 586 172 567 l 172 847 q 248 1048 172 972 q 433 1124 325 1124 l 514 1124 l 514 1173 l 433 1173 q 280 1134 351 1173 q 166 1020 210 1095 q 123 847 123 945 l 123 586 q 120 559 123 573 l 169 554 "},"|":{"ha":370,"x_min":64,"x_max":308,"o":"m 259 1123 l 259 -146 l 308 -146 l 308 1123 l 259 1123 m 161 1123 l 161 -146 l 210 -146 l 210 1123 l 161 1123 m 64 1123 l 64 -146 l 113 -146 l 113 1123 l 64 1123 "},"}":{"ha":551,"x_min":38,"x_max":513,"o":"m 383 326 q 380 294 380 313 l 380 33 q 304 -168 380 -92 q 119 -244 227 -244 l 38 -244 l 38 -293 l 119 -293 q 272 -254 201 -293 q 386 -140 342 -216 q 429 33 429 -65 l 429 294 q 432 320 429 307 l 383 326 m 293 364 q 283 294 283 328 l 283 33 q 235 -99 283 -52 q 119 -146 188 -146 l 38 -146 l 38 -195 l 117 -195 q 269 -134 206 -195 q 332 33 332 -72 l 332 294 q 338 341 332 305 l 293 364 m 214 433 q 185 294 185 369 l 185 33 q 167 -27 185 -5 q 121 -49 149 -49 l 38 -49 l 38 -98 l 119 -98 q 201 -63 168 -98 q 234 33 234 -28 l 234 294 q 252 397 234 351 l 214 433 m 380 641 q 404 566 380 591 q 461 541 427 541 l 513 541 l 513 589 l 463 589 q 438 600 447 589 q 429 641 429 610 l 429 847 q 386 1020 429 945 q 272 1134 342 1095 q 119 1173 201 1173 l 38 1173 l 38 1124 l 119 1124 q 304 1048 227 1124 q 380 847 380 972 l 380 641 m 283 641 q 334 496 283 549 q 459 443 386 443 l 513 443 l 513 492 l 457 492 q 367 530 402 492 q 332 641 332 569 l 332 847 q 269 1013 332 951 q 117 1075 206 1075 l 38 1075 l 38 1026 l 119 1026 q 235 979 188 1026 q 283 847 283 931 l 283 641 m 185 641 q 208 517 185 574 q 269 423 231 460 q 357 366 307 386 q 460 345 406 345 l 513 345 l 513 394 l 459 394 q 374 411 414 394 q 302 458 334 427 q 253 536 271 488 q 234 641 234 583 l 234 847 q 201 943 234 908 q 119 977 168 977 l 38 977 l 38 928 l 121 928 q 167 907 149 928 q 185 847 185 885 l 185 641 "},"~":{"ha":924,"x_min":50,"x_max":879,"o":"m 732 1025 q 726 978 732 997 q 713 949 720 958 q 690 934 705 939 q 664 928 674 929 q 635 928 654 928 l 294 928 q 270 927 279 928 q 244 924 261 927 q 215 916 227 922 q 190 900 204 911 q 167 874 176 890 q 153 836 159 859 q 147 781 147 812 l 196 781 q 202 829 196 810 q 216 858 208 848 q 239 872 223 867 q 264 878 254 878 q 294 879 274 879 l 635 879 q 659 879 650 879 q 685 882 667 880 q 713 890 702 885 q 739 906 724 896 q 761 932 753 917 q 775 971 770 947 q 781 1025 781 995 l 732 1025 m 830 1025 q 826 967 830 994 q 817 922 823 941 q 801 888 812 903 q 781 864 790 873 q 756 848 772 854 q 729 838 740 841 q 699 832 718 834 q 668 830 679 831 q 635 830 656 830 l 294 830 l 294 781 l 635 781 q 669 782 656 781 q 705 784 682 782 q 742 791 728 787 q 777 803 756 795 q 810 824 797 812 q 837 854 823 836 q 860 897 852 873 q 873 953 868 920 q 879 1025 879 986 l 830 1025 m 294 1025 q 259 1025 272 1025 q 224 1022 247 1025 q 186 1016 201 1020 q 152 1003 172 1012 q 119 983 132 995 q 91 952 106 971 q 68 910 77 934 q 55 853 60 886 q 50 781 50 821 l 98 781 q 102 839 98 813 q 111 884 106 865 q 127 918 117 903 q 148 943 138 933 q 173 959 157 952 q 199 969 189 966 q 230 974 210 972 q 261 976 250 976 q 294 977 272 977 l 635 977 l 635 1025 l 294 1025 "},"":{"ha":151,"x_min":0,"x_max":0,"o":""},"":{"ha":467,"x_min":64,"x_max":406,"o":"m 64 146 l 406 146 l 406 195 l 64 195 l 64 146 m 64 49 l 406 49 l 406 98 l 64 98 l 64 49 m 64 -49 l 406 -49 l 406 0 l 64 0 l 64 -49 m 357 1123 l 357 293 l 406 293 l 406 1123 l 357 1123 m 259 1123 l 259 293 l 308 293 l 308 1123 l 259 1123 m 161 1123 l 161 293 l 210 293 l 210 1123 l 161 1123 m 64 1123 l 64 293 l 113 293 l 113 1123 l 64 1123 "},"":{"ha":984,"x_min":40,"x_max":956,"o":"m 688 659 q 536 732 629 732 q 427 687 473 732 q 382 578 382 642 q 427 464 382 511 q 536 416 473 416 q 622 436 582 416 q 689 490 661 456 l 727 458 q 643 392 693 416 q 536 368 593 368 q 393 429 452 368 q 333 578 333 490 q 393 722 333 662 q 536 781 452 781 q 644 756 593 781 q 728 689 694 732 l 688 659 m 765 720 q 664 801 724 772 q 536 830 604 830 q 358 756 432 830 q 284 578 284 682 q 358 395 284 471 q 536 319 433 319 q 665 348 604 319 q 766 429 725 378 l 803 398 q 686 304 755 338 q 536 270 616 270 q 324 360 412 270 q 235 578 235 450 q 324 790 235 702 q 536 879 412 879 q 686 845 616 879 q 804 750 756 810 l 765 720 m 842 781 q 707 888 787 849 q 536 928 627 928 q 400 900 465 928 q 289 825 336 872 q 214 714 242 779 q 186 578 186 649 q 214 440 186 506 q 289 326 242 374 q 400 250 336 278 q 536 221 465 221 q 707 260 627 221 q 842 368 787 300 l 879 336 q 728 216 817 260 q 536 172 638 172 q 382 204 456 172 q 255 291 308 237 q 170 420 201 345 q 138 578 138 496 q 170 732 138 659 q 255 860 201 806 q 382 945 308 913 q 536 977 456 977 q 729 932 639 977 q 880 811 819 888 l 842 781 m 917 843 q 749 977 848 928 q 536 1025 650 1025 q 363 990 446 1025 q 220 894 280 954 q 124 751 160 834 q 89 578 89 669 q 124 401 89 486 q 220 256 160 317 q 363 159 280 195 q 536 123 446 123 q 749 172 650 123 q 917 306 848 221 l 956 276 q 771 129 880 182 q 536 75 661 75 q 344 115 436 75 q 185 222 252 155 q 79 383 119 290 q 40 578 40 476 q 79 770 40 678 q 185 929 119 862 q 344 1035 252 996 q 536 1074 436 1074 q 771 1020 661 1074 q 956 872 881 966 l 917 843 m 585 55 l 585 -119 l 634 -119 l 634 60 l 585 55 m 634 1088 l 634 1248 l 585 1248 l 585 1095 l 634 1088 m 439 63 l 439 -119 l 488 -119 l 488 54 l 439 63 m 488 1093 l 488 1248 l 439 1248 l 439 1085 l 488 1093 "},"":{"ha":958,"x_min":56,"x_max":932,"o":"m 426 610 l 789 610 l 789 659 l 426 659 l 426 610 m 426 512 l 789 512 l 789 561 l 426 561 l 426 512 m 425 414 l 789 414 l 789 463 l 425 463 l 425 414 m 300 781 q 348 887 300 847 q 497 928 395 928 q 741 869 656 928 l 779 899 q 657 957 731 937 q 497 977 583 977 q 313 922 374 977 q 252 781 252 868 l 252 0 l 300 0 l 300 781 m 203 781 q 278 957 203 888 q 497 1025 354 1025 q 678 1000 594 1025 q 818 930 762 975 l 856 960 q 700 1044 793 1015 q 497 1074 606 1074 q 244 991 334 1074 q 154 781 154 908 l 154 0 l 203 0 l 203 781 m 105 781 q 131 914 105 852 q 206 1023 157 976 q 329 1096 254 1069 q 497 1123 404 1123 q 720 1089 616 1123 q 892 992 823 1055 l 932 1021 q 742 1132 856 1093 q 497 1172 628 1172 q 342 1152 414 1172 q 219 1096 271 1132 q 130 1012 167 1061 q 75 905 93 963 q 56 781 56 846 l 56 0 l 105 0 l 105 781 m 349 0 l 789 0 l 789 49 l 398 49 l 398 98 l 789 98 l 789 146 l 398 146 l 398 195 l 789 195 l 789 244 l 398 244 l 398 781 q 418 817 398 804 q 497 830 439 830 q 664 808 616 830 l 703 838 q 497 879 634 879 q 349 781 349 879 l 349 0 "},"":{"ha":994,"x_min":32,"x_max":962,"o":"m 204 770 l 72 938 l 32 909 l 173 730 l 204 770 m 637 136 l 765 -27 l 804 2 l 681 159 l 637 136 m 277 833 l 150 996 l 111 967 l 238 805 l 277 833 m 723 184 l 844 31 l 883 60 l 761 215 l 723 184 m 368 876 l 229 1053 l 190 1025 l 319 860 l 368 876 m 795 250 l 922 89 l 962 117 l 826 291 l 795 250 m 336 673 q 497 734 394 734 q 658 673 600 734 q 715 509 715 612 q 658 345 715 406 q 497 283 600 283 q 336 345 394 283 q 279 509 279 406 q 308 642 279 612 q 336 673 336 673 m 302 310 q 497 235 374 235 q 692 310 620 235 q 764 509 764 386 q 692 707 764 631 q 497 783 620 783 q 302 707 374 783 q 230 509 230 631 q 266 348 230 386 q 302 310 302 310 m 268 742 q 497 831 354 831 q 727 742 640 831 q 813 509 813 652 q 727 276 813 366 q 497 186 640 186 q 268 276 354 186 q 181 509 181 366 q 224 697 181 652 q 268 742 268 742 m 233 241 q 497 137 334 137 q 761 241 660 137 q 862 509 862 346 q 761 776 862 671 q 497 880 660 880 q 233 776 334 880 q 132 509 132 671 q 183 294 132 346 q 233 241 233 241 m 821 730 l 962 909 l 922 938 l 790 770 l 821 730 m 313 159 l 190 2 l 229 -27 l 357 136 l 313 159 m 756 805 l 883 967 l 844 996 l 717 833 l 756 805 m 233 215 l 111 60 l 151 31 l 271 184 l 233 215 m 675 860 l 804 1025 l 765 1053 l 626 876 l 675 860 m 168 291 l 32 117 l 72 89 l 199 250 l 168 291 "},"":{"ha":1107,"x_min":29,"x_max":1078,"o":"m 444 565 l 176 1123 l 127 1123 l 420 511 l 444 565 m 493 672 l 273 1123 l 224 1123 l 468 618 l 493 672 m 542 779 l 371 1123 l 322 1123 l 517 725 l 542 779 m 747 195 l 943 195 l 943 244 l 747 244 l 747 195 m 747 293 l 943 293 l 943 342 l 747 342 l 747 293 m 161 195 l 357 195 l 357 244 l 161 244 l 161 195 m 161 293 l 357 293 l 357 342 l 161 342 l 161 293 m 480 378 l 480 0 l 529 0 l 529 378 l 882 1123 l 833 1123 l 480 378 m 578 378 l 578 0 l 627 0 l 627 378 l 980 1123 l 931 1123 l 578 378 m 675 378 l 675 0 l 724 0 l 724 378 l 1078 1123 l 1029 1123 l 675 378 m 407 430 l 78 1123 l 29 1123 l 382 378 l 382 0 l 431 0 l 431 378 l 785 1123 l 736 1123 l 407 430 "},"":{"ha":366,"x_min":61,"x_max":305,"o":"m 256 391 l 256 -148 l 305 -148 l 305 391 l 256 391 m 159 391 l 159 -148 l 208 -148 l 208 391 l 159 391 m 61 391 l 61 -148 l 110 -148 l 110 391 l 61 391 m 256 1123 l 256 586 l 305 586 l 305 1123 l 256 1123 m 159 1123 l 159 586 l 208 586 l 208 1123 l 159 1123 m 61 1123 l 61 586 l 110 586 l 110 1123 l 61 1123 "},"":{"ha":151,"x_min":0,"x_max":0,"o":""},"":{"ha":773,"x_min":56,"x_max":717,"o":"m 668 1177 l 668 1025 l 717 1025 l 717 1177 l 668 1177 m 570 1177 l 570 1025 l 619 1025 l 619 1177 l 570 1177 m 473 1177 l 473 1025 l 522 1025 l 522 1177 l 473 1177 m 252 1177 l 252 1025 l 300 1025 l 300 1177 l 252 1177 m 154 1177 l 154 1025 l 203 1025 l 203 1177 l 154 1177 m 56 1177 l 56 1025 l 105 1025 l 105 1177 l 56 1177 "},"":{"ha":1208,"x_min":43,"x_max":1166,"o":"m 847 425 q 744 341 806 372 q 612 311 682 311 q 465 351 532 311 q 358 460 397 391 q 319 610 319 529 q 358 761 319 692 q 465 871 397 831 q 612 911 532 911 q 744 880 682 911 q 848 796 806 850 l 904 841 q 775 945 852 907 q 612 983 699 983 q 425 933 511 983 q 289 797 339 883 q 239 610 239 711 q 289 424 239 509 q 425 289 339 338 q 612 239 511 239 q 775 277 699 239 q 904 380 852 315 l 847 425 m 157 802 q 260 959 195 893 q 415 1064 326 1025 q 604 1103 505 1103 q 793 1064 703 1103 q 948 959 883 1025 q 1052 802 1013 893 q 1090 610 1090 711 q 1052 419 1090 510 q 948 261 1013 328 q 793 156 883 195 q 604 117 703 117 q 415 156 505 117 q 260 261 326 195 q 157 419 195 328 q 118 610 118 510 q 137 756 118 711 q 157 802 157 802 m 87 392 q 207 213 132 288 q 386 93 282 138 q 604 49 490 49 q 822 93 718 49 q 1002 213 926 138 q 1121 392 1077 288 q 1166 610 1166 496 q 1121 828 1166 724 q 1002 1008 1077 932 q 822 1127 926 1083 q 604 1172 718 1172 q 386 1127 490 1172 q 207 1008 282 1083 q 87 828 132 932 q 43 610 43 724 q 65 444 43 496 q 87 392 87 392 "},"":{"ha":1158,"x_min":45,"x_max":1106,"o":"m 764 481 l 764 0 l 813 0 l 813 481 q 746 651 813 589 q 569 712 678 712 q 404 647 470 712 q 338 488 338 582 q 359 381 338 428 q 415 308 380 335 q 493 268 450 281 q 585 255 536 255 q 727 290 661 255 l 727 338 q 586 300 663 300 q 526 307 554 300 q 472 327 498 313 q 428 362 446 340 q 398 415 409 383 q 387 488 387 448 q 441 612 387 560 q 569 663 494 663 q 711 616 657 663 q 764 481 764 568 m 911 481 q 866 655 911 580 q 744 770 821 730 q 569 810 667 810 q 335 716 430 810 q 241 488 241 622 q 269 346 241 410 q 344 243 296 283 q 452 183 391 203 q 579 162 512 162 q 727 193 654 162 l 727 244 q 580 208 657 208 q 472 225 523 208 q 379 276 420 243 q 314 364 338 309 q 290 488 290 419 q 370 682 290 602 q 569 761 450 761 q 780 685 698 761 q 862 481 862 610 l 862 0 l 911 0 l 911 481 m 1008 481 q 951 704 1008 606 q 793 854 893 802 q 569 907 693 907 q 401 874 480 907 q 265 785 321 841 q 176 651 209 728 q 143 488 143 574 q 202 271 143 368 q 359 121 261 174 q 575 68 458 68 q 727 98 650 68 l 727 147 q 576 115 653 115 q 432 141 501 115 q 310 212 363 166 q 224 330 256 258 q 192 488 192 401 q 241 674 192 589 q 377 809 290 759 q 569 859 464 859 q 768 812 680 859 q 908 680 857 766 q 960 481 960 593 l 960 0 l 1008 0 l 1008 481 m 1106 481 q 1065 696 1106 597 q 951 862 1023 794 q 781 967 880 929 q 569 1005 682 1005 q 360 964 458 1005 q 194 853 262 923 q 85 689 125 784 q 45 488 45 593 q 74 315 45 397 q 153 171 102 233 q 269 65 203 110 q 413 -3 335 20 q 572 -26 490 -26 q 727 0 652 -26 l 727 50 q 575 20 655 20 q 432 41 503 20 q 301 102 362 62 q 194 199 241 143 q 121 330 148 255 q 94 488 94 405 q 157 723 94 615 q 328 893 219 830 q 569 956 437 956 q 817 897 706 956 q 993 729 928 838 q 1057 481 1057 620 l 1057 0 l 1106 0 l 1106 481 "},"":{"ha":1266,"x_min":53,"x_max":1210,"o":"m 1210 427 l 1050 490 l 983 464 l 1210 374 l 1210 427 m 1210 321 l 917 437 l 854 410 l 1210 269 l 1210 321 m 1210 852 l 673 640 l 673 587 l 1210 800 l 1210 852 m 1210 747 l 673 534 l 673 482 l 1210 694 l 1210 747 m 1210 642 l 673 430 l 673 377 l 1210 165 l 1210 217 l 739 404 l 1210 590 l 1210 642 m 590 427 l 431 490 l 363 464 l 590 374 l 590 427 m 590 321 l 297 437 l 235 410 l 590 269 l 590 321 m 590 852 l 53 640 l 53 587 l 590 800 l 590 852 m 590 747 l 53 534 l 53 482 l 590 694 l 590 747 m 590 642 l 53 430 l 53 377 l 590 165 l 590 217 l 119 404 l 590 590 l 590 642 "},"":{"ha":998,"x_min":58,"x_max":937,"o":"m 888 732 l 888 293 l 937 293 l 937 732 l 888 732 m 791 732 l 791 293 l 840 293 l 840 732 l 791 732 m 693 684 l 693 635 l 58 635 l 58 586 l 693 586 l 693 537 l 58 537 l 58 488 l 693 488 l 693 293 l 742 293 l 742 732 l 58 732 l 58 684 l 693 684 "},"":{"ha":1208,"x_min":43,"x_max":1166,"o":"m 681 843 q 759 810 726 843 q 791 732 791 778 q 759 655 791 687 q 681 623 726 623 l 461 623 l 461 843 l 681 843 m 846 293 l 719 555 q 828 618 785 568 q 870 732 870 668 q 814 861 870 807 q 681 915 759 915 l 382 915 l 382 293 l 461 293 l 461 550 q 537 550 479 550 q 635 551 595 551 l 756 293 l 846 293 m 157 802 q 260 959 195 893 q 415 1064 326 1025 q 604 1103 505 1103 q 793 1064 703 1103 q 948 959 883 1025 q 1052 802 1013 893 q 1090 610 1090 711 q 1052 419 1090 510 q 948 261 1013 328 q 793 156 883 195 q 604 117 703 117 q 415 156 505 117 q 260 261 326 195 q 157 419 195 328 q 118 610 118 510 q 137 756 118 711 q 157 802 157 802 m 87 392 q 207 213 132 288 q 386 93 282 138 q 604 49 490 49 q 822 93 718 49 q 1002 213 926 138 q 1121 392 1077 288 q 1166 610 1166 496 q 1121 828 1166 724 q 1002 1008 1077 932 q 822 1127 926 1083 q 604 1172 718 1172 q 386 1127 490 1172 q 207 1008 282 1083 q 87 828 132 932 q 43 610 43 724 q 65 444 43 496 q 87 392 87 392 "},"":{"ha":459,"x_min":45,"x_max":414,"o":"m 128 1358 q 230 1400 170 1400 q 332 1358 290 1400 q 374 1256 374 1316 q 332 1154 374 1196 q 230 1112 290 1112 q 128 1154 170 1112 q 85 1256 85 1196 q 107 1337 85 1316 q 128 1358 128 1358 m 99 1127 q 230 1074 153 1074 q 360 1127 307 1074 q 414 1256 414 1180 q 360 1385 414 1332 q 230 1438 307 1438 q 99 1385 153 1438 q 45 1256 45 1332 q 72 1154 45 1180 q 99 1127 99 1127 m 180 1305 q 230 1326 201 1326 q 279 1305 259 1326 q 300 1256 300 1285 q 279 1206 300 1227 q 230 1186 259 1186 q 180 1206 201 1186 q 160 1256 160 1227 q 170 1295 160 1285 q 180 1305 180 1305 m 152 1180 q 230 1149 184 1149 q 308 1180 275 1149 q 340 1256 340 1212 q 308 1332 340 1300 q 230 1363 275 1363 q 152 1332 184 1363 q 120 1256 120 1300 q 136 1196 120 1212 q 152 1180 152 1180 "},"":{"ha":831,"x_min":50,"x_max":782,"o":"m 749 194 l 96 194 l 96 145 l 749 145 l 749 194 m 749 96 l 96 96 l 96 47 l 749 47 l 749 96 m 50 635 l 252 635 l 252 587 l 50 587 l 50 538 l 252 538 l 252 489 l 50 489 l 50 440 l 252 440 l 252 245 l 300 245 l 300 880 l 252 880 l 252 684 l 50 684 l 50 635 m 545 880 l 545 245 l 593 245 l 593 440 l 782 440 l 782 489 l 593 489 l 593 538 l 782 538 l 782 587 l 593 587 l 593 635 l 782 635 l 782 684 l 593 684 l 593 880 l 545 880 m 447 880 l 447 245 l 496 245 l 496 880 l 447 880 m 349 880 l 349 245 l 398 245 l 398 880 l 349 880 "},"":{"ha":604,"x_min":41,"x_max":570,"o":"m 41 341 l 526 341 l 526 390 l 41 390 l 41 341 m 41 243 l 526 243 l 526 292 l 41 292 l 41 243 m 116 417 q 284 642 184 509 q 437 852 408 807 q 467 927 467 898 q 455 976 467 956 q 419 1007 443 996 q 368 1022 396 1017 q 300 1026 339 1026 q 168 1014 237 1026 q 82 995 99 1002 l 92 948 q 304 976 198 976 q 391 967 368 976 q 415 927 415 959 q 387 863 415 905 q 242 664 358 821 q 59 417 134 519 l 116 417 m 231 417 q 249 442 239 429 q 265 463 259 455 q 282 486 271 471 q 528 827 487 764 q 570 934 570 891 q 548 1024 570 986 q 488 1082 526 1061 q 404 1113 450 1103 q 304 1122 359 1122 q 63 1086 179 1122 l 73 1040 q 171 1063 104 1051 q 303 1074 238 1074 q 516 934 516 1074 q 514 913 516 923 q 450 798 507 879 q 170 417 422 758 l 231 417 "},"":{"ha":716,"x_min":35,"x_max":676,"o":"m 332 372 q 439 397 397 372 q 481 473 481 422 q 439 543 481 521 q 336 564 398 564 l 187 564 l 187 515 l 335 515 q 432 473 432 515 q 332 420 432 420 q 102 437 191 420 l 92 392 q 332 372 200 372 m 432 774 q 440 819 440 789 q 398 900 440 873 q 291 927 357 927 q 73 901 164 927 l 83 856 q 291 878 156 878 q 391 819 391 878 q 385 785 391 795 l 432 774 m 64 947 q 291 976 165 976 q 433 935 376 976 q 489 819 489 893 q 477 760 489 786 l 523 742 q 538 819 538 780 q 467 969 538 914 q 291 1025 397 1025 q 54 995 158 1025 l 64 947 m 607 696 q 635 819 635 753 q 589 979 635 909 q 464 1086 542 1049 q 291 1122 386 1122 q 35 1090 152 1122 l 45 1041 q 291 1074 163 1074 q 502 1004 417 1074 q 587 819 587 935 q 567 720 587 767 l 607 696 m 332 323 q 83 346 201 323 l 73 298 q 332 274 193 274 q 508 327 437 274 q 578 473 578 380 q 509 611 578 559 q 342 662 440 662 l 187 662 l 187 613 l 341 613 q 474 576 419 613 q 530 473 530 539 q 473 362 530 402 q 332 323 417 323 m 332 225 q 64 252 197 225 l 54 203 q 332 176 188 176 q 505 212 427 176 q 629 317 583 248 q 676 473 676 385 q 632 618 676 552 q 511 722 587 684 q 346 760 435 760 l 187 760 l 187 711 l 345 711 q 544 646 461 711 q 627 473 627 581 q 543 293 627 360 q 332 225 458 225 "},"":{"ha":656,"x_min":47,"x_max":616,"o":"m 86 1059 l 538 1280 l 500 1315 l 47 1094 l 86 1059 m 163 988 l 616 1208 l 576 1244 l 125 1023 l 163 988 "},"":{"ha":1114,"x_min":65,"x_max":1058,"o":"m 358 977 l 358 -146 l 407 -146 l 407 977 l 358 977 m 260 977 l 260 -146 l 309 -146 l 309 977 l 260 977 m 163 977 l 163 -146 l 212 -146 l 212 977 l 163 977 m 65 977 l 65 -146 l 114 -146 l 114 977 l 65 977 m 435 261 q 563 244 479 244 q 705 299 646 244 q 765 433 765 355 l 765 977 l 716 977 l 716 433 q 671 334 716 376 q 563 293 627 293 q 435 313 470 293 l 435 261 m 435 159 q 563 146 474 146 q 775 231 687 146 q 863 433 863 315 l 863 977 l 814 977 l 814 433 q 740 265 814 334 q 563 195 666 195 q 435 212 482 195 l 435 159 m 435 60 q 563 49 485 49 q 762 101 671 49 q 907 241 854 153 q 960 433 960 329 l 960 977 l 911 977 l 911 433 q 864 264 911 342 q 737 142 817 187 q 563 98 656 98 q 435 112 475 98 l 435 60 m 435 -39 q 563 -49 487 -49 q 754 -11 663 -49 q 912 92 846 28 q 1019 246 979 157 q 1058 433 1058 335 l 1058 977 l 1009 977 l 1009 433 q 949 216 1009 315 q 786 58 888 116 q 563 0 683 0 q 435 12 493 0 l 435 -39 "},"":{"ha":939,"x_min":45,"x_max":876,"o":"m 534 557 l 436 557 q 387 600 387 557 q 401 625 387 614 q 436 635 416 635 l 534 635 l 534 557 m 338 600 q 436 509 338 509 l 534 509 l 534 460 l 436 460 q 332 496 375 460 q 290 600 290 533 q 334 692 290 651 q 436 732 379 732 l 631 732 l 631 -98 l 583 -98 l 583 684 l 436 684 q 367 659 396 684 q 338 600 338 634 m 827 -98 l 778 -98 l 778 879 l 436 879 q 231 795 318 879 q 143 600 143 711 q 230 395 143 477 q 436 313 316 313 l 534 313 l 534 264 l 436 264 q 266 308 345 264 q 141 429 188 351 q 94 600 94 506 q 141 762 94 686 q 266 883 187 838 q 436 928 345 928 l 827 928 l 827 -98 m 680 -146 l 680 781 l 436 781 q 299 726 358 781 q 241 600 241 671 q 298 462 241 513 q 436 411 355 411 l 534 411 l 534 362 l 436 362 q 264 429 336 362 q 192 600 192 495 q 265 761 192 691 q 436 830 338 830 l 729 830 l 729 -146 l 876 -146 l 876 977 l 436 977 q 287 946 359 977 q 161 864 214 916 q 77 744 109 813 q 45 600 45 674 q 77 439 45 512 q 161 317 108 366 q 286 242 215 269 q 436 216 357 216 l 534 216 l 534 -146 l 680 -146 "},"":{"ha":361,"x_min":58,"x_max":302,"o":"m 58 732 l 302 732 l 302 781 l 58 781 l 58 732 m 58 635 l 302 635 l 302 684 l 58 684 l 58 635 m 58 537 l 302 537 l 302 586 l 58 586 l 58 537 "},"":{"ha":447,"x_min":64,"x_max":378,"o":"m 162 -344 q 169 -371 163 -353 q 187 -398 176 -388 q 223 -416 199 -408 q 281 -424 247 -424 l 378 -424 l 378 -375 l 281 -375 q 240 -371 256 -375 q 219 -356 225 -366 q 212 -339 213 -347 q 210 -318 210 -332 q 212 -297 210 -304 q 219 -280 213 -290 q 240 -266 225 -270 q 281 -261 256 -261 l 378 -261 l 378 -74 l 330 -74 l 330 -212 l 281 -212 q 223 -220 247 -212 q 187 -238 199 -229 q 169 -266 176 -248 q 162 -292 163 -283 q 161 -318 161 -302 q 162 -339 161 -334 q 162 -344 162 -344 m 64 -318 q 64 -347 64 -336 q 66 -376 64 -357 q 72 -407 68 -395 q 83 -436 76 -419 q 101 -464 91 -453 q 129 -487 112 -475 q 166 -506 145 -498 q 216 -517 187 -513 q 281 -522 245 -522 l 378 -522 l 378 -473 l 281 -473 q 219 -468 245 -473 q 174 -456 192 -463 q 144 -436 156 -449 q 125 -412 132 -422 q 116 -382 119 -401 q 113 -351 113 -363 q 113 -318 113 -339 q 115 -266 113 -286 q 128 -224 118 -245 q 155 -191 138 -203 q 204 -171 173 -179 q 281 -163 236 -163 l 281 -74 l 232 -74 l 232 -122 q 153 -137 186 -123 q 103 -171 120 -151 q 77 -219 86 -190 q 65 -270 67 -249 q 64 -318 64 -290 "},"":{"ha":499,"x_min":40,"x_max":437,"o":"m 40 977 l 193 977 l 193 342 l 242 342 l 242 977 l 291 977 l 291 342 l 340 342 l 340 977 l 389 977 l 389 342 l 437 342 l 437 1025 l 40 1025 l 40 977 m 40 1074 l 437 1074 l 437 1123 l 40 1123 l 40 1074 "},"":{"ha":1161,"x_min":44,"x_max":1118,"o":"m 443 626 q 581 684 500 684 q 719 626 662 684 q 777 488 777 569 q 719 350 777 408 q 581 293 662 293 q 443 350 500 293 q 386 488 386 408 q 415 598 386 569 q 443 626 443 626 m 409 316 q 581 244 480 244 q 754 316 682 244 q 825 488 825 387 q 754 661 825 589 q 581 732 682 732 q 409 661 480 732 q 337 488 337 589 q 373 351 337 387 q 409 316 409 316 m 374 695 q 581 781 460 781 q 788 695 703 781 q 874 488 874 609 q 788 281 874 368 q 581 195 703 195 q 374 281 460 195 q 288 488 288 368 q 331 652 288 609 q 374 695 374 695 m 285 317 q 410 192 331 238 q 581 146 488 146 q 753 192 674 146 q 877 317 831 238 q 923 488 923 395 q 877 660 923 581 q 753 784 831 739 q 581 830 674 830 q 410 784 488 830 q 285 660 331 739 q 239 488 239 581 q 262 356 239 395 q 285 317 285 317 m 221 640 q 305 765 252 712 q 430 848 357 817 q 581 879 502 879 q 733 848 661 879 q 858 765 805 817 q 941 640 910 712 q 972 488 972 568 q 941 337 972 409 q 858 212 910 264 q 733 129 805 159 q 581 98 661 98 q 430 129 502 98 q 305 212 357 159 q 221 337 252 264 q 191 488 191 409 q 206 604 191 568 q 221 640 221 640 m 177 317 q 270 177 212 236 q 410 84 329 119 q 581 49 492 49 q 752 84 671 49 q 892 177 833 119 q 986 317 951 236 q 1021 488 1021 399 q 986 659 1021 578 q 892 799 951 741 q 752 893 833 858 q 581 928 671 928 q 410 893 492 928 q 270 799 329 858 q 177 659 212 741 q 142 488 142 578 q 159 358 142 399 q 177 317 177 317 m 132 678 q 236 834 170 768 q 392 938 301 899 q 581 977 482 977 q 771 938 680 977 q 927 834 861 899 q 1031 678 992 768 q 1069 488 1069 587 q 1031 299 1069 389 q 927 143 992 208 q 771 39 861 77 q 581 0 680 0 q 392 39 482 0 q 236 143 301 77 q 132 299 170 208 q 93 488 93 389 q 112 633 93 587 q 132 678 132 678 m 87 280 q 201 109 130 180 q 373 -6 273 37 q 581 -49 472 -49 q 790 -6 690 -49 q 961 109 889 37 q 1076 280 1033 180 q 1118 488 1118 379 q 1076 697 1118 597 q 961 868 1033 796 q 790 983 889 940 q 581 1025 690 1025 q 373 983 472 1025 q 201 868 273 940 q 87 697 130 796 q 44 488 44 597 q 65 329 44 379 q 87 280 87 280 "},"":{"ha":1267,"x_min":58,"x_max":1215,"o":"m 677 590 l 1149 404 l 677 217 l 677 165 l 1215 377 l 1215 430 l 677 642 l 677 590 m 677 694 l 1215 482 l 1215 534 l 677 747 l 677 694 m 677 800 l 1215 587 l 1215 640 l 677 852 l 677 800 m 677 269 l 1033 410 l 970 437 l 677 321 l 677 269 m 677 374 l 904 464 l 837 490 l 677 427 l 677 374 m 58 590 l 529 404 l 58 217 l 58 165 l 595 377 l 595 430 l 58 642 l 58 590 m 58 694 l 595 482 l 595 534 l 58 747 l 58 694 m 58 800 l 595 587 l 595 640 l 58 852 l 58 800 m 58 269 l 413 410 l 351 437 l 58 321 l 58 269 m 58 374 l 284 464 l 217 490 l 58 427 l 58 374 "},"":{"ha":1717,"x_min":34,"x_max":1685,"o":"m 1513 1 l 1513 122 l 1464 122 l 1464 1 l 1513 1 m 1611 1 l 1611 122 l 1562 122 l 1562 1 l 1611 1 m 1513 415 l 1513 560 l 1464 560 l 1464 415 l 1513 415 m 1611 415 l 1611 560 l 1562 560 l 1562 415 l 1611 415 m 1038 342 l 1685 342 l 1685 391 l 1038 391 l 1038 342 m 1038 245 l 1685 245 l 1685 294 l 1038 294 l 1038 245 m 1038 147 l 1685 147 l 1685 196 l 1038 196 l 1038 147 m 1267 903 l 1037 416 l 1094 416 l 1323 903 l 1267 903 m 1378 903 l 1147 416 l 1204 416 l 1432 903 l 1378 903 m 1487 903 l 1261 416 l 1318 416 l 1543 903 l 1487 903 m 985 1122 l 671 -132 l 721 -132 l 1036 1122 l 985 1122 m 884 1122 l 570 -132 l 620 -132 l 935 1122 l 884 1122 m 782 1122 l 468 -132 l 519 -132 l 833 1122 l 782 1122 m 34 977 l 187 977 l 187 342 l 236 342 l 236 977 l 285 977 l 285 342 l 334 342 l 334 977 l 382 977 l 382 342 l 431 342 l 431 1025 l 34 1025 l 34 977 m 34 1074 l 431 1074 l 431 1123 l 34 1123 l 34 1074 "},"":{"ha":1604,"x_min":34,"x_max":1567,"o":"m 1038 98 l 1522 98 l 1522 147 l 1038 147 l 1038 98 m 1038 1 l 1522 1 l 1522 50 l 1038 50 l 1038 1 m 1113 174 q 1281 399 1181 266 q 1434 610 1404 564 q 1464 684 1464 655 q 1452 733 1464 713 q 1416 764 1440 753 q 1364 779 1393 774 q 1297 783 1336 783 q 1165 771 1234 783 q 1079 752 1096 760 l 1089 705 q 1301 733 1195 733 q 1388 725 1364 733 q 1412 684 1412 716 q 1383 620 1412 663 q 1239 421 1355 578 q 1056 174 1131 277 l 1113 174 m 1228 174 q 1246 199 1236 186 q 1262 220 1256 212 q 1279 243 1268 229 q 1525 585 1484 521 q 1567 691 1567 648 q 1545 781 1567 743 q 1485 840 1523 819 q 1401 870 1447 861 q 1301 880 1356 880 q 1060 844 1176 880 l 1069 797 q 1168 820 1101 808 q 1300 831 1235 831 q 1513 691 1513 831 q 1511 671 1513 680 q 1447 555 1504 636 q 1166 174 1419 515 l 1228 174 m 985 1122 l 671 -132 l 721 -132 l 1036 1122 l 985 1122 m 884 1122 l 570 -132 l 620 -132 l 935 1122 l 884 1122 m 782 1122 l 468 -132 l 519 -132 l 833 1122 l 782 1122 m 34 977 l 187 977 l 187 342 l 236 342 l 236 977 l 285 977 l 285 342 l 334 342 l 334 977 l 382 977 l 382 342 l 431 342 l 431 1025 l 34 1025 l 34 977 m 34 1074 l 431 1074 l 431 1123 l 34 1123 l 34 1074 "},"":{"ha":1868,"x_min":32,"x_max":1836,"o":"m 1664 1 l 1664 122 l 1615 122 l 1615 1 l 1664 1 m 1762 1 l 1762 122 l 1713 122 l 1713 1 l 1762 1 m 1664 415 l 1664 560 l 1615 560 l 1615 415 l 1664 415 m 1762 415 l 1762 560 l 1713 560 l 1713 415 l 1762 415 m 1190 342 l 1836 342 l 1836 391 l 1190 391 l 1190 342 m 1190 245 l 1836 245 l 1836 294 l 1190 294 l 1190 245 m 1190 147 l 1836 147 l 1836 196 l 1190 196 l 1190 147 m 1418 903 l 1188 416 l 1245 416 l 1474 903 l 1418 903 m 1529 903 l 1299 416 l 1356 416 l 1584 903 l 1529 903 m 1638 903 l 1412 416 l 1469 416 l 1694 903 l 1638 903 m 1178 1122 l 863 -132 l 913 -132 l 1228 1122 l 1178 1122 m 1076 1122 l 762 -132 l 812 -132 l 1127 1122 l 1076 1122 m 975 1122 l 661 -132 l 711 -132 l 1025 1122 l 975 1122 m 329 372 q 436 397 395 372 q 478 473 478 422 q 437 543 478 521 q 333 564 395 564 l 184 564 l 184 515 l 332 515 q 429 473 429 515 q 329 420 429 420 q 99 437 188 420 l 90 392 q 329 372 197 372 m 429 774 q 437 819 437 789 q 396 900 437 873 q 288 927 354 927 q 71 901 161 927 l 80 856 q 288 878 153 878 q 389 819 389 878 q 382 785 389 795 l 429 774 m 61 947 q 288 976 161 976 q 430 935 374 976 q 486 819 486 893 q 475 760 486 786 l 520 742 q 535 819 535 780 q 465 969 535 914 q 288 1025 394 1025 q 52 995 155 1025 l 61 947 m 604 696 q 633 819 633 753 q 586 979 633 909 q 461 1086 539 1049 q 288 1122 383 1122 q 32 1090 149 1122 l 42 1041 q 288 1074 160 1074 q 499 1004 414 1074 q 584 819 584 935 q 564 720 584 767 l 604 696 m 329 323 q 80 346 199 323 l 71 298 q 329 274 191 274 q 505 327 435 274 q 576 473 576 380 q 507 611 576 559 q 339 662 437 662 l 184 662 l 184 613 l 338 613 q 472 576 416 613 q 527 473 527 539 q 471 362 527 402 q 329 323 414 323 m 329 225 q 61 252 195 225 l 51 203 q 329 176 185 176 q 502 212 424 176 q 627 317 580 248 q 673 473 673 385 q 629 618 673 552 q 509 722 585 684 q 343 760 433 760 l 184 760 l 184 711 l 342 711 q 542 646 458 711 q 625 473 625 581 q 540 293 625 360 q 329 225 455 225 "},"":{"ha":964,"x_min":28,"x_max":924,"o":"m 448 1123 q 613 1098 535 1123 q 749 1027 692 1072 q 841 915 807 981 q 875 770 875 848 q 845 627 875 693 q 767 516 816 560 q 657 448 719 473 q 530 424 595 424 l 427 424 l 427 378 q 460 379 441 379 q 502 378 480 379 q 532 378 524 378 q 680 406 610 378 q 805 484 751 434 q 891 608 859 534 q 924 770 924 683 q 886 934 924 859 q 784 1062 848 1010 q 632 1143 720 1114 q 448 1172 545 1172 q 211 1132 321 1172 q 28 1021 102 1093 l 67 992 q 234 1089 134 1055 q 448 1123 333 1123 m 448 1025 q 683 956 588 1025 q 777 770 777 886 q 740 633 777 692 q 644 547 703 575 q 515 519 585 519 q 427 517 474 519 l 427 468 q 516 473 473 473 q 672 511 601 473 q 784 617 743 549 q 826 770 826 686 q 775 931 826 861 q 638 1038 724 1001 q 448 1074 552 1074 q 254 1044 343 1074 q 104 960 164 1015 l 142 930 q 276 1001 196 976 q 448 1025 355 1025 m 448 928 q 614 886 548 928 q 680 770 680 845 q 629 653 680 694 q 505 612 578 612 q 427 614 466 612 l 427 563 q 505 566 475 566 q 664 621 599 566 q 728 770 728 675 q 648 921 728 866 q 448 977 568 977 q 180 899 275 977 l 219 869 q 448 928 300 928 m 448 830 q 582 770 582 830 q 557 720 582 736 q 492 705 532 705 q 427 709 450 705 l 427 660 q 492 659 448 659 q 591 686 552 659 q 631 770 631 713 q 579 852 631 825 q 448 879 528 879 q 256 838 322 879 l 296 808 q 448 830 340 830 m 421 50 l 123 50 l 123 1 l 421 1 l 421 50 m 421 147 l 123 147 l 123 98 l 421 98 l 421 147 m 421 245 l 123 245 l 123 196 l 421 196 l 421 245 m 199 293 l 199 705 l 151 705 l 151 293 l 199 293 m 297 293 l 297 705 l 248 705 l 248 293 l 297 293 m 395 293 l 395 705 l 346 705 l 346 293 l 395 293 "},"":{"ha":1301,"x_min":22,"x_max":1278,"o":"m 727 1312 l 275 1533 l 313 1568 l 766 1347 l 727 1312 m 650 1241 l 197 1461 l 237 1497 l 688 1276 l 650 1241 m 548 330 l 754 330 l 734 378 l 568 378 l 548 330 m 510 232 l 793 232 l 772 281 l 529 281 l 510 232 m 472 134 l 831 134 l 811 183 l 491 183 l 472 134 m 75 0 l 493 1057 l 911 0 l 963 0 l 519 1123 l 467 1123 l 22 0 l 75 0 m 499 941 l 127 0 l 180 0 l 527 879 l 499 941 m 553 812 l 233 0 l 286 0 l 579 745 l 553 812 m 605 678 l 338 0 l 390 0 l 631 610 l 605 678 m 1278 0 l 834 1123 l 782 1123 l 1225 0 l 1278 0 m 729 1123 l 677 1123 l 1121 0 l 1173 0 l 729 1123 m 624 1123 l 572 1123 l 1015 0 l 1068 0 l 624 1123 "},"":{"ha":1301,"x_min":22,"x_max":1278,"o":"m 573 1312 l 1025 1533 l 987 1568 l 534 1347 l 573 1312 m 650 1241 l 1103 1461 l 1063 1497 l 612 1276 l 650 1241 m 548 330 l 754 330 l 734 378 l 568 378 l 548 330 m 510 232 l 793 232 l 772 281 l 529 281 l 510 232 m 472 134 l 831 134 l 811 183 l 491 183 l 472 134 m 75 0 l 493 1057 l 911 0 l 963 0 l 519 1123 l 467 1123 l 22 0 l 75 0 m 499 941 l 127 0 l 180 0 l 527 879 l 499 941 m 553 812 l 233 0 l 286 0 l 579 745 l 553 812 m 605 678 l 338 0 l 390 0 l 631 610 l 605 678 m 1278 0 l 834 1123 l 782 1123 l 1225 0 l 1278 0 m 729 1123 l 677 1123 l 1121 0 l 1173 0 l 729 1123 m 624 1123 l 572 1123 l 1015 0 l 1068 0 l 624 1123 "},"":{"ha":1301,"x_min":22,"x_max":1278,"o":"m 860 1241 l 808 1241 l 677 1572 l 729 1572 l 860 1241 m 598 1241 l 545 1241 l 604 1390 l 632 1328 l 598 1241 m 493 1241 l 441 1241 l 572 1572 l 625 1572 l 755 1241 l 703 1241 l 597 1507 l 493 1241 m 548 330 l 754 330 l 734 378 l 568 378 l 548 330 m 510 232 l 793 232 l 772 281 l 529 281 l 510 232 m 472 134 l 831 134 l 811 183 l 491 183 l 472 134 m 75 0 l 493 1057 l 911 0 l 963 0 l 519 1123 l 467 1123 l 22 0 l 75 0 m 499 941 l 127 0 l 180 0 l 527 879 l 499 941 m 553 812 l 233 0 l 286 0 l 579 745 l 553 812 m 605 678 l 338 0 l 390 0 l 631 610 l 605 678 m 1278 0 l 834 1123 l 782 1123 l 1225 0 l 1278 0 m 729 1123 l 677 1123 l 1121 0 l 1173 0 l 729 1123 m 624 1123 l 572 1123 l 1015 0 l 1068 0 l 624 1123 "},"":{"ha":1301,"x_min":22,"x_max":1278,"o":"m 918 1485 q 912 1437 918 1457 q 899 1409 906 1418 q 876 1394 891 1399 q 850 1388 860 1389 q 821 1388 840 1388 l 479 1388 q 456 1387 465 1388 q 430 1384 447 1387 q 401 1376 412 1381 q 376 1360 390 1371 q 353 1334 361 1350 q 339 1295 345 1319 q 333 1241 333 1272 l 382 1241 q 388 1289 382 1270 q 401 1318 394 1308 q 425 1332 409 1327 q 450 1338 440 1337 q 479 1339 460 1339 l 821 1339 q 844 1339 836 1339 q 870 1342 853 1339 q 899 1350 888 1345 q 924 1366 910 1356 q 947 1392 939 1377 q 961 1431 956 1407 q 967 1485 967 1455 l 918 1485 m 1016 1485 q 1012 1427 1016 1453 q 1003 1382 1008 1401 q 987 1348 998 1363 q 967 1324 976 1333 q 942 1308 958 1314 q 915 1297 926 1301 q 884 1292 904 1294 q 853 1290 865 1291 q 821 1290 842 1290 l 479 1290 l 479 1241 l 821 1241 q 855 1241 842 1241 q 890 1244 867 1242 q 928 1251 913 1246 q 962 1263 942 1255 q 996 1283 983 1272 q 1023 1314 1008 1295 q 1046 1356 1038 1333 q 1059 1413 1054 1380 q 1065 1485 1065 1446 l 1016 1485 m 479 1485 q 445 1485 458 1485 q 410 1482 433 1485 q 372 1476 387 1480 q 338 1463 358 1472 q 304 1443 317 1455 q 277 1412 292 1431 q 254 1370 262 1394 q 241 1313 246 1346 q 235 1241 235 1280 l 284 1241 q 288 1299 284 1273 q 297 1344 292 1325 q 313 1378 302 1363 q 333 1402 324 1393 q 358 1419 342 1412 q 385 1429 374 1426 q 416 1434 396 1432 q 447 1436 435 1436 q 479 1436 458 1436 l 821 1436 l 821 1485 l 479 1485 m 548 330 l 754 330 l 734 378 l 568 378 l 548 330 m 510 232 l 793 232 l 772 281 l 529 281 l 510 232 m 472 134 l 831 134 l 811 183 l 491 183 l 472 134 m 75 0 l 493 1057 l 911 0 l 963 0 l 519 1123 l 467 1123 l 22 0 l 75 0 m 499 941 l 127 0 l 180 0 l 527 879 l 499 941 m 553 812 l 233 0 l 286 0 l 579 745 l 553 812 m 605 678 l 338 0 l 390 0 l 631 610 l 605 678 m 1278 0 l 834 1123 l 782 1123 l 1225 0 l 1278 0 m 729 1123 l 677 1123 l 1121 0 l 1173 0 l 729 1123 m 624 1123 l 572 1123 l 1015 0 l 1068 0 l 624 1123 "},"":{"ha":1301,"x_min":22,"x_max":1278,"o":"m 931 1393 l 931 1241 l 980 1241 l 980 1393 l 931 1393 m 833 1393 l 833 1241 l 882 1241 l 882 1393 l 833 1393 m 736 1393 l 736 1241 l 785 1241 l 785 1393 l 736 1393 m 515 1393 l 515 1241 l 564 1241 l 564 1393 l 515 1393 m 417 1393 l 417 1241 l 466 1241 l 466 1393 l 417 1393 m 319 1393 l 319 1241 l 368 1241 l 368 1393 l 319 1393 m 548 330 l 754 330 l 734 378 l 568 378 l 548 330 m 510 232 l 793 232 l 772 281 l 529 281 l 510 232 m 472 134 l 831 134 l 811 183 l 491 183 l 472 134 m 75 0 l 493 1057 l 911 0 l 963 0 l 519 1123 l 467 1123 l 22 0 l 75 0 m 499 941 l 127 0 l 180 0 l 527 879 l 499 941 m 553 812 l 233 0 l 286 0 l 579 745 l 553 812 m 605 678 l 338 0 l 390 0 l 631 610 l 605 678 m 1278 0 l 834 1123 l 782 1123 l 1225 0 l 1278 0 m 729 1123 l 677 1123 l 1121 0 l 1173 0 l 729 1123 m 624 1123 l 572 1123 l 1015 0 l 1068 0 l 624 1123 "},"":{"ha":1301,"x_min":22,"x_max":1278,"o":"m 548 1443 q 650 1486 591 1486 q 752 1443 710 1486 q 795 1341 795 1401 q 752 1239 795 1282 q 650 1197 710 1197 q 548 1239 591 1197 q 506 1341 506 1282 q 527 1422 506 1401 q 548 1443 548 1443 m 520 1213 q 650 1160 574 1160 q 781 1213 727 1160 q 835 1341 835 1265 q 781 1470 835 1417 q 650 1523 727 1523 q 520 1470 574 1523 q 466 1341 466 1417 q 493 1239 466 1265 q 520 1213 520 1213 m 601 1391 q 650 1411 621 1411 q 700 1391 680 1411 q 720 1341 720 1371 q 700 1292 720 1312 q 650 1272 680 1272 q 601 1292 621 1272 q 581 1341 581 1312 q 591 1381 581 1371 q 601 1391 601 1391 m 573 1266 q 650 1234 605 1234 q 728 1266 696 1234 q 760 1341 760 1297 q 728 1417 760 1385 q 650 1449 696 1449 q 573 1417 605 1449 q 541 1341 541 1385 q 557 1282 541 1297 q 573 1266 573 1266 m 548 330 l 754 330 l 734 378 l 568 378 l 548 330 m 510 232 l 793 232 l 772 281 l 529 281 l 510 232 m 472 134 l 831 134 l 811 183 l 491 183 l 472 134 m 75 0 l 493 1057 l 911 0 l 963 0 l 519 1123 l 467 1123 l 22 0 l 75 0 m 499 941 l 127 0 l 180 0 l 527 879 l 499 941 m 553 812 l 233 0 l 286 0 l 579 745 l 553 812 m 605 678 l 338 0 l 390 0 l 631 610 l 605 678 m 1278 0 l 834 1123 l 782 1123 l 1225 0 l 1278 0 m 729 1123 l 677 1123 l 1121 0 l 1173 0 l 729 1123 m 624 1123 l 572 1123 l 1015 0 l 1068 0 l 624 1123 "},"":{"ha":1664,"x_min":23,"x_max":1612,"o":"m 549 330 l 755 330 l 735 378 l 568 378 l 549 330 m 511 232 l 794 232 l 773 281 l 530 281 l 511 232 m 473 134 l 832 134 l 812 183 l 492 183 l 473 134 m 76 0 l 494 1057 l 911 0 l 964 0 l 520 1123 q 467 1123 467 1123 l 23 0 l 76 0 m 500 941 l 128 0 l 180 0 l 528 879 l 500 941 m 554 812 l 233 0 l 286 0 l 580 745 l 554 812 m 606 678 l 338 0 l 391 0 l 631 610 l 606 678 m 730 1123 l 677 1123 l 1122 0 l 1174 0 l 730 1123 m 625 1123 l 572 1123 l 1016 0 l 1069 0 l 625 1123 m 1177 244 l 1097 439 l 1528 439 l 1528 488 l 1083 488 l 1065 537 l 1528 537 l 1528 586 l 1046 586 l 1028 635 l 1528 635 l 1528 684 l 1010 684 l 930 879 l 1612 879 l 1612 928 l 912 928 l 894 977 l 1612 977 l 1612 1025 l 876 1025 l 855 1074 l 1612 1074 l 1612 1123 l 785 1123 l 1219 0 l 1612 0 l 1612 49 l 1253 49 l 1234 98 l 1612 98 l 1612 146 l 1217 146 l 1197 195 l 1612 195 l 1612 244 l 1177 244 "},"":{"ha":1183,"x_min":38,"x_max":1153,"o":"m 506 -304 q 513 -331 507 -313 q 531 -358 519 -348 q 567 -376 543 -368 q 625 -384 591 -384 l 722 -384 l 722 -335 l 625 -335 q 584 -331 600 -335 q 563 -316 569 -326 q 555 -299 557 -307 q 554 -278 554 -292 q 555 -257 554 -264 q 563 -240 557 -250 q 584 -225 569 -230 q 625 -221 600 -221 l 722 -221 l 722 -34 l 673 -34 l 673 -172 l 625 -172 q 567 -180 591 -172 q 531 -198 543 -189 q 513 -225 519 -208 q 506 -252 507 -243 q 505 -278 505 -262 q 506 -299 505 -294 q 506 -304 506 -304 m 408 -278 q 408 -307 408 -296 q 410 -336 408 -317 q 416 -367 412 -355 q 427 -396 420 -379 q 445 -424 435 -413 q 472 -447 456 -435 q 510 -466 489 -458 q 560 -477 531 -473 q 625 -481 589 -481 l 722 -481 l 722 -433 l 625 -433 q 563 -428 589 -433 q 518 -416 536 -423 q 488 -396 500 -409 q 469 -372 475 -382 q 460 -342 463 -361 q 457 -311 457 -323 q 456 -278 456 -299 q 459 -226 456 -246 q 472 -184 462 -205 q 499 -151 481 -163 q 548 -131 517 -139 q 625 -123 580 -123 l 625 -34 l 576 -34 l 576 -82 q 497 -97 530 -83 q 447 -131 464 -111 q 420 -179 430 -150 q 409 -230 411 -209 q 408 -278 408 -250 m 911 739 q 798 841 867 804 q 648 879 729 879 q 525 854 584 879 q 424 786 467 829 q 356 685 381 743 q 331 562 331 626 q 356 438 331 497 q 424 337 381 380 q 525 269 467 294 q 648 244 584 244 q 798 281 728 244 q 910 382 867 319 l 871 411 q 775 325 834 357 q 648 293 717 293 q 458 372 537 293 q 380 562 380 450 q 458 751 380 673 q 648 830 537 830 q 775 799 717 830 q 871 713 834 767 l 911 739 m 991 795 q 844 928 935 879 q 648 977 753 977 q 440 921 536 977 q 289 770 345 865 q 233 562 233 674 q 289 353 233 449 q 440 202 345 258 q 648 146 536 146 q 844 195 753 146 q 991 328 935 244 l 951 356 q 821 239 901 282 q 648 195 741 195 q 465 244 549 195 q 331 378 380 294 q 282 562 282 462 q 331 745 282 661 q 465 879 380 829 q 648 928 549 928 q 821 885 741 928 q 951 768 901 842 l 991 795 m 1073 849 q 890 1014 1002 953 q 648 1074 779 1074 q 391 1005 509 1074 q 204 819 273 937 q 136 562 136 701 q 204 304 136 422 q 391 118 273 186 q 648 49 509 49 q 889 109 778 49 q 1072 272 1001 169 l 1032 301 q 867 153 968 208 q 648 98 766 98 q 468 134 554 98 q 320 233 382 171 q 221 381 258 295 q 184 562 184 467 q 221 742 184 656 q 320 890 258 828 q 468 989 382 952 q 648 1025 554 1025 q 867 971 766 1025 q 1032 823 968 916 l 1073 849 m 1153 905 q 936 1100 1069 1028 q 648 1172 803 1172 q 411 1123 524 1172 q 217 993 298 1075 q 86 799 135 911 q 38 562 38 686 q 86 325 38 437 q 217 130 135 212 q 411 0 298 48 q 648 -49 524 -49 q 935 23 802 -49 q 1152 216 1068 94 l 1113 246 q 913 66 1036 133 q 648 0 790 0 q 430 44 534 0 q 251 164 326 89 q 131 343 176 239 q 87 562 87 448 q 131 780 87 675 q 251 959 176 884 q 430 1079 326 1034 q 648 1123 534 1123 q 912 1057 790 1123 q 1112 878 1035 991 l 1153 905 "},"":{"ha":981,"x_min":41,"x_max":924,"o":"m 570 1312 l 119 1533 l 157 1568 l 609 1347 l 570 1312 m 493 1241 l 41 1461 l 80 1497 l 532 1276 l 493 1241 m 307 0 l 307 1123 l 258 1123 l 258 0 l 307 0 m 210 0 l 210 1123 l 161 1123 l 161 0 l 210 0 m 112 0 l 112 1123 l 63 1123 l 63 0 l 112 0 m 405 244 l 405 439 l 671 439 l 671 488 l 405 488 l 405 537 l 671 537 l 671 586 l 405 586 l 405 635 l 671 635 l 671 684 l 405 684 l 405 879 l 924 879 l 924 928 l 405 928 l 405 977 l 924 977 l 924 1025 l 405 1025 l 405 1074 l 924 1074 l 924 1123 l 356 1123 l 356 0 l 924 0 l 924 49 l 405 49 l 405 98 l 924 98 l 924 146 l 405 146 l 405 195 l 924 195 l 924 244 l 405 244 "},"":{"ha":981,"x_min":63,"x_max":946,"o":"m 416 1312 l 869 1533 l 830 1568 l 378 1347 l 416 1312 m 494 1241 l 946 1461 l 907 1497 l 455 1276 l 494 1241 m 307 0 l 307 1123 l 258 1123 l 258 0 l 307 0 m 210 0 l 210 1123 l 161 1123 l 161 0 l 210 0 m 112 0 l 112 1123 l 63 1123 l 63 0 l 112 0 m 405 244 l 405 439 l 671 439 l 671 488 l 405 488 l 405 537 l 671 537 l 671 586 l 405 586 l 405 635 l 671 635 l 671 684 l 405 684 l 405 879 l 924 879 l 924 928 l 405 928 l 405 977 l 924 977 l 924 1025 l 405 1025 l 405 1074 l 924 1074 l 924 1123 l 356 1123 l 356 0 l 924 0 l 924 49 l 405 49 l 405 98 l 924 98 l 924 146 l 405 146 l 405 195 l 924 195 l 924 244 l 405 244 "},"":{"ha":981,"x_min":63,"x_max":924,"o":"m 703 1241 l 651 1241 l 520 1572 l 572 1572 l 703 1241 m 441 1241 l 389 1241 l 448 1390 l 475 1328 l 441 1241 m 336 1241 l 284 1241 l 415 1572 l 468 1572 l 599 1241 l 546 1241 l 441 1507 l 336 1241 m 307 0 l 307 1123 l 258 1123 l 258 0 l 307 0 m 210 0 l 210 1123 l 161 1123 l 161 0 l 210 0 m 112 0 l 112 1123 l 63 1123 l 63 0 l 112 0 m 405 244 l 405 439 l 671 439 l 671 488 l 405 488 l 405 537 l 671 537 l 671 586 l 405 586 l 405 635 l 671 635 l 671 684 l 405 684 l 405 879 l 924 879 l 924 928 l 405 928 l 405 977 l 924 977 l 924 1025 l 405 1025 l 405 1074 l 924 1074 l 924 1123 l 356 1123 l 356 0 l 924 0 l 924 49 l 405 49 l 405 98 l 924 98 l 924 146 l 405 146 l 405 195 l 924 195 l 924 244 l 405 244 "},"":{"ha":981,"x_min":63,"x_max":924,"o":"m 774 1393 l 774 1241 l 823 1241 l 823 1393 l 774 1393 m 677 1393 l 677 1241 l 726 1241 l 726 1393 l 677 1393 m 579 1393 l 579 1241 l 628 1241 l 628 1393 l 579 1393 m 358 1393 l 358 1241 l 407 1241 l 407 1393 l 358 1393 m 260 1393 l 260 1241 l 309 1241 l 309 1393 l 260 1393 m 163 1393 l 163 1241 l 212 1241 l 212 1393 l 163 1393 m 307 0 l 307 1123 l 258 1123 l 258 0 l 307 0 m 210 0 l 210 1123 l 161 1123 l 161 0 l 210 0 m 112 0 l 112 1123 l 63 1123 l 63 0 l 112 0 m 405 244 l 405 439 l 671 439 l 671 488 l 405 488 l 405 537 l 671 537 l 671 586 l 405 586 l 405 635 l 671 635 l 671 684 l 405 684 l 405 879 l 924 879 l 924 928 l 405 928 l 405 977 l 924 977 l 924 1025 l 405 1025 l 405 1074 l 924 1074 l 924 1123 l 356 1123 l 356 0 l 924 0 l 924 49 l 405 49 l 405 98 l 924 98 l 924 146 l 405 146 l 405 195 l 924 195 l 924 244 l 405 244 "},"":{"ha":471,"x_min":-219,"x_max":405,"o":"m 311 1312 l -141 1533 l -103 1568 l 349 1347 l 311 1312 m 233 1241 l -219 1461 l -180 1497 l 272 1276 l 233 1241 m 356 1123 l 356 0 l 405 0 l 405 1123 l 356 1123 m 258 1123 l 258 0 l 307 0 l 307 1123 l 258 1123 m 161 1123 l 161 0 l 210 0 l 210 1123 l 161 1123 m 63 1123 l 63 0 l 112 0 l 112 1123 l 63 1123 "},"":{"ha":471,"x_min":63,"x_max":686,"o":"m 157 1312 l 609 1533 l 570 1568 l 118 1347 l 157 1312 m 234 1241 l 686 1461 l 647 1497 l 195 1276 l 234 1241 m 356 1123 l 356 0 l 405 0 l 405 1123 l 356 1123 m 258 1123 l 258 0 l 307 0 l 307 1123 l 258 1123 m 161 1123 l 161 0 l 210 0 l 210 1123 l 161 1123 m 63 1123 l 63 0 l 112 0 l 112 1123 l 63 1123 "},"":{"ha":471,"x_min":24,"x_max":444,"o":"m 444 1241 l 391 1241 l 260 1572 l 313 1572 l 444 1241 m 182 1241 l 129 1241 l 188 1390 l 216 1328 l 182 1241 m 77 1241 l 24 1241 l 155 1572 l 208 1572 l 339 1241 l 286 1241 l 181 1507 l 77 1241 m 356 1123 l 356 0 l 405 0 l 405 1123 l 356 1123 m 258 1123 l 258 0 l 307 0 l 307 1123 l 258 1123 m 161 1123 l 161 0 l 210 0 l 210 1123 l 161 1123 m 63 1123 l 63 0 l 112 0 l 112 1123 l 63 1123 "},"":{"ha":471,"x_min":-97,"x_max":564,"o":"m 515 1393 l 515 1241 l 564 1241 l 564 1393 l 515 1393 m 417 1393 l 417 1241 l 466 1241 l 466 1393 l 417 1393 m 319 1393 l 319 1241 l 368 1241 l 368 1393 l 319 1393 m 98 1393 l 98 1241 l 147 1241 l 147 1393 l 98 1393 m 1 1393 l 1 1241 l 50 1241 l 50 1393 l 1 1393 m -97 1393 l -97 1241 l -48 1241 l -48 1393 l -97 1393 m 356 1123 l 356 0 l 405 0 l 405 1123 l 356 1123 m 258 1123 l 258 0 l 307 0 l 307 1123 l 258 1123 m 161 1123 l 161 0 l 210 0 l 210 1123 l 161 1123 m 63 1123 l 63 0 l 112 0 l 112 1123 l 63 1123 "},"":{"ha":1258,"x_min":37,"x_max":1211,"o":"m 37 439 l 549 439 l 549 488 l 37 488 l 37 439 m 37 537 l 549 537 l 549 586 l 37 586 l 37 537 m 37 635 l 549 635 l 549 684 l 37 684 l 37 635 m 380 415 l 380 293 l 713 293 q 852 372 794 293 q 910 562 910 450 q 852 751 910 672 q 713 830 794 830 l 380 830 l 380 709 l 429 709 l 429 781 l 713 781 q 817 717 774 781 q 860 562 860 653 q 817 406 860 471 q 713 342 774 342 l 429 342 l 429 415 l 380 415 m 283 415 l 283 195 l 713 195 q 861 244 793 195 q 970 378 930 293 q 1010 562 1010 463 q 970 746 1010 661 q 861 879 930 830 q 713 928 793 928 l 283 928 l 283 709 l 332 709 l 332 879 l 713 879 q 837 837 780 879 q 927 721 893 794 q 960 562 960 648 q 887 337 960 431 q 713 244 814 244 l 332 244 l 332 415 l 283 415 m 185 415 l 185 98 l 713 98 q 911 160 819 98 q 1057 329 1002 222 q 1111 562 1111 436 q 1057 794 1111 687 q 911 963 1002 901 q 713 1025 819 1025 l 185 1025 l 185 709 l 234 709 l 234 977 l 713 977 q 886 921 806 977 q 1013 769 966 865 q 1061 562 1061 673 q 1013 353 1061 449 q 886 202 966 258 q 713 146 806 146 l 234 146 l 234 415 l 185 415 m 87 415 l 87 0 l 713 0 q 904 44 812 0 q 1063 164 996 89 q 1171 343 1131 239 q 1211 562 1211 448 q 1143 843 1211 713 q 960 1048 1075 972 q 713 1123 846 1123 l 87 1123 l 87 709 l 136 709 l 136 1074 l 713 1074 q 885 1034 802 1074 q 1028 924 968 993 q 1125 760 1088 855 q 1161 562 1161 665 q 1125 362 1161 458 q 1028 199 1088 267 q 885 90 968 130 q 713 49 802 49 l 136 49 l 136 415 l 87 415 "},"":{"ha":1219,"x_min":63,"x_max":1154,"o":"m 876 1485 q 870 1437 876 1457 q 857 1409 864 1418 q 833 1394 849 1399 q 808 1388 818 1389 q 779 1388 798 1388 l 437 1388 q 414 1387 422 1388 q 388 1384 405 1387 q 359 1376 370 1381 q 334 1360 348 1371 q 311 1334 319 1350 q 297 1295 302 1319 q 291 1241 291 1272 l 340 1241 q 346 1289 340 1270 q 359 1318 352 1308 q 382 1332 367 1327 q 408 1338 398 1337 q 437 1339 418 1339 l 779 1339 q 802 1339 793 1339 q 828 1342 811 1339 q 857 1350 846 1345 q 882 1366 868 1356 q 905 1392 897 1377 q 919 1431 913 1407 q 925 1485 925 1455 l 876 1485 m 974 1485 q 970 1427 974 1453 q 961 1382 966 1401 q 945 1348 956 1363 q 925 1324 934 1333 q 900 1308 916 1314 q 873 1297 884 1301 q 842 1292 862 1294 q 811 1290 823 1291 q 779 1290 800 1290 l 437 1290 l 437 1241 l 779 1241 q 813 1241 800 1241 q 848 1244 825 1242 q 886 1251 871 1246 q 920 1263 900 1255 q 954 1283 941 1272 q 981 1314 966 1295 q 1004 1356 996 1333 q 1017 1413 1012 1380 q 1023 1485 1023 1446 l 974 1485 m 437 1485 q 403 1485 416 1485 q 368 1482 391 1485 q 330 1476 345 1480 q 296 1463 316 1472 q 262 1443 275 1455 q 235 1412 250 1431 q 212 1370 220 1394 q 199 1313 204 1346 q 193 1241 193 1280 l 242 1241 q 246 1299 242 1273 q 255 1344 250 1325 q 271 1378 260 1363 q 291 1402 282 1393 q 316 1419 300 1412 q 343 1429 332 1426 q 374 1434 354 1432 q 405 1436 393 1436 q 437 1436 416 1436 l 779 1436 l 779 1485 l 437 1485 m 861 541 l 861 1123 l 812 1123 l 812 621 l 861 541 m 958 380 l 958 1123 l 909 1123 l 909 463 l 958 380 m 1056 218 l 1056 1123 l 1007 1123 l 1007 301 l 1056 218 m 356 583 l 356 0 l 405 0 l 405 502 l 356 583 m 258 743 l 258 0 l 307 0 l 307 661 l 258 743 m 161 905 l 161 0 l 210 0 l 210 822 l 161 905 m 178 1123 l 868 0 l 925 0 l 235 1123 l 178 1123 m 293 1123 l 982 0 l 1040 0 l 351 1123 l 293 1123 m 408 1123 l 1096 0 q 1154 0 1154 0 l 1154 1123 l 1105 1123 l 1105 79 l 465 1123 l 408 1123 m 112 1044 l 753 0 l 810 0 l 121 1123 q 63 1123 63 1123 l 63 0 l 112 0 l 112 1044 "},"":{"ha":1297,"x_min":38,"x_max":1259,"o":"m 725 1312 l 273 1533 l 311 1568 l 764 1347 l 725 1312 m 648 1241 l 195 1461 l 235 1497 l 686 1276 l 648 1241 m 458 751 q 648 830 537 830 q 838 751 760 830 q 917 562 917 673 q 838 372 917 450 q 648 293 760 293 q 458 372 537 293 q 380 562 380 450 q 419 712 380 673 q 458 751 458 751 m 356 438 q 424 337 381 380 q 525 269 467 294 q 648 244 584 244 q 771 269 713 244 q 873 337 830 294 q 941 438 916 380 q 966 562 966 497 q 941 685 966 626 q 873 786 916 743 q 771 854 830 829 q 648 879 713 879 q 525 854 584 879 q 424 786 467 829 q 356 685 381 743 q 331 562 331 626 q 343 468 331 497 q 356 438 356 438 m 331 745 q 465 879 380 829 q 648 928 549 928 q 832 879 748 928 q 965 745 916 829 q 1015 562 1015 661 q 965 378 1015 462 q 832 244 916 294 q 648 195 748 195 q 465 244 549 195 q 331 378 380 294 q 282 562 282 462 q 307 703 282 661 q 331 745 331 745 m 289 353 q 440 202 345 258 q 648 146 536 146 q 857 202 761 146 q 1008 353 952 258 q 1063 562 1063 449 q 1008 770 1063 674 q 857 921 952 865 q 648 977 761 977 q 440 921 536 977 q 289 770 345 865 q 233 562 233 674 q 261 401 233 449 q 289 353 289 353 m 221 742 q 320 890 258 828 q 468 989 382 952 q 648 1025 554 1025 q 829 989 743 1025 q 977 890 915 952 q 1076 742 1039 828 q 1112 562 1112 656 q 1076 381 1112 467 q 977 233 1039 295 q 829 134 915 171 q 648 98 743 98 q 468 134 554 98 q 320 233 382 171 q 221 381 258 295 q 184 562 184 467 q 203 699 184 656 q 221 742 221 742 m 204 304 q 391 118 273 186 q 648 49 509 49 q 905 118 787 49 q 1092 304 1023 186 q 1161 562 1161 422 q 1092 819 1161 701 q 905 1005 1023 937 q 648 1074 787 1074 q 391 1005 509 1074 q 204 819 273 937 q 136 562 136 701 q 170 363 136 422 q 204 304 204 304 m 131 780 q 251 959 176 884 q 430 1079 326 1034 q 648 1123 534 1123 q 866 1079 762 1123 q 1046 959 970 1034 q 1165 780 1121 884 q 1210 562 1210 675 q 1165 343 1210 448 q 1046 164 1121 239 q 866 44 970 89 q 648 0 762 0 q 430 44 534 0 q 251 164 326 89 q 131 343 176 239 q 87 562 87 448 q 109 728 87 675 q 131 780 131 780 m 86 325 q 217 130 135 212 q 411 0 298 48 q 648 -49 524 -49 q 885 0 772 -49 q 1080 130 998 48 q 1210 325 1162 212 q 1259 562 1259 437 q 1210 799 1259 686 q 1080 993 1162 911 q 885 1123 998 1075 q 648 1172 772 1172 q 411 1123 524 1172 q 217 993 298 1075 q 86 799 135 911 q 38 562 38 686 q 62 381 38 437 q 86 325 86 325 "},"":{"ha":1297,"x_min":38,"x_max":1259,"o":"m 571 1312 l 1023 1533 l 985 1568 l 532 1347 l 571 1312 m 648 1241 l 1101 1461 l 1061 1497 l 610 1276 l 648 1241 m 458 751 q 648 830 537 830 q 838 751 760 830 q 917 562 917 673 q 838 372 917 450 q 648 293 760 293 q 458 372 537 293 q 380 562 380 450 q 419 712 380 673 q 458 751 458 751 m 356 438 q 424 337 381 380 q 525 269 467 294 q 648 244 584 244 q 771 269 713 244 q 873 337 830 294 q 941 438 916 380 q 966 562 966 497 q 941 685 966 626 q 873 786 916 743 q 771 854 830 829 q 648 879 713 879 q 525 854 584 879 q 424 786 467 829 q 356 685 381 743 q 331 562 331 626 q 343 468 331 497 q 356 438 356 438 m 331 745 q 465 879 380 829 q 648 928 549 928 q 832 879 748 928 q 965 745 916 829 q 1015 562 1015 661 q 965 378 1015 462 q 832 244 916 294 q 648 195 748 195 q 465 244 549 195 q 331 378 380 294 q 282 562 282 462 q 307 703 282 661 q 331 745 331 745 m 289 353 q 440 202 345 258 q 648 146 536 146 q 857 202 761 146 q 1008 353 952 258 q 1063 562 1063 449 q 1008 770 1063 674 q 857 921 952 865 q 648 977 761 977 q 440 921 536 977 q 289 770 345 865 q 233 562 233 674 q 261 401 233 449 q 289 353 289 353 m 221 742 q 320 890 258 828 q 468 989 382 952 q 648 1025 554 1025 q 829 989 743 1025 q 977 890 915 952 q 1076 742 1039 828 q 1112 562 1112 656 q 1076 381 1112 467 q 977 233 1039 295 q 829 134 915 171 q 648 98 743 98 q 468 134 554 98 q 320 233 382 171 q 221 381 258 295 q 184 562 184 467 q 203 699 184 656 q 221 742 221 742 m 204 304 q 391 118 273 186 q 648 49 509 49 q 905 118 787 49 q 1092 304 1023 186 q 1161 562 1161 422 q 1092 819 1161 701 q 905 1005 1023 937 q 648 1074 787 1074 q 391 1005 509 1074 q 204 819 273 937 q 136 562 136 701 q 170 363 136 422 q 204 304 204 304 m 131 780 q 251 959 176 884 q 430 1079 326 1034 q 648 1123 534 1123 q 866 1079 762 1123 q 1046 959 970 1034 q 1165 780 1121 884 q 1210 562 1210 675 q 1165 343 1210 448 q 1046 164 1121 239 q 866 44 970 89 q 648 0 762 0 q 430 44 534 0 q 251 164 326 89 q 131 343 176 239 q 87 562 87 448 q 109 728 87 675 q 131 780 131 780 m 86 325 q 217 130 135 212 q 411 0 298 48 q 648 -49 524 -49 q 885 0 772 -49 q 1080 130 998 48 q 1210 325 1162 212 q 1259 562 1259 437 q 1210 799 1259 686 q 1080 993 1162 911 q 885 1123 998 1075 q 648 1172 772 1172 q 411 1123 524 1172 q 217 993 298 1075 q 86 799 135 911 q 38 562 38 686 q 62 381 38 437 q 86 325 86 325 "},"":{"ha":1297,"x_min":38,"x_max":1259,"o":"m 858 1241 l 806 1241 l 675 1572 l 727 1572 l 858 1241 m 596 1241 l 543 1241 l 602 1390 l 630 1328 l 596 1241 m 491 1241 l 439 1241 l 570 1572 l 623 1572 l 753 1241 l 701 1241 l 595 1507 l 491 1241 m 458 751 q 648 830 537 830 q 838 751 760 830 q 917 562 917 673 q 838 372 917 450 q 648 293 760 293 q 458 372 537 293 q 380 562 380 450 q 419 712 380 673 q 458 751 458 751 m 356 438 q 424 337 381 380 q 525 269 467 294 q 648 244 584 244 q 771 269 713 244 q 873 337 830 294 q 941 438 916 380 q 966 562 966 497 q 941 685 966 626 q 873 786 916 743 q 771 854 830 829 q 648 879 713 879 q 525 854 584 879 q 424 786 467 829 q 356 685 381 743 q 331 562 331 626 q 343 468 331 497 q 356 438 356 438 m 331 745 q 465 879 380 829 q 648 928 549 928 q 832 879 748 928 q 965 745 916 829 q 1015 562 1015 661 q 965 378 1015 462 q 832 244 916 294 q 648 195 748 195 q 465 244 549 195 q 331 378 380 294 q 282 562 282 462 q 307 703 282 661 q 331 745 331 745 m 289 353 q 440 202 345 258 q 648 146 536 146 q 857 202 761 146 q 1008 353 952 258 q 1063 562 1063 449 q 1008 770 1063 674 q 857 921 952 865 q 648 977 761 977 q 440 921 536 977 q 289 770 345 865 q 233 562 233 674 q 261 401 233 449 q 289 353 289 353 m 221 742 q 320 890 258 828 q 468 989 382 952 q 648 1025 554 1025 q 829 989 743 1025 q 977 890 915 952 q 1076 742 1039 828 q 1112 562 1112 656 q 1076 381 1112 467 q 977 233 1039 295 q 829 134 915 171 q 648 98 743 98 q 468 134 554 98 q 320 233 382 171 q 221 381 258 295 q 184 562 184 467 q 203 699 184 656 q 221 742 221 742 m 204 304 q 391 118 273 186 q 648 49 509 49 q 905 118 787 49 q 1092 304 1023 186 q 1161 562 1161 422 q 1092 819 1161 701 q 905 1005 1023 937 q 648 1074 787 1074 q 391 1005 509 1074 q 204 819 273 937 q 136 562 136 701 q 170 363 136 422 q 204 304 204 304 m 131 780 q 251 959 176 884 q 430 1079 326 1034 q 648 1123 534 1123 q 866 1079 762 1123 q 1046 959 970 1034 q 1165 780 1121 884 q 1210 562 1210 675 q 1165 343 1210 448 q 1046 164 1121 239 q 866 44 970 89 q 648 0 762 0 q 430 44 534 0 q 251 164 326 89 q 131 343 176 239 q 87 562 87 448 q 109 728 87 675 q 131 780 131 780 m 86 325 q 217 130 135 212 q 411 0 298 48 q 648 -49 524 -49 q 885 0 772 -49 q 1080 130 998 48 q 1210 325 1162 212 q 1259 562 1259 437 q 1210 799 1259 686 q 1080 993 1162 911 q 885 1123 998 1075 q 648 1172 772 1172 q 411 1123 524 1172 q 217 993 298 1075 q 86 799 135 911 q 38 562 38 686 q 62 381 38 437 q 86 325 86 325 "},"":{"ha":1297,"x_min":38,"x_max":1259,"o":"m 917 1485 q 911 1437 917 1457 q 897 1409 905 1418 q 874 1394 890 1399 q 849 1388 859 1389 q 819 1388 839 1388 l 478 1388 q 454 1387 463 1388 q 428 1384 446 1387 q 400 1376 411 1381 q 374 1360 389 1371 q 352 1334 360 1350 q 337 1295 343 1319 q 332 1241 332 1272 l 380 1241 q 387 1289 380 1270 q 400 1318 393 1308 q 423 1332 408 1327 q 449 1338 439 1337 q 478 1339 458 1339 l 819 1339 q 843 1339 834 1339 q 869 1342 852 1339 q 898 1350 886 1345 q 923 1366 909 1356 q 946 1392 937 1377 q 960 1431 954 1407 q 966 1485 966 1455 l 917 1485 m 1015 1485 q 1011 1427 1015 1453 q 1002 1382 1007 1401 q 985 1348 996 1363 q 965 1324 975 1333 q 940 1308 956 1314 q 913 1297 924 1301 q 883 1292 903 1294 q 852 1290 863 1291 q 819 1290 841 1290 l 478 1290 l 478 1241 l 819 1241 q 853 1241 841 1241 q 889 1244 866 1242 q 926 1251 912 1246 q 961 1263 941 1255 q 994 1283 981 1272 q 1022 1314 1007 1295 q 1044 1356 1036 1333 q 1058 1413 1053 1380 q 1063 1485 1063 1446 l 1015 1485 m 478 1485 q 444 1485 456 1485 q 408 1482 431 1485 q 371 1476 385 1480 q 336 1463 357 1472 q 303 1443 316 1455 q 276 1412 290 1431 q 253 1370 261 1394 q 239 1313 245 1346 q 234 1241 234 1280 l 283 1241 q 287 1299 283 1273 q 296 1344 290 1325 q 312 1378 301 1363 q 332 1402 323 1393 q 357 1419 341 1412 q 384 1429 373 1426 q 414 1434 395 1432 q 445 1436 434 1436 q 478 1436 456 1436 l 819 1436 l 819 1485 l 478 1485 m 458 751 q 648 830 537 830 q 838 751 760 830 q 917 562 917 673 q 838 372 917 450 q 648 293 760 293 q 458 372 537 293 q 380 562 380 450 q 419 712 380 673 q 458 751 458 751 m 356 438 q 424 337 381 380 q 525 269 467 294 q 648 244 584 244 q 771 269 713 244 q 873 337 830 294 q 941 438 916 380 q 966 562 966 497 q 941 685 966 626 q 873 786 916 743 q 771 854 830 829 q 648 879 713 879 q 525 854 584 879 q 424 786 467 829 q 356 685 381 743 q 331 562 331 626 q 343 468 331 497 q 356 438 356 438 m 331 745 q 465 879 380 829 q 648 928 549 928 q 832 879 748 928 q 965 745 916 829 q 1015 562 1015 661 q 965 378 1015 462 q 832 244 916 294 q 648 195 748 195 q 465 244 549 195 q 331 378 380 294 q 282 562 282 462 q 307 703 282 661 q 331 745 331 745 m 289 353 q 440 202 345 258 q 648 146 536 146 q 857 202 761 146 q 1008 353 952 258 q 1063 562 1063 449 q 1008 770 1063 674 q 857 921 952 865 q 648 977 761 977 q 440 921 536 977 q 289 770 345 865 q 233 562 233 674 q 261 401 233 449 q 289 353 289 353 m 221 742 q 320 890 258 828 q 468 989 382 952 q 648 1025 554 1025 q 829 989 743 1025 q 977 890 915 952 q 1076 742 1039 828 q 1112 562 1112 656 q 1076 381 1112 467 q 977 233 1039 295 q 829 134 915 171 q 648 98 743 98 q 468 134 554 98 q 320 233 382 171 q 221 381 258 295 q 184 562 184 467 q 203 699 184 656 q 221 742 221 742 m 204 304 q 391 118 273 186 q 648 49 509 49 q 905 118 787 49 q 1092 304 1023 186 q 1161 562 1161 422 q 1092 819 1161 701 q 905 1005 1023 937 q 648 1074 787 1074 q 391 1005 509 1074 q 204 819 273 937 q 136 562 136 701 q 170 363 136 422 q 204 304 204 304 m 131 780 q 251 959 176 884 q 430 1079 326 1034 q 648 1123 534 1123 q 866 1079 762 1123 q 1046 959 970 1034 q 1165 780 1121 884 q 1210 562 1210 675 q 1165 343 1210 448 q 1046 164 1121 239 q 866 44 970 89 q 648 0 762 0 q 430 44 534 0 q 251 164 326 89 q 131 343 176 239 q 87 562 87 448 q 109 728 87 675 q 131 780 131 780 m 86 325 q 217 130 135 212 q 411 0 298 48 q 648 -49 524 -49 q 885 0 772 -49 q 1080 130 998 48 q 1210 325 1162 212 q 1259 562 1259 437 q 1210 799 1259 686 q 1080 993 1162 911 q 885 1123 998 1075 q 648 1172 772 1172 q 411 1123 524 1172 q 217 993 298 1075 q 86 799 135 911 q 38 562 38 686 q 62 381 38 437 q 86 325 86 325 "},"":{"ha":1297,"x_min":38,"x_max":1259,"o":"m 929 1393 l 929 1241 l 978 1241 l 978 1393 l 929 1393 m 831 1393 l 831 1241 l 880 1241 l 880 1393 l 831 1393 m 734 1393 l 734 1241 l 783 1241 l 783 1393 l 734 1393 m 513 1393 l 513 1241 l 562 1241 l 562 1393 l 513 1393 m 415 1393 l 415 1241 l 464 1241 l 464 1393 l 415 1393 m 317 1393 l 317 1241 l 366 1241 l 366 1393 l 317 1393 m 458 751 q 648 830 537 830 q 838 751 760 830 q 917 562 917 673 q 838 372 917 450 q 648 293 760 293 q 458 372 537 293 q 380 562 380 450 q 419 712 380 673 q 458 751 458 751 m 356 438 q 424 337 381 380 q 525 269 467 294 q 648 244 584 244 q 771 269 713 244 q 873 337 830 294 q 941 438 916 380 q 966 562 966 497 q 941 685 966 626 q 873 786 916 743 q 771 854 830 829 q 648 879 713 879 q 525 854 584 879 q 424 786 467 829 q 356 685 381 743 q 331 562 331 626 q 343 468 331 497 q 356 438 356 438 m 331 745 q 465 879 380 829 q 648 928 549 928 q 832 879 748 928 q 965 745 916 829 q 1015 562 1015 661 q 965 378 1015 462 q 832 244 916 294 q 648 195 748 195 q 465 244 549 195 q 331 378 380 294 q 282 562 282 462 q 307 703 282 661 q 331 745 331 745 m 289 353 q 440 202 345 258 q 648 146 536 146 q 857 202 761 146 q 1008 353 952 258 q 1063 562 1063 449 q 1008 770 1063 674 q 857 921 952 865 q 648 977 761 977 q 440 921 536 977 q 289 770 345 865 q 233 562 233 674 q 261 401 233 449 q 289 353 289 353 m 221 742 q 320 890 258 828 q 468 989 382 952 q 648 1025 554 1025 q 829 989 743 1025 q 977 890 915 952 q 1076 742 1039 828 q 1112 562 1112 656 q 1076 381 1112 467 q 977 233 1039 295 q 829 134 915 171 q 648 98 743 98 q 468 134 554 98 q 320 233 382 171 q 221 381 258 295 q 184 562 184 467 q 203 699 184 656 q 221 742 221 742 m 204 304 q 391 118 273 186 q 648 49 509 49 q 905 118 787 49 q 1092 304 1023 186 q 1161 562 1161 422 q 1092 819 1161 701 q 905 1005 1023 937 q 648 1074 787 1074 q 391 1005 509 1074 q 204 819 273 937 q 136 562 136 701 q 170 363 136 422 q 204 304 204 304 m 131 780 q 251 959 176 884 q 430 1079 326 1034 q 648 1123 534 1123 q 866 1079 762 1123 q 1046 959 970 1034 q 1165 780 1121 884 q 1210 562 1210 675 q 1165 343 1210 448 q 1046 164 1121 239 q 866 44 970 89 q 648 0 762 0 q 430 44 534 0 q 251 164 326 89 q 131 343 176 239 q 87 562 87 448 q 109 728 87 675 q 131 780 131 780 m 86 325 q 217 130 135 212 q 411 0 298 48 q 648 -49 524 -49 q 885 0 772 -49 q 1080 130 998 48 q 1210 325 1162 212 q 1259 562 1259 437 q 1210 799 1259 686 q 1080 993 1162 911 q 885 1123 998 1075 q 648 1172 772 1172 q 411 1123 524 1172 q 217 993 298 1075 q 86 799 135 911 q 38 562 38 686 q 62 381 38 437 q 86 325 86 325 "},"":{"ha":1097,"x_min":26,"x_max":1071,"o":"m 1011 977 l 387 0 l 448 0 l 1071 977 l 1011 977 m 890 977 l 267 0 l 327 0 l 950 977 l 890 977 m 770 977 l 146 0 l 207 0 l 830 977 l 770 977 m 649 977 l 26 0 l 86 0 l 710 977 l 649 977 m 351 562 l 86 977 l 26 977 l 321 515 l 351 562 m 564 134 l 649 0 l 710 0 l 594 181 l 564 134 m 411 656 l 207 977 l 147 977 l 381 610 l 411 656 m 625 229 l 770 0 l 830 0 l 654 275 l 625 229 m 471 751 l 328 977 l 267 977 l 441 704 l 471 751 m 684 323 l 890 0 l 951 0 l 715 370 l 684 323 m 532 846 l 448 977 l 387 977 l 501 798 l 532 846 m 745 417 l 1011 0 l 1071 0 l 775 464 l 745 417 "},"":{"ha":1304,"x_min":37,"x_max":1258,"o":"m 458 751 q 648 830 536 830 q 838 751 759 830 q 916 562 916 673 q 838 372 916 450 q 648 293 759 293 q 458 372 536 293 q 379 562 379 450 q 418 712 379 673 q 458 751 458 751 m 355 438 q 423 337 380 380 q 525 269 466 294 q 648 244 583 244 q 771 269 712 244 q 872 337 829 294 q 940 438 915 380 q 965 562 965 497 q 940 685 965 626 q 872 786 915 743 q 771 854 829 829 q 648 879 712 879 q 525 854 583 879 q 423 786 466 829 q 355 685 380 743 q 330 562 330 626 q 343 468 330 497 q 355 438 355 438 m 331 745 q 464 879 380 829 q 648 928 548 928 q 831 879 747 928 q 965 745 916 829 q 1014 562 1014 661 q 965 378 1014 462 q 831 244 916 294 q 648 195 747 195 q 464 244 548 195 q 331 378 380 294 q 281 562 281 462 q 306 703 281 661 q 331 745 331 745 m 288 353 q 439 202 344 258 q 648 146 535 146 q 856 202 760 146 q 1007 353 951 258 q 1063 562 1063 449 q 1007 770 1063 674 q 856 921 951 865 q 648 977 760 977 q 439 921 535 977 q 288 770 344 865 q 233 562 233 674 q 260 401 233 449 q 288 353 288 353 m 220 742 q 319 890 257 828 q 467 989 381 952 q 648 1025 553 1025 q 828 989 742 1025 q 976 890 914 952 q 1075 742 1038 828 q 1112 562 1112 656 q 1075 381 1112 467 q 976 233 1038 295 q 828 134 914 171 q 648 98 742 98 q 467 134 553 98 q 319 233 381 171 q 220 381 257 295 q 184 562 184 467 q 202 699 184 656 q 220 742 220 742 m 204 304 q 391 118 273 186 q 648 49 509 49 q 905 118 787 49 q 1092 304 1023 186 q 1160 562 1160 422 q 1092 819 1160 701 q 905 1005 1023 937 q 648 1074 787 1074 q 391 1005 509 1074 q 204 819 273 937 q 135 562 135 701 q 169 363 135 422 q 204 304 204 304 m 131 780 q 250 959 175 884 q 430 1079 326 1034 q 648 1123 534 1123 q 866 1079 762 1123 q 1045 959 970 1034 q 1165 780 1120 884 q 1209 562 1209 675 q 1165 343 1209 448 q 1045 164 1120 239 q 866 44 970 89 q 648 0 762 0 q 430 44 534 0 q 250 164 326 89 q 131 343 175 239 q 86 562 86 448 q 108 728 86 675 q 131 780 131 780 m 86 325 q 216 130 134 212 q 411 0 298 48 q 648 -49 524 -49 q 885 0 772 -49 q 1079 130 998 48 q 1210 325 1161 212 q 1258 562 1258 437 q 1210 799 1258 686 q 1079 993 1161 911 q 885 1123 998 1075 q 648 1172 772 1172 q 411 1123 524 1172 q 216 993 298 1075 q 86 799 134 911 q 37 562 37 686 q 62 381 37 437 q 86 325 86 325 m 1043 1059 l 1121 1208 l 1078 1231 l 1003 1088 l 1043 1059 m 419 -35 l 334 -200 l 377 -222 l 467 -50 l 419 -35 m 964 1118 l 1034 1253 l 991 1276 l 920 1140 l 964 1118 m 332 7 l 248 -155 l 291 -178 l 375 -16 l 332 7 m 875 1159 l 947 1299 l 904 1321 l 827 1174 l 875 1159 m 248 59 l 161 -110 l 204 -132 l 288 30 l 248 59 "},"":{"ha":1257,"x_min":56,"x_max":1196,"o":"m 703 1312 l 251 1533 l 289 1568 l 741 1347 l 703 1312 m 625 1241 l 173 1461 l 212 1497 l 664 1276 l 625 1241 m 854 494 q 787 352 854 411 q 626 293 720 293 q 465 352 532 293 q 398 494 398 411 l 398 1123 l 349 1123 l 349 494 q 431 317 349 391 q 626 244 512 244 q 821 317 740 244 q 903 494 903 391 l 903 1123 l 854 1123 l 854 494 m 951 494 q 908 344 951 413 q 789 235 864 275 q 626 195 714 195 q 463 235 538 195 q 344 344 388 275 q 300 494 300 413 l 300 1123 l 252 1123 l 252 494 q 281 359 252 423 q 361 248 311 295 q 481 174 412 201 q 626 146 550 146 q 771 174 702 146 q 890 248 840 201 q 970 359 941 295 q 1000 494 1000 423 l 1000 1123 l 951 1123 l 951 494 m 1049 494 q 992 295 1049 387 q 838 151 935 204 q 626 98 741 98 q 414 151 511 98 q 260 295 317 204 q 203 494 203 387 l 203 1123 l 154 1123 l 154 494 q 192 321 154 404 q 292 179 229 239 q 443 84 355 119 q 626 49 530 49 q 809 84 722 49 q 960 179 897 119 q 1060 321 1023 239 q 1098 494 1098 404 l 1098 1123 l 1049 1123 l 1049 494 m 1147 494 q 1105 302 1147 394 q 994 145 1064 211 q 828 39 924 79 q 626 0 731 0 q 424 39 521 0 q 258 145 328 79 q 146 302 188 211 q 105 494 105 394 l 105 1123 l 56 1123 l 56 494 q 133 222 56 347 q 341 24 210 97 q 626 -49 472 -49 q 911 24 780 -49 q 1119 222 1042 97 q 1196 494 1196 347 l 1196 1123 l 1147 1123 l 1147 494 "},"":{"ha":1257,"x_min":56,"x_max":1196,"o":"m 549 1312 l 1001 1533 l 962 1568 l 510 1347 l 549 1312 m 626 1241 l 1078 1461 l 1039 1497 l 587 1276 l 626 1241 m 854 494 q 787 352 854 411 q 626 293 720 293 q 465 352 532 293 q 398 494 398 411 l 398 1123 l 349 1123 l 349 494 q 431 317 349 391 q 626 244 512 244 q 821 317 740 244 q 903 494 903 391 l 903 1123 l 854 1123 l 854 494 m 951 494 q 908 344 951 413 q 789 235 864 275 q 626 195 714 195 q 463 235 538 195 q 344 344 388 275 q 300 494 300 413 l 300 1123 l 252 1123 l 252 494 q 281 359 252 423 q 361 248 311 295 q 481 174 412 201 q 626 146 550 146 q 771 174 702 146 q 890 248 840 201 q 970 359 941 295 q 1000 494 1000 423 l 1000 1123 l 951 1123 l 951 494 m 1049 494 q 992 295 1049 387 q 838 151 935 204 q 626 98 741 98 q 414 151 511 98 q 260 295 317 204 q 203 494 203 387 l 203 1123 l 154 1123 l 154 494 q 192 321 154 404 q 292 179 229 239 q 443 84 355 119 q 626 49 530 49 q 809 84 722 49 q 960 179 897 119 q 1060 321 1023 239 q 1098 494 1098 404 l 1098 1123 l 1049 1123 l 1049 494 m 1147 494 q 1105 302 1147 394 q 994 145 1064 211 q 828 39 924 79 q 626 0 731 0 q 424 39 521 0 q 258 145 328 79 q 146 302 188 211 q 105 494 105 394 l 105 1123 l 56 1123 l 56 494 q 133 222 56 347 q 341 24 210 97 q 626 -49 472 -49 q 911 24 780 -49 q 1119 222 1042 97 q 1196 494 1196 347 l 1196 1123 l 1147 1123 l 1147 494 "},"":{"ha":1257,"x_min":56,"x_max":1196,"o":"m 836 1241 l 783 1241 l 652 1572 l 705 1572 l 836 1241 m 574 1241 l 521 1241 l 580 1390 l 608 1328 l 574 1241 m 469 1241 l 416 1241 l 547 1572 l 600 1572 l 731 1241 l 678 1241 l 573 1507 l 469 1241 m 854 494 q 787 352 854 411 q 626 293 720 293 q 465 352 532 293 q 398 494 398 411 l 398 1123 l 349 1123 l 349 494 q 431 317 349 391 q 626 244 512 244 q 821 317 740 244 q 903 494 903 391 l 903 1123 l 854 1123 l 854 494 m 951 494 q 908 344 951 413 q 789 235 864 275 q 626 195 714 195 q 463 235 538 195 q 344 344 388 275 q 300 494 300 413 l 300 1123 l 252 1123 l 252 494 q 281 359 252 423 q 361 248 311 295 q 481 174 412 201 q 626 146 550 146 q 771 174 702 146 q 890 248 840 201 q 970 359 941 295 q 1000 494 1000 423 l 1000 1123 l 951 1123 l 951 494 m 1049 494 q 992 295 1049 387 q 838 151 935 204 q 626 98 741 98 q 414 151 511 98 q 260 295 317 204 q 203 494 203 387 l 203 1123 l 154 1123 l 154 494 q 192 321 154 404 q 292 179 229 239 q 443 84 355 119 q 626 49 530 49 q 809 84 722 49 q 960 179 897 119 q 1060 321 1023 239 q 1098 494 1098 404 l 1098 1123 l 1049 1123 l 1049 494 m 1147 494 q 1105 302 1147 394 q 994 145 1064 211 q 828 39 924 79 q 626 0 731 0 q 424 39 521 0 q 258 145 328 79 q 146 302 188 211 q 105 494 105 394 l 105 1123 l 56 1123 l 56 494 q 133 222 56 347 q 341 24 210 97 q 626 -49 472 -49 q 911 24 780 -49 q 1119 222 1042 97 q 1196 494 1196 347 l 1196 1123 l 1147 1123 l 1147 494 "},"":{"ha":1257,"x_min":56,"x_max":1196,"o":"m 907 1393 l 907 1241 l 956 1241 l 956 1393 l 907 1393 m 809 1393 l 809 1241 l 858 1241 l 858 1393 l 809 1393 m 711 1393 l 711 1241 l 760 1241 l 760 1393 l 711 1393 m 490 1393 l 490 1241 l 539 1241 l 539 1393 l 490 1393 m 393 1393 l 393 1241 l 441 1241 l 441 1393 l 393 1393 m 295 1393 l 295 1241 l 344 1241 l 344 1393 l 295 1393 m 854 494 q 787 352 854 411 q 626 293 720 293 q 465 352 532 293 q 398 494 398 411 l 398 1123 l 349 1123 l 349 494 q 431 317 349 391 q 626 244 512 244 q 821 317 740 244 q 903 494 903 391 l 903 1123 l 854 1123 l 854 494 m 951 494 q 908 344 951 413 q 789 235 864 275 q 626 195 714 195 q 463 235 538 195 q 344 344 388 275 q 300 494 300 413 l 300 1123 l 252 1123 l 252 494 q 281 359 252 423 q 361 248 311 295 q 481 174 412 201 q 626 146 550 146 q 771 174 702 146 q 890 248 840 201 q 970 359 941 295 q 1000 494 1000 423 l 1000 1123 l 951 1123 l 951 494 m 1049 494 q 992 295 1049 387 q 838 151 935 204 q 626 98 741 98 q 414 151 511 98 q 260 295 317 204 q 203 494 203 387 l 203 1123 l 154 1123 l 154 494 q 192 321 154 404 q 292 179 229 239 q 443 84 355 119 q 626 49 530 49 q 809 84 722 49 q 960 179 897 119 q 1060 321 1023 239 q 1098 494 1098 404 l 1098 1123 l 1049 1123 l 1049 494 m 1147 494 q 1105 302 1147 394 q 994 145 1064 211 q 828 39 924 79 q 626 0 731 0 q 424 39 521 0 q 258 145 328 79 q 146 302 188 211 q 105 494 105 394 l 105 1123 l 56 1123 l 56 494 q 133 222 56 347 q 341 24 210 97 q 626 -49 472 -49 q 911 24 780 -49 q 1119 222 1042 97 q 1196 494 1196 347 l 1196 1123 l 1147 1123 l 1147 494 "},"":{"ha":1096,"x_min":24,"x_max":1072,"o":"m 471 1312 l 923 1533 l 884 1568 l 432 1347 l 471 1312 m 548 1241 l 1000 1461 l 961 1497 l 509 1276 l 548 1241 m 439 565 l 170 1123 l 121 1123 l 414 511 l 439 565 m 488 672 l 268 1123 l 219 1123 l 463 618 l 488 672 m 536 779 l 366 1123 l 317 1123 l 512 725 l 536 779 m 475 378 l 475 0 l 524 0 l 524 378 l 877 1123 l 828 1123 l 475 378 m 572 378 l 572 0 l 621 0 l 621 378 l 975 1123 l 926 1123 l 572 378 m 670 378 l 670 0 l 719 0 l 719 378 l 1072 1123 l 1023 1123 l 670 378 m 401 430 l 73 1123 l 24 1123 l 377 378 l 377 0 l 426 0 l 426 378 l 779 1123 l 730 1123 l 401 430 "},"":{"ha":1109,"x_min":64,"x_max":1063,"o":"m 428 379 q 580 374 494 374 q 714 430 658 374 q 770 564 770 486 q 714 699 770 643 q 580 754 658 754 q 406 749 460 754 l 406 798 q 580 803 481 803 q 748 733 678 803 q 819 564 819 663 q 748 395 819 465 q 580 326 678 326 q 428 329 486 326 l 428 279 q 580 277 490 277 q 783 361 699 277 q 867 564 867 446 q 783 767 867 683 q 580 852 699 852 q 406 848 514 852 l 406 897 q 580 901 514 901 q 748 856 671 901 q 871 733 825 810 q 916 564 916 655 q 871 396 916 473 q 748 273 826 318 q 580 228 671 228 q 428 231 490 228 l 428 181 q 580 179 475 179 q 773 231 684 179 q 913 372 862 283 q 965 564 965 460 q 913 757 965 668 q 772 898 861 846 q 580 949 684 949 q 406 946 496 949 l 406 995 q 580 998 541 998 q 748 964 667 998 q 886 871 828 929 q 979 733 945 813 q 1014 564 1014 652 q 956 347 1014 447 q 797 189 897 247 q 580 130 697 130 q 428 132 498 130 l 428 83 q 580 81 475 81 q 767 120 677 81 q 921 223 857 158 q 1024 377 986 288 q 1063 564 1063 467 q 1024 751 1063 662 q 921 906 986 841 q 767 1009 857 970 q 580 1047 677 1047 q 406 1044 514 1047 l 406 1172 l 357 1172 l 357 -98 l 406 -98 l 406 698 q 580 705 505 705 q 680 664 638 705 q 721 564 721 623 q 679 465 721 506 q 580 423 637 423 q 428 429 475 423 l 428 379 m 259 1172 l 259 -98 l 308 -98 l 308 1172 l 259 1172 m 161 1172 l 161 -98 l 210 -98 l 210 1172 l 161 1172 m 64 1172 l 64 -98 l 113 -98 l 113 1172 l 64 1172 "},"":{"ha":1147,"x_min":58,"x_max":1105,"o":"m 463 879 q 384 851 416 879 q 351 781 351 823 l 351 -98 l 400 -98 l 400 781 q 418 817 400 804 q 463 830 435 830 l 674 830 q 719 817 701 830 q 736 781 736 804 q 674 724 736 724 l 427 724 l 427 675 l 674 675 q 755 700 724 675 q 785 781 785 725 q 753 851 785 823 q 674 879 720 879 l 463 879 m 764 412 q 740 357 764 373 q 674 342 717 342 l 427 342 l 427 293 l 674 293 q 774 321 736 293 q 812 412 812 349 q 674 533 812 533 l 427 533 l 427 484 l 674 484 q 741 470 719 484 q 764 412 764 455 m 674 928 q 786 884 737 928 q 834 781 834 840 q 788 667 834 707 q 674 627 741 627 l 427 627 l 427 578 l 674 578 q 695 578 688 578 q 819 525 777 570 q 861 418 861 479 q 807 290 861 336 q 674 244 752 244 l 427 244 l 427 195 l 674 195 q 841 257 772 195 q 910 418 910 318 q 777 602 910 557 q 854 673 825 627 q 883 781 883 719 q 820 918 883 859 q 674 977 758 977 l 463 977 q 316 918 379 977 q 254 781 254 859 l 254 -98 l 302 -98 l 302 781 q 351 884 302 840 q 463 928 399 928 l 674 928 m 674 1025 q 854 952 777 1025 q 932 781 932 880 q 857 607 932 677 q 932 522 905 578 q 959 418 959 465 q 919 277 959 340 q 814 180 879 214 q 674 146 749 146 l 427 146 l 427 98 l 674 98 q 839 139 762 98 q 961 254 915 180 q 1008 418 1008 328 q 913 609 1008 520 q 981 781 981 686 q 939 927 981 859 q 826 1035 897 995 q 674 1074 755 1074 l 463 1074 q 311 1035 382 1074 q 198 927 240 995 q 156 781 156 859 l 156 -98 l 205 -98 l 205 781 q 282 952 205 880 q 463 1025 359 1025 l 674 1025 m 674 1123 q 850 1077 768 1123 q 981 951 932 1030 q 1029 781 1029 872 q 969 606 1029 687 q 1034 511 1012 566 q 1057 418 1057 456 q 1004 230 1057 315 q 864 97 951 144 q 674 49 776 49 l 427 49 l 427 0 l 674 0 q 888 50 791 0 q 1045 196 985 99 q 1105 418 1105 292 q 1022 606 1105 513 q 1078 781 1078 681 q 1023 976 1078 885 q 874 1119 968 1066 q 674 1172 781 1172 l 463 1172 q 262 1119 355 1172 q 114 976 169 1066 q 58 781 58 885 l 58 -98 l 107 -98 l 107 781 q 156 951 107 872 q 286 1077 204 1030 q 463 1123 368 1123 l 674 1123 "},"":{"ha":1156,"x_min":37,"x_max":1098,"o":"m 637 1165 l 186 1386 l 224 1421 l 676 1200 l 637 1165 m 560 1095 l 108 1315 l 147 1351 l 599 1130 l 560 1095 m 756 481 l 756 0 l 805 0 l 805 481 q 738 651 805 589 q 561 712 670 712 q 396 647 462 712 q 330 488 330 582 q 351 381 330 428 q 407 308 372 335 q 485 268 442 281 q 577 255 528 255 q 719 290 653 255 l 719 338 q 578 300 655 300 q 518 307 546 300 q 464 327 490 313 q 419 362 438 340 q 390 415 401 383 q 379 488 379 448 q 433 612 379 560 q 561 663 486 663 q 703 616 649 663 q 756 481 756 568 m 903 481 q 858 655 903 580 q 736 770 813 730 q 561 810 659 810 q 327 716 422 810 q 233 488 233 622 q 260 346 233 410 q 336 243 288 283 q 444 183 383 203 q 571 162 504 162 q 719 193 646 162 l 719 244 q 572 208 649 208 q 464 225 515 208 q 371 276 412 243 q 306 364 330 309 q 281 488 281 419 q 361 682 281 602 q 561 761 441 761 q 772 685 690 761 q 854 481 854 610 l 854 0 l 903 0 l 903 481 m 1000 481 q 943 704 1000 606 q 785 854 885 802 q 561 907 685 907 q 393 874 472 907 q 257 785 313 841 q 168 651 201 728 q 135 488 135 574 q 194 271 135 368 q 351 121 253 174 q 567 68 450 68 q 719 98 642 68 l 719 147 q 568 115 645 115 q 424 141 493 115 q 301 212 355 166 q 216 330 248 258 q 184 488 184 401 q 233 674 184 589 q 369 809 282 759 q 561 859 456 859 q 760 812 671 859 q 900 680 849 766 q 951 481 951 593 l 951 0 l 1000 0 l 1000 481 m 1098 481 q 1057 696 1098 597 q 943 862 1015 794 q 772 967 871 929 q 561 1005 673 1005 q 352 964 450 1005 q 185 853 254 923 q 77 689 117 784 q 37 488 37 593 q 66 315 37 397 q 144 171 94 233 q 261 65 195 110 q 405 -3 327 20 q 564 -26 482 -26 q 719 0 644 -26 l 719 50 q 567 20 647 20 q 424 41 494 20 q 293 102 354 62 q 186 199 233 143 q 113 330 140 255 q 86 488 86 405 q 149 723 86 615 q 320 893 211 830 q 561 956 429 956 q 809 897 698 956 q 985 729 920 838 q 1049 481 1049 620 l 1049 0 l 1098 0 l 1098 481 "},"":{"ha":1156,"x_min":37,"x_max":1098,"o":"m 484 1165 l 936 1386 l 897 1421 l 445 1200 l 484 1165 m 561 1095 l 1013 1315 l 974 1351 l 522 1130 l 561 1095 m 756 481 l 756 0 l 805 0 l 805 481 q 738 651 805 589 q 561 712 670 712 q 396 647 462 712 q 330 488 330 582 q 351 381 330 428 q 407 308 372 335 q 485 268 442 281 q 577 255 528 255 q 719 290 653 255 l 719 338 q 578 300 655 300 q 518 307 546 300 q 464 327 490 313 q 419 362 438 340 q 390 415 401 383 q 379 488 379 448 q 433 612 379 560 q 561 663 486 663 q 703 616 649 663 q 756 481 756 568 m 903 481 q 858 655 903 580 q 736 770 813 730 q 561 810 659 810 q 327 716 422 810 q 233 488 233 622 q 260 346 233 410 q 336 243 288 283 q 444 183 383 203 q 571 162 504 162 q 719 193 646 162 l 719 244 q 572 208 649 208 q 464 225 515 208 q 371 276 412 243 q 306 364 330 309 q 281 488 281 419 q 361 682 281 602 q 561 761 441 761 q 772 685 690 761 q 854 481 854 610 l 854 0 l 903 0 l 903 481 m 1000 481 q 943 704 1000 606 q 785 854 885 802 q 561 907 685 907 q 393 874 472 907 q 257 785 313 841 q 168 651 201 728 q 135 488 135 574 q 194 271 135 368 q 351 121 253 174 q 567 68 450 68 q 719 98 642 68 l 719 147 q 568 115 645 115 q 424 141 493 115 q 301 212 355 166 q 216 330 248 258 q 184 488 184 401 q 233 674 184 589 q 369 809 282 759 q 561 859 456 859 q 760 812 671 859 q 900 680 849 766 q 951 481 951 593 l 951 0 l 1000 0 l 1000 481 m 1098 481 q 1057 696 1098 597 q 943 862 1015 794 q 772 967 871 929 q 561 1005 673 1005 q 352 964 450 1005 q 185 853 254 923 q 77 689 117 784 q 37 488 37 593 q 66 315 37 397 q 144 171 94 233 q 261 65 195 110 q 405 -3 327 20 q 564 -26 482 -26 q 719 0 644 -26 l 719 50 q 567 20 647 20 q 424 41 494 20 q 293 102 354 62 q 186 199 233 143 q 113 330 140 255 q 86 488 86 405 q 149 723 86 615 q 320 893 211 830 q 561 956 429 956 q 809 897 698 956 q 985 729 920 838 q 1049 481 1049 620 l 1049 0 l 1098 0 l 1098 481 "},"":{"ha":1156,"x_min":37,"x_max":1098,"o":"m 770 1095 l 718 1095 l 587 1426 l 640 1426 l 770 1095 m 509 1095 l 456 1095 l 515 1244 l 543 1181 l 509 1095 m 404 1095 l 351 1095 l 482 1426 l 535 1426 l 666 1095 l 613 1095 l 508 1360 l 404 1095 m 756 481 l 756 0 l 805 0 l 805 481 q 738 651 805 589 q 561 712 670 712 q 396 647 462 712 q 330 488 330 582 q 351 381 330 428 q 407 308 372 335 q 485 268 442 281 q 577 255 528 255 q 719 290 653 255 l 719 338 q 578 300 655 300 q 518 307 546 300 q 464 327 490 313 q 419 362 438 340 q 390 415 401 383 q 379 488 379 448 q 433 612 379 560 q 561 663 486 663 q 703 616 649 663 q 756 481 756 568 m 903 481 q 858 655 903 580 q 736 770 813 730 q 561 810 659 810 q 327 716 422 810 q 233 488 233 622 q 260 346 233 410 q 336 243 288 283 q 444 183 383 203 q 571 162 504 162 q 719 193 646 162 l 719 244 q 572 208 649 208 q 464 225 515 208 q 371 276 412 243 q 306 364 330 309 q 281 488 281 419 q 361 682 281 602 q 561 761 441 761 q 772 685 690 761 q 854 481 854 610 l 854 0 l 903 0 l 903 481 m 1000 481 q 943 704 1000 606 q 785 854 885 802 q 561 907 685 907 q 393 874 472 907 q 257 785 313 841 q 168 651 201 728 q 135 488 135 574 q 194 271 135 368 q 351 121 253 174 q 567 68 450 68 q 719 98 642 68 l 719 147 q 568 115 645 115 q 424 141 493 115 q 301 212 355 166 q 216 330 248 258 q 184 488 184 401 q 233 674 184 589 q 369 809 282 759 q 561 859 456 859 q 760 812 671 859 q 900 680 849 766 q 951 481 951 593 l 951 0 l 1000 0 l 1000 481 m 1098 481 q 1057 696 1098 597 q 943 862 1015 794 q 772 967 871 929 q 561 1005 673 1005 q 352 964 450 1005 q 185 853 254 923 q 77 689 117 784 q 37 488 37 593 q 66 315 37 397 q 144 171 94 233 q 261 65 195 110 q 405 -3 327 20 q 564 -26 482 -26 q 719 0 644 -26 l 719 50 q 567 20 647 20 q 424 41 494 20 q 293 102 354 62 q 186 199 233 143 q 113 330 140 255 q 86 488 86 405 q 149 723 86 615 q 320 893 211 830 q 561 956 429 956 q 809 897 698 956 q 985 729 920 838 q 1049 481 1049 620 l 1049 0 l 1098 0 l 1098 481 "},"":{"ha":1156,"x_min":37,"x_max":1098,"o":"m 829 1339 q 823 1291 829 1310 q 809 1262 817 1272 q 786 1247 802 1253 q 761 1242 770 1242 q 731 1241 751 1241 l 390 1241 q 366 1241 375 1241 q 340 1238 357 1240 q 312 1230 323 1235 q 286 1214 300 1224 q 263 1188 272 1203 q 249 1149 255 1173 q 243 1095 243 1125 l 292 1095 q 298 1142 292 1123 q 312 1171 304 1162 q 335 1186 319 1181 q 360 1192 351 1191 q 390 1192 370 1192 l 731 1192 q 755 1193 746 1192 q 781 1196 764 1193 q 809 1204 798 1198 q 835 1220 821 1209 q 858 1245 849 1230 q 872 1284 866 1261 q 878 1339 878 1308 l 829 1339 m 926 1339 q 923 1281 926 1307 q 913 1236 919 1255 q 897 1202 908 1217 q 877 1177 886 1187 q 852 1161 868 1168 q 825 1151 836 1154 q 795 1146 814 1147 q 764 1144 775 1144 q 731 1143 753 1143 l 390 1143 l 390 1095 l 731 1095 q 765 1095 753 1095 q 801 1098 778 1095 q 838 1104 824 1100 q 873 1117 852 1108 q 906 1137 893 1125 q 933 1167 919 1149 q 956 1210 948 1186 q 970 1266 964 1234 q 975 1339 975 1299 l 926 1339 m 390 1339 q 356 1338 368 1339 q 320 1336 343 1338 q 283 1329 297 1333 q 248 1317 269 1325 q 215 1296 228 1308 q 188 1266 202 1284 q 165 1223 173 1247 q 151 1167 157 1200 q 146 1095 146 1134 l 195 1095 q 198 1153 195 1126 q 208 1198 202 1179 q 224 1232 213 1217 q 244 1256 235 1246 q 269 1272 253 1265 q 296 1282 285 1279 q 326 1288 307 1286 q 357 1290 346 1289 q 390 1290 368 1290 l 731 1290 l 731 1339 l 390 1339 m 756 481 l 756 0 l 805 0 l 805 481 q 738 651 805 589 q 561 712 670 712 q 396 647 462 712 q 330 488 330 582 q 351 381 330 428 q 407 308 372 335 q 485 268 442 281 q 577 255 528 255 q 719 290 653 255 l 719 338 q 578 300 655 300 q 518 307 546 300 q 464 327 490 313 q 419 362 438 340 q 390 415 401 383 q 379 488 379 448 q 433 612 379 560 q 561 663 486 663 q 703 616 649 663 q 756 481 756 568 m 903 481 q 858 655 903 580 q 736 770 813 730 q 561 810 659 810 q 327 716 422 810 q 233 488 233 622 q 260 346 233 410 q 336 243 288 283 q 444 183 383 203 q 571 162 504 162 q 719 193 646 162 l 719 244 q 572 208 649 208 q 464 225 515 208 q 371 276 412 243 q 306 364 330 309 q 281 488 281 419 q 361 682 281 602 q 561 761 441 761 q 772 685 690 761 q 854 481 854 610 l 854 0 l 903 0 l 903 481 m 1000 481 q 943 704 1000 606 q 785 854 885 802 q 561 907 685 907 q 393 874 472 907 q 257 785 313 841 q 168 651 201 728 q 135 488 135 574 q 194 271 135 368 q 351 121 253 174 q 567 68 450 68 q 719 98 642 68 l 719 147 q 568 115 645 115 q 424 141 493 115 q 301 212 355 166 q 216 330 248 258 q 184 488 184 401 q 233 674 184 589 q 369 809 282 759 q 561 859 456 859 q 760 812 671 859 q 900 680 849 766 q 951 481 951 593 l 951 0 l 1000 0 l 1000 481 m 1098 481 q 1057 696 1098 597 q 943 862 1015 794 q 772 967 871 929 q 561 1005 673 1005 q 352 964 450 1005 q 185 853 254 923 q 77 689 117 784 q 37 488 37 593 q 66 315 37 397 q 144 171 94 233 q 261 65 195 110 q 405 -3 327 20 q 564 -26 482 -26 q 719 0 644 -26 l 719 50 q 567 20 647 20 q 424 41 494 20 q 293 102 354 62 q 186 199 233 143 q 113 330 140 255 q 86 488 86 405 q 149 723 86 615 q 320 893 211 830 q 561 956 429 956 q 809 897 698 956 q 985 729 920 838 q 1049 481 1049 620 l 1049 0 l 1098 0 l 1098 481 "},"":{"ha":1156,"x_min":37,"x_max":1098,"o":"m 842 1246 l 842 1095 l 890 1095 l 890 1246 l 842 1246 m 744 1246 l 744 1095 l 793 1095 l 793 1246 l 744 1246 m 646 1246 l 646 1095 l 695 1095 l 695 1246 l 646 1246 m 425 1246 l 425 1095 l 474 1095 l 474 1246 l 425 1246 m 328 1246 l 328 1095 l 376 1095 l 376 1246 l 328 1246 m 230 1246 l 230 1095 l 279 1095 l 279 1246 l 230 1246 m 756 481 l 756 0 l 805 0 l 805 481 q 738 651 805 589 q 561 712 670 712 q 396 647 462 712 q 330 488 330 582 q 351 381 330 428 q 407 308 372 335 q 485 268 442 281 q 577 255 528 255 q 719 290 653 255 l 719 338 q 578 300 655 300 q 518 307 546 300 q 464 327 490 313 q 419 362 438 340 q 390 415 401 383 q 379 488 379 448 q 433 612 379 560 q 561 663 486 663 q 703 616 649 663 q 756 481 756 568 m 903 481 q 858 655 903 580 q 736 770 813 730 q 561 810 659 810 q 327 716 422 810 q 233 488 233 622 q 260 346 233 410 q 336 243 288 283 q 444 183 383 203 q 571 162 504 162 q 719 193 646 162 l 719 244 q 572 208 649 208 q 464 225 515 208 q 371 276 412 243 q 306 364 330 309 q 281 488 281 419 q 361 682 281 602 q 561 761 441 761 q 772 685 690 761 q 854 481 854 610 l 854 0 l 903 0 l 903 481 m 1000 481 q 943 704 1000 606 q 785 854 885 802 q 561 907 685 907 q 393 874 472 907 q 257 785 313 841 q 168 651 201 728 q 135 488 135 574 q 194 271 135 368 q 351 121 253 174 q 567 68 450 68 q 719 98 642 68 l 719 147 q 568 115 645 115 q 424 141 493 115 q 301 212 355 166 q 216 330 248 258 q 184 488 184 401 q 233 674 184 589 q 369 809 282 759 q 561 859 456 859 q 760 812 671 859 q 900 680 849 766 q 951 481 951 593 l 951 0 l 1000 0 l 1000 481 m 1098 481 q 1057 696 1098 597 q 943 862 1015 794 q 772 967 871 929 q 561 1005 673 1005 q 352 964 450 1005 q 185 853 254 923 q 77 689 117 784 q 37 488 37 593 q 66 315 37 397 q 144 171 94 233 q 261 65 195 110 q 405 -3 327 20 q 564 -26 482 -26 q 719 0 644 -26 l 719 50 q 567 20 647 20 q 424 41 494 20 q 293 102 354 62 q 186 199 233 143 q 113 330 140 255 q 86 488 86 405 q 149 723 86 615 q 320 893 211 830 q 561 956 429 956 q 809 897 698 956 q 985 729 920 838 q 1049 481 1049 620 l 1049 0 l 1098 0 l 1098 481 "},"":{"ha":1156,"x_min":37,"x_max":1098,"o":"m 466 1378 q 568 1421 508 1421 q 670 1378 627 1421 q 712 1276 712 1336 q 670 1174 712 1217 q 568 1132 627 1132 q 466 1174 508 1132 q 423 1276 423 1217 q 444 1357 423 1336 q 466 1378 466 1378 m 437 1147 q 568 1095 491 1095 q 698 1147 644 1095 q 752 1276 752 1200 q 698 1405 752 1352 q 568 1458 644 1458 q 437 1405 491 1458 q 383 1276 383 1352 q 410 1174 383 1200 q 437 1147 437 1147 m 518 1326 q 568 1346 538 1346 q 617 1326 597 1346 q 637 1276 637 1305 q 617 1227 637 1247 q 568 1206 597 1206 q 518 1227 538 1206 q 498 1276 498 1247 q 508 1316 498 1305 q 518 1326 518 1326 m 490 1201 q 568 1169 522 1169 q 645 1201 613 1169 q 677 1276 677 1232 q 645 1352 677 1320 q 568 1383 613 1383 q 490 1352 522 1383 q 458 1276 458 1320 q 474 1216 458 1232 q 490 1201 490 1201 m 756 481 l 756 0 l 805 0 l 805 481 q 738 651 805 589 q 561 712 670 712 q 396 647 462 712 q 330 488 330 582 q 351 381 330 428 q 407 308 372 335 q 485 268 442 281 q 577 255 528 255 q 719 290 653 255 l 719 338 q 578 300 655 300 q 518 307 546 300 q 464 327 490 313 q 419 362 438 340 q 390 415 401 383 q 379 488 379 448 q 433 612 379 560 q 561 663 486 663 q 703 616 649 663 q 756 481 756 568 m 903 481 q 858 655 903 580 q 736 770 813 730 q 561 810 659 810 q 327 716 422 810 q 233 488 233 622 q 260 346 233 410 q 336 243 288 283 q 444 183 383 203 q 571 162 504 162 q 719 193 646 162 l 719 244 q 572 208 649 208 q 464 225 515 208 q 371 276 412 243 q 306 364 330 309 q 281 488 281 419 q 361 682 281 602 q 561 761 441 761 q 772 685 690 761 q 854 481 854 610 l 854 0 l 903 0 l 903 481 m 1000 481 q 943 704 1000 606 q 785 854 885 802 q 561 907 685 907 q 393 874 472 907 q 257 785 313 841 q 168 651 201 728 q 135 488 135 574 q 194 271 135 368 q 351 121 253 174 q 567 68 450 68 q 719 98 642 68 l 719 147 q 568 115 645 115 q 424 141 493 115 q 301 212 355 166 q 216 330 248 258 q 184 488 184 401 q 233 674 184 589 q 369 809 282 759 q 561 859 456 859 q 760 812 671 859 q 900 680 849 766 q 951 481 951 593 l 951 0 l 1000 0 l 1000 481 m 1098 481 q 1057 696 1098 597 q 943 862 1015 794 q 772 967 871 929 q 561 1005 673 1005 q 352 964 450 1005 q 185 853 254 923 q 77 689 117 784 q 37 488 37 593 q 66 315 37 397 q 144 171 94 233 q 261 65 195 110 q 405 -3 327 20 q 564 -26 482 -26 q 719 0 644 -26 l 719 50 q 567 20 647 20 q 424 41 494 20 q 293 102 354 62 q 186 199 233 143 q 113 330 140 255 q 86 488 86 405 q 149 723 86 615 q 320 893 211 830 q 561 956 429 956 q 809 897 698 956 q 985 729 920 838 q 1049 481 1049 620 l 1049 0 l 1098 0 l 1098 481 "},"":{"ha":1620,"x_min":37,"x_max":1565,"o":"m 1000 481 q 943 704 1000 606 q 785 854 885 802 q 561 907 685 907 q 393 874 472 907 q 257 785 313 841 q 168 651 201 728 q 135 488 135 574 q 194 271 135 368 q 351 121 253 174 q 567 68 450 68 q 719 98 642 68 l 719 147 q 568 115 645 115 q 424 141 493 115 q 301 212 355 166 q 216 330 248 258 q 184 488 184 401 q 233 674 184 589 q 369 809 282 759 q 561 859 456 859 q 760 812 671 859 q 900 680 849 766 q 951 481 951 593 q 951 0 951 0 l 1000 0 l 1000 481 m 903 481 q 858 655 903 580 q 736 770 813 730 q 561 810 659 810 q 327 716 422 810 q 233 488 233 622 q 260 346 233 410 q 336 243 288 283 q 444 183 383 203 q 571 162 504 162 q 719 193 646 162 l 719 244 q 572 208 649 208 q 464 225 515 208 q 371 276 412 243 q 306 364 330 309 q 281 488 281 419 q 361 682 281 602 q 561 761 441 761 q 772 685 690 761 q 854 481 854 610 l 854 0 l 903 0 l 903 481 m 756 481 l 756 0 l 805 0 l 805 481 q 738 651 805 589 q 561 712 670 712 q 396 647 462 712 q 330 488 330 582 q 351 381 330 428 q 407 308 372 335 q 485 268 442 281 q 577 255 528 255 q 719 290 653 255 l 719 338 q 578 300 655 300 q 518 307 546 300 q 464 327 490 313 q 419 362 438 340 q 390 415 401 383 q 379 488 379 448 q 433 612 379 560 q 561 663 486 663 q 703 616 649 663 q 756 481 756 568 m 1099 244 l 1099 367 l 1538 367 l 1538 416 l 1099 416 l 1099 465 l 1538 465 l 1538 513 l 1099 513 l 1099 562 l 1538 562 l 1538 611 l 1099 611 l 1099 732 l 1565 732 l 1565 781 l 1099 781 l 1099 830 l 1565 830 l 1565 879 l 1099 879 l 1099 928 l 1565 928 l 1565 977 l 1050 977 l 1050 713 q 1008 786 1031 751 q 955 850 984 821 q 892 904 926 880 q 820 947 858 928 q 740 979 781 966 q 653 998 698 991 q 561 1005 608 1005 q 352 964 450 1005 q 185 853 254 923 q 77 689 117 784 q 37 488 37 593 q 66 315 37 397 q 144 171 94 233 q 261 65 195 110 q 405 -3 327 20 q 564 -26 482 -26 q 719 0 644 -26 l 719 50 q 567 20 647 20 q 424 41 494 20 q 293 102 354 62 q 186 199 233 143 q 113 330 140 255 q 86 488 86 405 q 149 723 86 615 q 320 893 211 830 q 561 956 429 956 q 809 897 698 956 q 985 729 920 838 q 1049 481 1049 620 l 1049 0 l 1050 0 l 1098 0 l 1565 0 l 1565 49 l 1099 49 l 1099 98 l 1565 98 l 1565 146 l 1099 146 l 1099 195 l 1565 195 l 1565 244 l 1099 244 m 854 951 l 854 977 l 903 977 l 903 923 l 854 951 m 1001 831 l 1001 977 l 952 977 l 952 883 l 1001 831 "},"":{"ha":1023,"x_min":37,"x_max":994,"o":"m 432 -304 q 439 -331 433 -313 q 457 -358 446 -348 q 493 -376 469 -368 q 551 -384 517 -384 l 648 -384 l 648 -335 l 551 -335 q 510 -331 526 -335 q 489 -316 495 -326 q 481 -299 483 -307 q 480 -278 480 -292 q 481 -257 480 -264 q 489 -240 483 -250 q 510 -225 495 -230 q 551 -221 526 -221 l 648 -221 l 648 -34 l 600 -34 l 600 -172 l 551 -172 q 493 -180 517 -172 q 457 -198 469 -189 q 439 -225 446 -208 q 432 -252 433 -243 q 431 -278 431 -262 q 432 -299 431 -294 q 432 -304 432 -304 m 334 -278 q 334 -307 334 -296 q 336 -336 334 -317 q 342 -367 338 -355 q 353 -396 346 -379 q 371 -424 361 -413 q 398 -447 382 -435 q 436 -466 415 -458 q 486 -477 457 -473 q 551 -481 515 -481 l 648 -481 l 648 -433 l 551 -433 q 489 -428 515 -433 q 444 -416 462 -423 q 414 -396 426 -409 q 395 -372 401 -382 q 386 -342 389 -361 q 383 -311 383 -323 q 382 -278 382 -299 q 385 -226 382 -246 q 398 -184 388 -205 q 425 -151 408 -163 q 474 -131 443 -139 q 551 -123 506 -123 l 551 -34 l 502 -34 l 502 -82 q 423 -97 456 -83 q 373 -131 390 -111 q 347 -179 356 -150 q 335 -230 337 -209 q 334 -278 334 -250 m 766 640 q 682 708 732 683 q 574 732 631 732 q 402 661 473 732 q 330 488 330 589 q 402 316 330 387 q 574 244 473 244 q 681 268 631 244 q 765 335 731 292 l 727 367 q 660 313 699 332 q 574 293 620 293 q 436 350 494 293 q 379 488 379 408 q 436 626 379 569 q 574 684 494 684 q 726 610 667 684 l 766 640 m 842 701 q 724 796 794 762 q 574 830 654 830 q 403 784 481 830 q 278 660 324 739 q 233 488 233 581 q 278 317 233 395 q 403 192 324 238 q 574 146 481 146 q 724 181 654 146 q 841 275 793 215 l 804 306 q 703 225 763 254 q 574 195 642 195 q 367 281 453 195 q 281 488 281 368 q 367 695 281 609 q 574 781 453 781 q 702 752 642 781 q 803 671 762 723 l 842 701 m 918 762 q 767 884 857 840 q 574 928 677 928 q 404 893 485 928 q 263 799 322 858 q 170 659 205 741 q 135 488 135 578 q 170 317 135 399 q 263 177 205 236 q 404 84 322 119 q 574 49 485 49 q 766 93 676 49 q 917 213 855 136 l 880 245 q 745 137 825 176 q 574 98 665 98 q 423 129 495 98 q 298 212 351 159 q 215 337 245 264 q 184 488 184 409 q 215 640 184 568 q 298 765 245 712 q 423 848 351 817 q 574 879 495 879 q 745 840 665 879 q 880 732 825 800 l 918 762 m 994 823 q 809 971 919 918 q 574 1025 699 1025 q 366 983 465 1025 q 195 868 267 940 q 80 697 123 796 q 37 488 37 597 q 80 280 37 379 q 195 109 123 180 q 366 -6 267 37 q 574 -49 465 -49 q 809 5 699 -49 q 994 153 918 59 l 955 182 q 787 49 886 98 q 574 0 688 0 q 385 39 475 0 q 229 143 294 77 q 125 299 163 208 q 86 488 86 389 q 125 678 86 587 q 229 834 163 768 q 385 938 294 899 q 574 977 475 977 q 787 928 688 977 q 955 794 886 879 l 994 823 "},"":{"ha":926,"x_min":14,"x_max":872,"o":"m 544 1165 l 92 1386 l 130 1421 l 583 1200 l 544 1165 m 467 1095 l 14 1315 l 54 1351 l 505 1130 l 467 1095 m 307 0 l 307 977 l 258 977 l 258 0 l 307 0 m 210 0 l 210 977 l 161 977 l 161 0 l 210 0 m 112 0 l 112 977 l 63 977 l 63 0 l 112 0 m 405 244 l 405 367 l 845 367 l 845 416 l 405 416 l 405 465 l 845 465 l 845 513 l 405 513 l 405 562 l 845 562 l 845 611 l 405 611 l 405 732 l 872 732 l 872 781 l 405 781 l 405 830 l 872 830 l 872 879 l 405 879 l 405 928 l 872 928 l 872 977 l 356 977 l 356 0 l 872 0 l 872 49 l 405 49 l 405 98 l 872 98 l 872 146 l 405 146 l 405 195 l 872 195 l 872 244 l 405 244 "},"":{"ha":926,"x_min":63,"x_max":920,"o":"m 390 1165 l 842 1386 l 804 1421 l 351 1200 l 390 1165 m 467 1095 l 920 1315 l 880 1351 l 429 1130 l 467 1095 m 307 0 l 307 977 l 258 977 l 258 0 l 307 0 m 210 0 l 210 977 l 161 977 l 161 0 l 210 0 m 112 0 l 112 977 l 63 977 l 63 0 l 112 0 m 405 244 l 405 367 l 845 367 l 845 416 l 405 416 l 405 465 l 845 465 l 845 513 l 405 513 l 405 562 l 845 562 l 845 611 l 405 611 l 405 732 l 872 732 l 872 781 l 405 781 l 405 830 l 872 830 l 872 879 l 405 879 l 405 928 l 872 928 l 872 977 l 356 977 l 356 0 l 872 0 l 872 49 l 405 49 l 405 98 l 872 98 l 872 146 l 405 146 l 405 195 l 872 195 l 872 244 l 405 244 "},"":{"ha":926,"x_min":63,"x_max":872,"o":"m 677 1095 l 625 1095 l 494 1426 l 547 1426 l 677 1095 m 416 1095 l 363 1095 l 422 1244 l 450 1181 l 416 1095 m 311 1095 l 258 1095 l 389 1426 l 442 1426 l 573 1095 l 520 1095 l 415 1360 l 311 1095 m 307 0 l 307 977 l 258 977 l 258 0 l 307 0 m 210 0 l 210 977 l 161 977 l 161 0 l 210 0 m 112 0 l 112 977 l 63 977 l 63 0 l 112 0 m 405 244 l 405 367 l 845 367 l 845 416 l 405 416 l 405 465 l 845 465 l 845 513 l 405 513 l 405 562 l 845 562 l 845 611 l 405 611 l 405 732 l 872 732 l 872 781 l 405 781 l 405 830 l 872 830 l 872 879 l 405 879 l 405 928 l 872 928 l 872 977 l 356 977 l 356 0 l 872 0 l 872 49 l 405 49 l 405 98 l 872 98 l 872 146 l 405 146 l 405 195 l 872 195 l 872 244 l 405 244 "},"":{"ha":926,"x_min":63,"x_max":872,"o":"m 748 1246 l 748 1095 l 797 1095 l 797 1246 l 748 1246 m 650 1246 l 650 1095 l 699 1095 l 699 1246 l 650 1246 m 553 1246 l 553 1095 l 602 1095 l 602 1246 l 553 1246 m 332 1246 l 332 1095 l 380 1095 l 380 1246 l 332 1246 m 234 1246 l 234 1095 l 283 1095 l 283 1246 l 234 1246 m 136 1246 l 136 1095 l 185 1095 l 185 1246 l 136 1246 m 307 0 l 307 977 l 258 977 l 258 0 l 307 0 m 210 0 l 210 977 l 161 977 l 161 0 l 210 0 m 112 0 l 112 977 l 63 977 l 63 0 l 112 0 m 405 244 l 405 367 l 845 367 l 845 416 l 405 416 l 405 465 l 845 465 l 845 513 l 405 513 l 405 562 l 845 562 l 845 611 l 405 611 l 405 732 l 872 732 l 872 781 l 405 781 l 405 830 l 872 830 l 872 879 l 405 879 l 405 928 l 872 928 l 872 977 l 356 977 l 356 0 l 872 0 l 872 49 l 405 49 l 405 98 l 872 98 l 872 146 l 405 146 l 405 195 l 872 195 l 872 244 l 405 244 "},"":{"ha":469,"x_min":-219,"x_max":405,"o":"m 311 1165 l -141 1386 l -103 1421 l 349 1200 l 311 1165 m 233 1095 l -219 1315 l -180 1351 l 272 1130 l 233 1095 m 356 977 l 356 0 l 405 0 l 405 977 l 356 977 m 258 977 l 258 0 l 307 0 l 307 977 l 258 977 m 161 977 l 161 0 l 210 0 l 210 977 l 161 977 m 63 977 l 63 0 l 112 0 l 112 977 l 63 977 "},"":{"ha":469,"x_min":63,"x_max":686,"o":"m 157 1165 l 609 1386 l 570 1421 l 118 1200 l 157 1165 m 234 1095 l 686 1315 l 647 1351 l 195 1130 l 234 1095 m 356 977 l 356 0 l 405 0 l 405 977 l 356 977 m 258 977 l 258 0 l 307 0 l 307 977 l 258 977 m 161 977 l 161 0 l 210 0 l 210 977 l 161 977 m 63 977 l 63 0 l 112 0 l 112 977 l 63 977 "},"":{"ha":469,"x_min":24,"x_max":444,"o":"m 444 1095 l 391 1095 l 260 1426 l 313 1426 l 444 1095 m 182 1095 l 129 1095 l 188 1244 l 216 1181 l 182 1095 m 77 1095 l 24 1095 l 155 1426 l 208 1426 l 339 1095 l 286 1095 l 181 1360 l 77 1095 m 356 977 l 356 0 l 405 0 l 405 977 l 356 977 m 258 977 l 258 0 l 307 0 l 307 977 l 258 977 m 161 977 l 161 0 l 210 0 l 210 977 l 161 977 m 63 977 l 63 0 l 112 0 l 112 977 l 63 977 "},"":{"ha":469,"x_min":-97,"x_max":564,"o":"m 515 1246 l 515 1095 l 564 1095 l 564 1246 l 515 1246 m 417 1246 l 417 1095 l 466 1095 l 466 1246 l 417 1246 m 319 1246 l 319 1095 l 368 1095 l 368 1246 l 319 1246 m 98 1246 l 98 1095 l 147 1095 l 147 1246 l 98 1246 m 1 1246 l 1 1095 l 50 1095 l 50 1246 l 1 1246 m -97 1246 l -97 1095 l -48 1095 l -48 1246 l -97 1246 m 356 977 l 356 0 l 405 0 l 405 977 l 356 977 m 258 977 l 258 0 l 307 0 l 307 977 l 258 977 m 161 977 l 161 0 l 210 0 l 210 977 l 161 977 m 63 977 l 63 0 l 112 0 l 112 977 l 63 977 "},"":{"ha":1088,"x_min":34,"x_max":1034,"o":"m 1034 702 q 993 898 1034 809 q 884 1047 953 987 q 722 1139 814 1106 q 524 1172 629 1172 q 287 1132 397 1172 q 104 1021 178 1093 l 143 992 q 310 1089 210 1055 q 524 1123 409 1123 q 703 1095 619 1123 q 849 1015 786 1067 q 948 882 912 963 q 985 702 985 802 l 985 408 q 960 264 985 330 q 892 150 936 198 q 790 68 849 102 q 660 17 730 34 q 510 1 589 1 q 344 25 422 1 q 208 93 266 50 q 117 200 151 136 q 83 340 83 264 q 115 473 83 412 q 201 574 147 534 q 322 636 254 614 q 462 659 390 659 q 654 642 564 659 l 654 686 q 459 705 561 705 q 299 679 376 705 q 163 607 222 653 q 69 491 104 560 q 34 340 34 421 q 72 182 34 255 q 174 59 109 109 q 325 -20 238 9 q 510 -48 412 -48 q 714 -18 619 -48 q 880 70 808 13 q 992 214 951 127 q 1034 408 1034 301 q 1034 702 1034 702 m 936 702 q 903 862 936 790 q 814 979 871 933 q 684 1049 758 1025 q 524 1074 609 1074 q 330 1044 419 1074 q 180 960 240 1015 l 218 930 q 352 1001 272 976 q 524 1025 431 1025 q 665 1004 599 1025 q 780 943 730 983 q 859 841 830 903 q 887 702 887 779 l 887 408 q 858 271 887 331 q 776 174 828 211 q 657 117 724 136 q 510 98 589 98 q 344 127 418 98 q 225 211 270 155 q 180 340 180 267 q 220 461 180 410 q 324 538 260 513 q 463 564 387 564 q 654 552 558 564 l 654 595 q 462 610 549 610 q 228 533 324 610 q 132 340 132 456 q 183 186 132 253 q 320 84 234 119 q 510 50 406 50 q 675 73 599 50 q 810 139 751 96 q 902 252 869 183 q 936 408 936 321 l 936 702 m 838 702 q 795 854 838 791 q 682 947 752 918 q 524 977 612 977 q 256 899 351 977 l 295 869 q 524 928 376 928 q 714 869 640 928 q 789 702 789 810 l 789 408 q 768 309 789 351 q 707 242 747 267 q 619 207 668 218 q 510 196 570 196 q 344 234 410 196 q 278 340 278 272 q 333 436 278 402 q 467 471 388 471 q 654 462 559 471 l 654 507 q 466 517 553 517 q 298 470 366 517 q 229 340 229 422 q 268 235 229 279 q 369 169 306 191 q 510 147 431 147 q 637 162 579 147 q 741 208 696 178 q 812 290 787 239 q 838 408 838 340 l 838 702 m 741 702 q 680 834 741 790 q 524 879 619 879 q 332 838 398 879 l 372 808 q 524 830 416 830 q 646 800 600 830 q 692 702 692 770 l 692 408 q 682 356 692 378 q 657 323 672 335 q 616 304 642 311 q 567 296 591 298 q 510 294 544 294 q 376 340 376 294 q 473 378 376 378 q 654 374 578 378 l 654 416 q 472 424 600 424 q 401 416 432 424 q 348 389 370 409 q 327 340 327 370 q 378 269 327 292 q 510 245 429 245 q 583 249 550 245 q 645 265 615 254 q 696 294 675 276 q 728 341 716 312 q 741 408 741 370 l 741 702 "},"":{"ha":1093,"x_min":63,"x_max":1029,"o":"m 814 1339 q 808 1291 814 1310 q 794 1262 802 1272 q 771 1247 787 1253 q 746 1242 755 1242 q 716 1241 736 1241 l 375 1241 q 351 1241 360 1241 q 325 1238 342 1240 q 297 1230 308 1235 q 271 1214 286 1224 q 249 1188 257 1203 q 234 1149 240 1173 q 229 1095 229 1125 l 277 1095 q 283 1142 277 1123 q 297 1171 290 1162 q 320 1186 304 1181 q 346 1192 336 1191 q 375 1192 355 1192 l 716 1192 q 740 1193 731 1192 q 766 1196 749 1193 q 794 1204 783 1198 q 820 1220 806 1209 q 843 1245 834 1230 q 857 1284 851 1261 q 863 1339 863 1308 l 814 1339 m 911 1339 q 908 1281 911 1307 q 899 1236 904 1255 q 882 1202 893 1217 q 862 1177 871 1187 q 837 1161 853 1168 q 810 1151 821 1154 q 780 1146 800 1147 q 749 1144 760 1144 q 716 1143 738 1143 l 375 1143 l 375 1095 l 716 1095 q 750 1095 738 1095 q 786 1098 763 1095 q 823 1104 809 1100 q 858 1117 838 1108 q 891 1137 878 1125 q 919 1167 904 1149 q 941 1210 933 1186 q 955 1266 949 1234 q 960 1339 960 1299 l 911 1339 m 375 1339 q 341 1338 353 1339 q 305 1336 328 1338 q 268 1329 282 1333 q 233 1317 254 1325 q 200 1296 213 1308 q 173 1266 187 1284 q 150 1223 158 1247 q 136 1167 142 1200 q 131 1095 131 1134 l 180 1095 q 183 1153 180 1126 q 193 1198 187 1179 q 209 1232 198 1217 q 229 1256 220 1246 q 254 1272 238 1265 q 281 1282 270 1279 q 311 1288 292 1286 q 342 1290 331 1289 q 375 1290 353 1290 l 716 1290 l 716 1339 l 375 1339 m 833 394 l 833 977 l 785 977 l 785 483 l 833 394 m 931 225 l 931 977 l 882 977 l 882 308 l 931 225 m 258 583 l 258 0 l 307 0 l 307 494 l 258 583 m 161 758 l 161 0 l 210 0 l 210 669 l 161 758 m 178 977 l 743 0 l 800 0 l 235 977 l 178 977 m 293 977 l 857 0 l 916 0 l 351 977 l 293 977 m 408 977 l 971 0 l 1029 0 l 1029 977 l 980 977 l 980 85 l 465 977 l 408 977 m 112 892 l 629 0 l 685 0 l 121 977 l 63 977 l 63 0 l 112 0 l 112 892 "},"":{"ha":1158,"x_min":37,"x_max":1112,"o":"m 651 1165 l 199 1386 l 237 1421 l 690 1200 l 651 1165 m 574 1095 l 121 1315 l 161 1351 l 612 1130 l 574 1095 m 436 626 q 574 684 494 684 q 712 626 655 684 q 770 488 770 569 q 712 350 770 408 q 574 293 655 293 q 436 350 494 293 q 379 488 379 408 q 408 598 379 569 q 436 626 436 626 m 402 316 q 574 244 473 244 q 747 316 675 244 q 819 488 819 387 q 747 661 819 589 q 574 732 675 732 q 402 661 473 732 q 330 488 330 589 q 366 351 330 387 q 402 316 402 316 m 367 695 q 574 781 453 781 q 782 695 696 781 q 867 488 867 609 q 782 281 867 368 q 574 195 696 195 q 367 281 453 195 q 281 488 281 368 q 324 652 281 609 q 367 695 367 695 m 278 317 q 403 192 324 238 q 574 146 481 146 q 746 192 667 146 q 870 317 825 238 q 916 488 916 395 q 870 660 916 581 q 746 784 825 739 q 574 830 667 830 q 403 784 481 830 q 278 660 324 739 q 233 488 233 581 q 255 356 233 395 q 278 317 278 317 m 215 640 q 298 765 245 712 q 423 848 351 817 q 574 879 495 879 q 726 848 654 879 q 851 765 798 817 q 934 640 903 712 q 965 488 965 568 q 934 337 965 409 q 851 212 903 264 q 726 129 798 159 q 574 98 654 98 q 423 129 495 98 q 298 212 351 159 q 215 337 245 264 q 184 488 184 409 q 199 604 184 568 q 215 640 215 640 m 170 317 q 263 177 205 236 q 404 84 322 119 q 574 49 485 49 q 745 84 664 49 q 885 177 827 119 q 979 317 944 236 q 1014 488 1014 399 q 979 659 1014 578 q 885 799 944 741 q 745 893 827 858 q 574 928 664 928 q 404 893 485 928 q 263 799 322 858 q 170 659 205 741 q 135 488 135 578 q 152 358 135 399 q 170 317 170 317 m 125 678 q 229 834 163 768 q 385 938 294 899 q 574 977 475 977 q 764 938 673 977 q 920 834 854 899 q 1024 678 985 768 q 1063 488 1063 587 q 1024 299 1063 389 q 920 143 985 208 q 764 39 854 77 q 574 0 673 0 q 385 39 475 0 q 229 143 294 77 q 125 299 163 208 q 86 488 86 389 q 105 633 86 587 q 125 678 125 678 m 80 280 q 195 109 123 180 q 366 -6 267 37 q 574 -49 465 -49 q 783 -6 684 -49 q 954 109 882 37 q 1069 280 1026 180 q 1112 488 1112 379 q 1069 697 1112 597 q 954 868 1026 796 q 783 983 882 940 q 574 1025 684 1025 q 366 983 465 1025 q 195 868 267 940 q 80 697 123 796 q 37 488 37 597 q 59 329 37 379 q 80 280 80 280 "},"":{"ha":1158,"x_min":37,"x_max":1112,"o":"m 497 1165 l 949 1386 l 911 1421 l 458 1200 l 497 1165 m 574 1095 l 1027 1315 l 987 1351 l 536 1130 l 574 1095 m 436 626 q 574 684 494 684 q 712 626 655 684 q 770 488 770 569 q 712 350 770 408 q 574 293 655 293 q 436 350 494 293 q 379 488 379 408 q 408 598 379 569 q 436 626 436 626 m 402 316 q 574 244 473 244 q 747 316 675 244 q 819 488 819 387 q 747 661 819 589 q 574 732 675 732 q 402 661 473 732 q 330 488 330 589 q 366 351 330 387 q 402 316 402 316 m 367 695 q 574 781 453 781 q 782 695 696 781 q 867 488 867 609 q 782 281 867 368 q 574 195 696 195 q 367 281 453 195 q 281 488 281 368 q 324 652 281 609 q 367 695 367 695 m 278 317 q 403 192 324 238 q 574 146 481 146 q 746 192 667 146 q 870 317 825 238 q 916 488 916 395 q 870 660 916 581 q 746 784 825 739 q 574 830 667 830 q 403 784 481 830 q 278 660 324 739 q 233 488 233 581 q 255 356 233 395 q 278 317 278 317 m 215 640 q 298 765 245 712 q 423 848 351 817 q 574 879 495 879 q 726 848 654 879 q 851 765 798 817 q 934 640 903 712 q 965 488 965 568 q 934 337 965 409 q 851 212 903 264 q 726 129 798 159 q 574 98 654 98 q 423 129 495 98 q 298 212 351 159 q 215 337 245 264 q 184 488 184 409 q 199 604 184 568 q 215 640 215 640 m 170 317 q 263 177 205 236 q 404 84 322 119 q 574 49 485 49 q 745 84 664 49 q 885 177 827 119 q 979 317 944 236 q 1014 488 1014 399 q 979 659 1014 578 q 885 799 944 741 q 745 893 827 858 q 574 928 664 928 q 404 893 485 928 q 263 799 322 858 q 170 659 205 741 q 135 488 135 578 q 152 358 135 399 q 170 317 170 317 m 125 678 q 229 834 163 768 q 385 938 294 899 q 574 977 475 977 q 764 938 673 977 q 920 834 854 899 q 1024 678 985 768 q 1063 488 1063 587 q 1024 299 1063 389 q 920 143 985 208 q 764 39 854 77 q 574 0 673 0 q 385 39 475 0 q 229 143 294 77 q 125 299 163 208 q 86 488 86 389 q 105 633 86 587 q 125 678 125 678 m 80 280 q 195 109 123 180 q 366 -6 267 37 q 574 -49 465 -49 q 783 -6 684 -49 q 954 109 882 37 q 1069 280 1026 180 q 1112 488 1112 379 q 1069 697 1112 597 q 954 868 1026 796 q 783 983 882 940 q 574 1025 684 1025 q 366 983 465 1025 q 195 868 267 940 q 80 697 123 796 q 37 488 37 597 q 59 329 37 379 q 80 280 80 280 "},"":{"ha":1158,"x_min":37,"x_max":1112,"o":"m 784 1095 l 732 1095 l 601 1426 l 653 1426 l 784 1095 m 522 1095 l 469 1095 l 528 1244 l 556 1181 l 522 1095 m 417 1095 l 365 1095 l 496 1426 l 549 1426 l 680 1095 l 627 1095 l 522 1360 l 417 1095 m 436 626 q 574 684 494 684 q 712 626 655 684 q 770 488 770 569 q 712 350 770 408 q 574 293 655 293 q 436 350 494 293 q 379 488 379 408 q 408 598 379 569 q 436 626 436 626 m 402 316 q 574 244 473 244 q 747 316 675 244 q 819 488 819 387 q 747 661 819 589 q 574 732 675 732 q 402 661 473 732 q 330 488 330 589 q 366 351 330 387 q 402 316 402 316 m 367 695 q 574 781 453 781 q 782 695 696 781 q 867 488 867 609 q 782 281 867 368 q 574 195 696 195 q 367 281 453 195 q 281 488 281 368 q 324 652 281 609 q 367 695 367 695 m 278 317 q 403 192 324 238 q 574 146 481 146 q 746 192 667 146 q 870 317 825 238 q 916 488 916 395 q 870 660 916 581 q 746 784 825 739 q 574 830 667 830 q 403 784 481 830 q 278 660 324 739 q 233 488 233 581 q 255 356 233 395 q 278 317 278 317 m 215 640 q 298 765 245 712 q 423 848 351 817 q 574 879 495 879 q 726 848 654 879 q 851 765 798 817 q 934 640 903 712 q 965 488 965 568 q 934 337 965 409 q 851 212 903 264 q 726 129 798 159 q 574 98 654 98 q 423 129 495 98 q 298 212 351 159 q 215 337 245 264 q 184 488 184 409 q 199 604 184 568 q 215 640 215 640 m 170 317 q 263 177 205 236 q 404 84 322 119 q 574 49 485 49 q 745 84 664 49 q 885 177 827 119 q 979 317 944 236 q 1014 488 1014 399 q 979 659 1014 578 q 885 799 944 741 q 745 893 827 858 q 574 928 664 928 q 404 893 485 928 q 263 799 322 858 q 170 659 205 741 q 135 488 135 578 q 152 358 135 399 q 170 317 170 317 m 125 678 q 229 834 163 768 q 385 938 294 899 q 574 977 475 977 q 764 938 673 977 q 920 834 854 899 q 1024 678 985 768 q 1063 488 1063 587 q 1024 299 1063 389 q 920 143 985 208 q 764 39 854 77 q 574 0 673 0 q 385 39 475 0 q 229 143 294 77 q 125 299 163 208 q 86 488 86 389 q 105 633 86 587 q 125 678 125 678 m 80 280 q 195 109 123 180 q 366 -6 267 37 q 574 -49 465 -49 q 783 -6 684 -49 q 954 109 882 37 q 1069 280 1026 180 q 1112 488 1112 379 q 1069 697 1112 597 q 954 868 1026 796 q 783 983 882 940 q 574 1025 684 1025 q 366 983 465 1025 q 195 868 267 940 q 80 697 123 796 q 37 488 37 597 q 59 329 37 379 q 80 280 80 280 "}}}
